<svg width="18" height="14" fill="none" xmlns="http://www.w3.org/2000/svg"><path d="M17.6496 3.17411c0-.27902-.1117-.55804-.3125-.75893L15.8192.897321c-.2009-.200893-.4799-.3125-.7589-.3125s-.5581.111607-.759.3125L6.97991 8.22991 3.69866 4.9375c-.20089-.20089-.47991-.3125-.75893-.3125s-.55803.11161-.75893.3125L.662946 6.45536c-.200892.20089-.3125.47991-.3125.75893 0 .27901.111608.55803.3125.75892L4.70312 12.0134l1.51786 1.5178c.2009.2009.47991.3126.75893.3126s.55804-.1117.75893-.3126l1.51786-1.5178 8.0804-8.08036c.2008-.2009.3125-.47992.3125-.75893z" fill="#1544FF"/></svg>