<svg width="14" height="15" fill="none" xmlns="http://www.w3.org/2000/svg"><path d="M13.4866 11.6116c0-.279-.1116-.558-.3125-.7589L9.89286 7.57143l3.28124-3.28125c.2009-.20089.3125-.47991.3125-.75893s-.1116-.55804-.3125-.75893l-1.5179-1.51786c-.2008-.20089-.4799-.312497-.7589-.312497s-.558.111607-.7589.312497L6.85714 4.53571 3.57589 1.25446C3.375 1.05357 3.09598.941963 2.81696.941963c-.27901 0-.55803.111607-.75892.312497L.540179 2.77232c-.200893.20089-.3125.47991-.3125.75893s.111607.55804.3125.75893L3.82143 7.57143.540179 10.8527c-.200893.2009-.3125.4799-.3125.7589s.111607.558.3125.7589l1.517861 1.5179c.20089.2009.47991.3125.75892.3125.27902 0 .55804-.1116.75893-.3125l3.28125-3.2813 3.28126 3.2813c.2009.2009.4799.3125.7589.3125s.5581-.1116.7589-.3125l1.5179-1.5179c.2009-.2009.3125-.4799.3125-.7589z" fill="#1544FF"/></svg>