<svg width="72" height="80" fill="none" xmlns="http://www.w3.org/2000/svg"><g clip-path="url(#clip0)"><path fill="#fff" d="M0 0h71.2088v80H0z"/><path d="M61.8279 11.0661v15.3991c0 29.2505-17.4201 44.6576-26.6287 48.762-8.9933-4.2691-25.81829-19.8057-25.81829-48.0361v-16.125L35.6044 5.27481l26.2235 5.79129zM35.6044 0L0 5.25403V29.7574C0 70.875 35.0891 80 35.0891 80s36.1197-8.4215 36.1197-50.7895V5.25403L35.6044 0z" fill="#F0EBEB"/><path d="M22.0323 19.0399h5.5839v14.3518c4.5565-4.0181 10.6812-9.2177 16.4709-14.3518h7.0181l-15.011 13.1158 15.8837 17.4378h-7.0947L32.0083 35.2081l-4.3921 3.5703v10.8151h-5.5839V19.0399z" fill="#F0EBEB"/></g><defs><clipPath id="clip0"><path fill="#fff" d="M0 0h71.2088v80H0z"/></clipPath></defs></svg>