<svg width="233" height="244" viewBox="0 0 233 244" fill="none" xmlns="http://www.w3.org/2000/svg">
<path d="M202.305 19.1031V69.3427C202.305 164.773 145.305 215.038 115.174 228.429C85.7476 214.501 30.695 163.813 30.695 71.711V19.1031L116.5 0.209078L202.305 19.1031ZM116.5 -17L0 0.141264V80.0834C0 214.23 114.814 244 114.814 244C114.814 244 233 216.525 233 78.2994V0.141264L116.5 -17Z" fill="white"/>
<path d="M72.0914 45.1176H90.3623V91.9404C105.271 78.8315 125.312 61.8676 144.256 45.1176H167.22L118.103 87.9081L170.075 144.799H146.861L104.734 97.8663L90.3623 109.515V144.799H72.0914V45.1176Z" fill="white"/>
</svg>
