<svg width="510" height="504" fill="none" xmlns="http://www.w3.org/2000/svg"><g clip-path="url(#clip0)"><path d="M55.2244 333.539c21.8651 0 39.5902-10.234 39.5902-22.858s-17.7251-22.858-39.5902-22.858c-21.865 0-39.5901 10.234-39.5901 22.858s17.7251 22.858 39.5901 22.858z" fill="#B2D3EA"/><path d="M73.4534 296.791c-1.1254-.649-2.3385-1.215-3.5997-1.722l.0361-.001-6.9263-3.071.5224 1.21c-5.2493-1.045-10.947-1.11-16.2426-.174l.323-1.342-8.1479 3.61.0481.004c-1.0585.45-2.0877.933-3.0465 1.486-10.227 5.904-10.227 15.476 0 21.382 10.227 5.904 26.8064 5.904 37.0334 0s10.227-15.476 0-21.382z" fill="#983BE9"/><path d="M63.6147 302.367c-4.7922 2.766-12.5621 2.766-17.3543 0-4.7922-2.767-4.7922-7.253 0-10.019 4.7922-2.767 12.5621-2.767 17.3543 0 4.7905 2.766 4.7922 7.252 0 10.019z" fill="#8A2AE3"/><path d="M54.9375 299.265c-2.3041 0-4.1719-1.868-4.1719-4.172v-52.735h8.3421v52.735c0 2.306-1.8677 4.172-4.1702 4.172z" fill="#8A2AE3"/><path d="M57.8706 244.274c-1.6633.961-4.3592.961-6.0207 0-1.6633-.96-1.6633-2.517 0-3.476 1.6632-.96 4.3592-.96 6.0224 0 1.6616.961 1.6616 2.518-.0017 3.476z" fill="#983BE9"/><path d="M54.9375 244.171c-1.8677 0-3.3815-1.514-3.3815-3.381v-49.572h6.7631v49.572c0 1.867-1.5138 3.381-3.3816 3.381z" fill="#8A2AE3"/><path d="M103.561 217.195v-1.94l2.742-.397 3.07-2.297c.497-.371 1.447-.407 2.023-.076l2.266 1.308 2.246-.325v1.967l-.009.002c-.012.224-.18.443-.515.593l-7.15 3.186c-.565.252-1.368.221-1.873-.071l-2.381-1.374c-.275-.159-.402-.366-.404-.578l-.015.002z" fill="#B45EF4"/><path d="M103.856 214.733l5.517-4.129c.497-.371 1.447-.407 2.023-.076l4.115 2.377c.576.331.514.881-.131 1.168l-7.149 3.186c-.566.252-1.368.221-1.873-.069l-2.382-1.375c-.505-.294-.556-.756-.12-1.082z" fill="#8A2AE3"/><path d="M94.5483 224.097c.7887 0 1.5791-.182 2.2097-.545l8.572-4.95c.473-.273.634-.878.361-1.352-.273-.471-.876-.636-1.352-.361l-8.5707 4.949c-.6358.367-1.799.367-2.4382 0l-14.2477-8.253c-.4691-.275-1.0774-.112-1.3506.362-.2732.473-.1117 1.079.3626 1.351l14.2477 8.253c.6289.364 1.4176.546 2.2062.546z" fill="#B45EF4"/><path d="M12.1239 205.961l13.7649-8.002-7.7115-3.483-6.5981 4.679.5447 6.806z" fill="url(#paint0_radial)"/><path d="M100.519 194.083c-.761-.399-1.536-.871-2.316-1.442l-29.3322-21.495c-5.2957-3.882-10.7494-4.882-14.9643-2.744-.1099.055-.2044.132-.311.192l-.0309-.008-40.5128 23.502 3.6409 1.211 14.1876 6.433 19.3011 13.693 15.2322 8.083.6891.146c3.5516-2.992 7.5276-5.559 9.7098-9.92 3.7715-6.599 14.2717-8.488 20.4471-13.838.622.396 1.2458.766 1.8678 1.085 1.2749-1.252 1.6185-3.034 2.3916-4.898z" fill="#8A2AE3"/><path d="M113.386 184.39c-.629 0-1.2.222-1.662.579l-.007-.008-39.6433 22.947 1.4485 5.928 1.4863-.71c-2.2698 3.541-5.751 5.87-8.9057 8.528l4.4812.95 38.825-22.592c.179-.077.363-.144.538-.232.531-.269 1.026-.592 1.495-.95l.067-.039-.024.001c2.956-2.281 4.626-6.252 4.626-11.211v-.466c0-1.505-1.222-2.725-2.725-2.725z" fill="#721BD5"/><path d="M59.0974 167.308c2.4743.089 5.1273.939 7.7837 2.519-2.6582-1.58-5.3094-2.43-7.7837-2.519z" fill="#EAEAEA"/><path d="M77.151 209.757v-.466c0-1.503-1.22-2.723-2.7251-2.723-1.5052 0-2.7252 1.22-2.7252 2.723v.466c0 3.643-1.1581 6.318-3.177 7.34-2.2819 1.155-5.751.306-9.2786-2.28l-29.3339-21.495c-4.5138-3.308-9.1376-4.5-13.0157-3.464l24.2256-14.055L13.05 192.088l3.641 1.212 14.1876 6.433 19.3011 13.692 15.2322 8.083.6908.146c3.5516-2.991 7.5276-5.558 9.7098-9.919.3746-.657.8333-1.256 1.3316-1.827 0-.051.0069-.099.0069-.151z" fill="#B45EF4"/><path d="M65.3982 223.939c-3.2097.001-6.7441-1.306-10.2098-3.846l-29.3339-21.495c-3.5276-2.584-6.9933-3.437-9.2803-2.28-2.0189 1.024-3.177 3.699-3.177 7.34 0 1.504-1.22 2.725-2.7252 2.725-1.50514 0-2.7251-1.22-2.7251-2.725 0-5.768 2.2457-10.215 6.1634-12.201 4.2131-2.134 9.6685-1.136 14.9642 2.746l29.3322 21.495c3.5275 2.586 6.9967 3.435 9.2785 2.28 2.019-1.024 3.1771-3.699 3.1771-7.34v-.466c0-1.503 1.2199-2.725 2.7251-2.725 1.5052 0 2.7251 1.22 2.7251 2.725v.466c0 5.768-2.2457 10.215-6.1633 12.201-1.4537.735-3.0568 1.1-4.751 1.1z" fill="#983BE9"/><path d="M42.3463 271.995s-5.5242-2.785-8.9178 1.363c-3.3935 4.148-8.2424 13.942-8.3936 20.559-.1495 6.617 5.2372 6.17 8.4383 4.604 3.2028-1.565 12.557-15.136 13.1223-17.794.567-2.658-.6684-6.254-1.5671-6.957-.8986-.703-2.6821-1.775-2.6821-1.775z" fill="#173D7A"/><path d="M43.5508 270.665l.256 5.724c.055 1.216-.5567 2.376-1.6169 2.977-.9657.549-2.3677.968-4.2613.664-4.1616-.669-4.5327-1.858-4.8299-7.581-.299-5.724 10.4521-1.784 10.4521-1.784z" fill="#E8A200"/><path d="M22.1224 260.99s-5.5241-2.785-8.9177 1.362c-3.3935 4.148-8.2424 13.942-8.3936 20.559-.15121 6.617 5.2372 6.17 8.4383 4.605 3.2011-1.565 12.557-15.136 13.1223-17.794.567-2.658-.6684-6.254-1.5671-6.957-.8986-.703-2.6822-1.775-2.6822-1.775z" fill="#173D7A"/><path d="M23.3287 259.66l.256 5.724c.055 1.216-.5584 2.376-1.6168 2.977-.9657.548-2.3661.968-4.2613.663-4.1616-.668-4.5327-1.857-4.83-7.579-.299-5.725 10.4521-1.785 10.4521-1.785z" fill="#E8A200"/><path d="M72.6235 154.577c-1.6341-26.605-28.8116 3.914-28.8116 3.914l-18.6 18.233-16.75122 18.4c-3.27154 3.593-4.79391 8.446-4.15987 13.264l6.77509 51.593c.335 2.548 2.5155 4.428 5.0843 4.408.7251-.006 1.5584-.073 2.5103-.22 6.0448-.942 5.5981-6.689 5.5981-6.689l-1.2389-48.256 35.176-21.205c.0017 0 16.0536-6.837 14.4178-33.442z" fill="#FDD762"/><path d="M92.8472 164.715c-1.634-26.606-28.8115 3.914-28.8115 3.914L45.4339 186.86l-16.7495 18.4c-3.2715 3.593-4.7939 8.446-4.1598 13.263l6.775 51.594c.3351 2.548 2.5155 4.428 5.0843 4.408.7251-.006 1.5567-.073 2.5104-.22 6.0448-.942 5.598-6.689 5.598-6.689l-1.2388-48.256 35.1759-21.205c0 .002 16.0519-6.837 14.4178-33.44z" fill="#FDD762"/><path d="M76.7679 79.3124C97.3714 87.8555 96.959 100.034 96.959 100.034s-4.0361 44.653-2.6581 74.473c.5756 12.466-66.2333 13.418-56.2692-19.841 11.7477-39.214 7.3438-70.9601 12.8439-75.7488 5.4984-4.7888 20.5623-1.8145 25.8923.3952z" fill="#66FDE4"/><path d="M83.3968 90.1115c-1.0773 4.1839-6.5585 6.3884-12.2425 4.9245-5.6839-1.464-9.4177-6.0431-8.3403-10.2253 1.0773-4.1839 6.5585-6.3885 12.2425-4.9245 5.6839 1.4639 9.4177 6.0413 8.3403 10.2253z" fill="#FFC2B0"/><path d="M74.6716 96.4744c-1.2354 0-2.5035-.1615-3.763-.4862-6.1977-1.5963-10.2579-6.7201-9.0483-11.4229 1.2097-4.7012 7.2476-7.2253 13.4419-5.6324 6.1994 1.5996 10.2596 6.7235 9.05 11.4246-.6031 2.3351-2.3712 4.1977-4.9812 5.2492-1.4364.5756-3.0379.8677-4.6994.8677zm-3.141-16.0587c-3.8265 0-7.0259 1.7801-7.7613 4.6376-.9416 3.6529 2.4812 7.7029 7.629 9.0259 2.5482.6564 5.1187.5481 7.2356-.3024 2.0155-.811 3.3677-2.1994 3.8076-3.9107.9416-3.6513-2.4829-7.6995-7.6324-9.0277-1.1118-.287-2.22-.4227-3.2785-.4227z" fill="#fff"/><path d="M68.5065 78.3828s.1787.8265-.1787 7.3559c-.1117 2.0516 7.0758 3.9691 8.9332 2.1117 1.8574-1.8574 1.1151-3.7905 1.5602-10.7751.4467-6.9864-10.3147 1.3075-10.3147 1.3075z" fill="#FFC2B0"/><path d="M78.8212 77.0752s-1.7698 6.4778-10.495 8.9607l.1323-5.8868 10.3627-3.0739z" fill="#EA9C92"/><path d="M84.3488 60.6179c2.1925 8.4796-2.9055 17.1327-11.3851 19.3251-8.4796 2.1925-17.1327-2.9038-19.3251-11.3851-2.1925-8.4812 2.9055-17.1326 11.3851-19.3251 8.4812-2.1925 17.1326 2.9056 19.3251 11.3851z" fill="#FFC2B0"/><path d="M72.6372 65.1701s-8.7321 3.7406-14.7786 3.7836c-6.0466.0429-4.7132-5.0208-4.7132-5.0208l17.9488-2.5945 1.543 3.8317z" fill="#EA9C92"/><path d="M56.0561 66.1558s7.6067-3.2286 14.2803-1.8832c1.5688.3162 3.0224 1.1564 4.0328 2.397.3299.4055.7474.7749 1.2199.8832 1.1839.268 3.1204-4.641 5.4211-4.7527 2.3007-.1117 3.8351 1.5172 1.9485 4.5362-1.8866 3.0189-1.2492 6.3987-.3815 6.8833.8678.4845 10.0707-6.5637 1.9537-22.6465-8.1187-16.0828-28.7411-7.4211-31.9491-4.1616 0 0-3.3798 2.9433-6.1273.3247 0-.0034-3.0808 23.0709 9.6016 18.4196z" fill="#FF2C9C"/><path d="M85.4003 132.656v12.065c0 1.383-.5825 2.701-1.6031 3.633l-24.7857 22.598 2.8162 4.308 32.7326-23.74c1.5275-1.108 2.5138-2.812 2.7097-4.689l2.2131-21.041-14.0828 6.866z" fill="#FFC2B0"/><path d="M95.215 94s7.519 11.308 10.32 41.075c0 0-12.8441 4.154-20.1346 1.795S95.215 94 95.215 94z" fill="#66FDE4"/><path d="M84.0274 108.299s-2.9433 15.755-3.1117 23.161c-.0464 2.034 1.1976 3.873 3.1117 4.565v-27.726z" fill="#4CEED4"/><path d="M77.5978 186.639l-5.4778-.723L36.7568 165.5c-1.1341-.655-3.1135-.572-4.4228.184L7.27677 180.146l-3.31278-.438v3.297h.00344c-.02234.435.22509.853.76118 1.162L44.805 207.305c1.1341.655 3.1135.572 4.4228-.184l27.2892-15.749c.7371-.425 1.1031-.973 1.0825-1.488v-3.245h-.0017z" fill="#173D7A"/><path d="M51.0268 173.739l-2.5121-1.45H20.8939l-13.61713 7.855-3.31278-.438v3.298h.00344c-.02234.434.22509.852.76118 1.161L44.805 207.303c.5997.345 1.4348.485 2.2836.428l3.9382-33.992z" fill="#396CAA"/><path d="M5.43309 179.902l-1.4691-.194v3.297h.00344c-.02234.435.22509.853.76118 1.162l.7062.407v-4.672h-.00172z" fill="#5793CE"/><path d="M45.207 207.492c1.0739.407 2.6118.32 3.7578-.233v-5.611H45.207v5.844z" fill="#274F89"/><path d="M44.8033 204.009L4.72687 180.871c-1.13405-.654-.99143-1.797.31787-2.553L32.334 162.569c1.3093-.757 3.2887-.839 4.4227-.184l40.0764 23.138c1.1341.654.9915 1.797-.3178 2.553l-27.2892 15.749c-1.3094.756-3.2888.839-4.4228.184z" fill="#fff"/><path d="M44.1263 200.503l-33.3237-19.24c-.94331-.544-.82475-1.495.2646-2.123l14.624-8.224c1.0894-.629 2.7355-.698 3.6771-.153l33.3237 19.239c.9433.545.8247 1.495-.2646 2.124l-14.624 8.224c-1.0894.628-2.7355.697-3.6771.153z" fill="#D4ECFF"/><path d="M33.8839 161.807l-.4141 2.765c-.354 2.356-.2921 4.756.1804 7.091l.4931 2.437c.2784 1.374 1.366 2.441 2.7458 2.692 1.0773.196 2.0945-.562 2.2165-1.649l.6616-5.911s1.512 1.981 2.2423 1.981c.7302 0-.8179-5.919-2.4691-9.27-1.6513-3.35-5.6565-.136-5.6565-.136z" fill="#FFC2B0"/><path d="M47.4684 117.86l-4.3008 8.51c-1.0172 2.012-1.6152 4.21-1.7595 6.461l-1.8677 29.112-5.6565-.136-2.5671-32.693c-.079-1.01-.0309-2.024.1461-3.022l2.933-16.578 13.0725 8.346z" fill="#FFC2B0"/><path d="M43.4459 206.231l-3.3609-4.387-35.33746-20.459c-1.13232-.656-2.04987-2.412-2.04815-3.924l.03093-28.932-2.032688-2.653 1.908978-1.105.00171.002c.36599-.236.85054-.231 1.38491.08L44.0404 168.04c1.1324.656 2.0499 2.412 2.0482 3.924l-.0344 31.508c-.0017.85-.2921 1.441-.7491 1.68l-1.8592 1.079z" fill="#173D7A"/><path d="M19.009 189.641l-2.5104-1.454-13.78203-23.936.01375-15.721-2.032688-2.653 1.908968-1.105.00172.002c.36599-.235.85054-.23 1.38491.081l40.04717 23.186c.598.347 1.1358 1.002 1.5104 1.765L19.009 189.641z" fill="#396CAA"/><path d="M1.60142 147.054l-.902079-1.177 1.908969-1.105.00172.002c.36599-.235.85053-.23 1.38491.081l.7062.409-3.09972 1.79z" fill="#5793CE"/><path d="M44.4082 168.297c.89.729 1.579 2.104 1.6735 3.373l-3.9141 2.26-1.8746-3.258 4.1152-2.375z" fill="#274F89"/><path d="M42.1366 169.144L2.08767 145.958c-1.132322-.656-2.0533026.038-2.0550209 1.55l-.0326467 31.508c-.00171824 1.512.9158266 3.268 2.0481476 3.924l40.04725 23.186c1.1323.657 2.0533-.037 2.055-1.55l.0343-31.507c.0018-1.51-.9158-3.268-2.0481-3.925z" fill="#fff"/><path d="M61.8277 175.258l-.6427 1.33c-.7388 1.531-1.9004 2.818-3.3471 3.71l-3.9778 2.452c-1.2371.763-2.8041.824-4.0602.094-.0447-.026-.091-.053-.1357-.082-1.2647-.792-1.3781-2.607-.3385-3.677l4.1564-4.274s-2.3351 1.789-2.9897 1.069c-.4794-.527 2.2646-3.105 4.3729-3.189 2.1066-.084 4.1462-1.739 4.1462-1.739l2.8162 4.306z" fill="#FFC2B0"/><path d="M51.288 78.8555S36.0489 95.4366 29.901 110.648c0 0 5.2114 9.389 17.966 13.073 12.7563 3.684 3.421-44.8655 3.421-44.8655z" fill="#66FDE4"/><path d="M44.9974 122.736l2.4709-23.8595-5.8197 22.3545c1.0361.541 2.1598 1.043 3.3488 1.505z" fill="#4CEED4"/><path d="M62.7005 75.5083l-4.0945-1.1255s1.9553 3.0757 4.8093 3.8592c2.854.7835 3.2974-1.6323 3.2974-1.6323l-4.0122-1.1014z" fill="#fff"/><path d="M401.826 501.429c22.048 0 39.922-10.319 39.922-23.048 0-12.73-17.874-23.049-39.922-23.049s-39.922 10.319-39.922 23.049c0 12.729 17.874 23.048 39.922 23.048zM268.627 469.231L131.221 389.9c-4.084-2.36-3.572-6.478 1.144-9.202l221.534-128.437c4.716-2.723 11.852-3.019 15.937-.66l137.406 79.332c4.086 2.359 3.572 6.477-1.144 9.201L284.564 468.571c-4.716 2.722-11.852 3.017-15.937.66z" fill="#B2D3EA"/><path d="M422.017 231.933s-.911 18.763-2.339 31.371c-1.427 12.611-31.796-9.685-31.796-9.685v-14.356l34.135-7.33z" fill="#6614CF"/><path d="M405.843 465.374c-.457 1.141-8.325 10.718-16.193 13.113-3.421 1.042-5.721 1.177-7.228.999-1.512-.181-2.447-1.739-1.938-3.176 1.354-3.811 5.235-11.751 15.094-16.639 13.344-6.614 10.265 5.703 10.265 5.703zM408.467 469.052s-2.964 6.956-3.878 12.772c-.557 3.546 1.39 8.155 2.993 11.21.995 1.895 3.517 2.321 5.102.883 2.572-2.333 5.845-6.387 6.386-12.208.913-9.806 0-11.518 0-11.518l-10.603-1.139z" fill="#173D7A"/><path d="M427.421 350.521s1.026 12.369 0 26.054c-1.027 13.684-4.701 77.678-5.385 93.074 0 0 .342 4.661-8.68 3.636-9.023-1.026-8.296-6.202-8.296-6.202s-12.672-.171-13.071-7.641c-.398-7.469-12.978-89.192-12.978-118.574l48.41 9.653z" fill="#FDD762"/><path d="M383.372 286.666l-7.308 44.696-6.649-.115.611-40.958 13.346-3.623z" fill="#FFC2B0"/><path d="M386.434 247.089s-9.863-.256-13.296 13.997-6.119 32.1-3.132 33.583c8.962 4.452 14.636-.758 14.636-.758l1.792-46.822z" fill="#1544FF"/><path d="M383.482 247.694c1.682-.703 3.571-.796 5.323-.292 8.402 2.412 39.994 11.684 45.2 16.134 6.016 5.143-9.022 34.035-8.804 43.508.217 9.473 1.285 20.641 2.122 30.939.837 10.299 1.969 15.945-6.454 20.321-8.422 4.378-22.804 4.581-33.569-3.622-10.765-8.203-8.813-13.814-8.364-19.77.448-5.955 4.113-31.71 3.795-39.021 0 0-3.794-2.794-6.603-7.586-2.809-4.793 2.153-13.602 4.213-19.329s-1.161-12.275-.524-16.949c.33-2.405 1.866-3.582 3.665-4.333z" fill="#3553FF"/><path d="M393.582 257.545c-.667 5.204 4.107 10.103 10.662 10.942 6.555.84 12.409-2.698 13.076-7.903.666-5.203-4.107-10.103-10.662-10.942-6.555-.84-12.409 2.698-13.076 7.903z" fill="#fff"/><path d="M396.968 257.978c-.476 3.72 2.935 7.22 7.621 7.821 4.686.6 8.869-1.927 9.345-5.647.476-3.72-2.934-7.22-7.62-7.822-4.686-.601-8.87 1.928-9.346 5.648z" fill="#FFC2B0"/><path d="M401.625 245.766s5.703-4.691 6.823-2.314c1.12 2.376 2.043 12.569 2.043 12.569l-11.325 3.043 1.718-10.329s-2.268-1.921.741-2.969z" fill="#FFC2B0"/><path d="M383.924 234.596c.549 9.323 8.555 16.433 17.876 15.883 9.324-.549 16.434-8.555 15.884-17.876-.55-9.323-8.555-16.434-17.877-15.884-9.323.55-16.433 8.554-15.883 17.877z" fill="#FFC2B0"/><path d="M409.237 246.407c.101.533.196 1.103.289 1.686-1.138 5.883-9.942 8.459-9.942 8.459l1.3-7.817s-1.067-.905-.764-1.811c3.478-1.098 7.863-2.07 9.117-.517z" fill="#EA9C92"/><path d="M383.924 234.596c.549 9.323 8.555 16.433 17.876 15.883 9.324-.549 16.434-8.555 15.884-17.876-.55-9.323-8.555-16.434-17.877-15.884-9.323.55-16.433 8.554-15.883 17.877zM442.468 305.176l-1.894 45.25-6.615.684-4.306-40.736 12.815-5.198z" fill="#FFC2B0"/><path d="M420.727 301.394c2.189-9.663 6.514-31.011 6.514-31.011l1.849 21.234c-2.133 6.298-3.964 12.078-3.889 15.427.127 5.56.55 11.706 1.045 17.916v.019s-7.708-13.923-5.519-23.585z" fill="#1544FF"/><path d="M432.742 262.608s5.291 2.021 8.284 18.271c2.993 16.247 5.234 32.524-.105 34.622-5.337 2.098-9.797 3.676-11.366-.672-1.569-4.345-2.541-25.285-2.739-32.818-.196-7.531-.483-17.915 5.926-19.403z" fill="#3553FF"/><path d="M405.06 467.083s-1.571-.022-3.621-.374l-2.481-99.478 6.102 99.852z" fill="#D8892B"/><path d="M414.634 413.348l3.519-4.594 37.016-21.432c1.187-.687 2.148-2.528 2.146-4.112l-.033-30.306 2.129-2.779-2-1.158-.001.004c-.384-.248-.892-.241-1.452.084l-41.951 24.289c-1.188.687-2.148 2.528-2.146 4.112l.036 33.006c.001.89.306 1.51.785 1.759l1.952 1.127z" fill="#61064C"/><path d="M440.234 395.97l2.631-1.522 14.436-25.077-.015-16.467 2.129-2.779-2-1.158-.002.004c-.383-.248-.892-.241-1.452.084l-41.951 24.289c-.627.363-1.189 1.05-1.581 1.849l27.805 20.777z" fill="#D29FFF"/><path d="M458.468 351.359l.945-1.234-2-1.158-.002.004c-.383-.248-.891-.241-1.451.084l-.739.428 3.247 1.876z" fill="#D29FFF"/><path d="M413.627 373.61c-.931.763-1.655 2.205-1.753 3.535l4.1 2.368 1.964-3.413-4.311-2.49z" fill="#983BE9"/><path d="M416.007 374.498l41.951-24.289c1.187-.687 2.151.04 2.153 1.624l.036 33.006c.001 1.582-.959 3.424-2.146 4.112l-41.953 24.287c-1.187.687-2.151-.039-2.153-1.624l-.036-33.005c0-1.581.96-3.423 2.148-4.111z" fill="#CD38AB"/><path d="M440.523 350.048s1.749 10.562 1.486 13.946c-.263 3.383-2.074 8.962-3.449 8.845-1.374-.118-.046-13.603-2.458-12.26-2.415 1.344-2.667 3.648-3.76 2.834-1.093-.815 1.906-12.341 1.107-17.339-.803-5 7.074 3.974 7.074 3.974zM369.415 331.247s-1.75 10.562-1.487 13.945c.263 3.384 2.074 8.963 3.449 8.846 1.374-.119.046-13.603 2.459-12.26 2.414 1.344 2.666 3.648 3.759 2.834 1.093-.815-1.905-12.341-1.106-17.339.8-5-7.074 3.974-7.074 3.974z" fill="#FFC2B0"/><path d="M394.31 235.075c-8.483 3.012-10.134 1.176-10.215 1.076-.077-.512-.139-1.029-.17-1.555-.11-1.873.102-3.687.564-5.404l22.007-2.971c-.002 0-3.476 5.76-12.186 8.854z" fill="#EA9C92"/><path d="M383.315 217.748c2-1.713 9.213-10.185 22.136-8.187 8.078 1.249 14.886 6.759 16.396 19.328 1.017 8.47-2.091 16.81-7.816 22.977-.311-.144-.631-.275-.92-.464-3.237-2.131-3.586-3.301-3.586-3.313l-.714-6.414c.022-.911.704-1.72 1.611-1.777.703-.044 1.557-.381 2.368-1.443 1.856-2.428 1-6.212-2.713-6.354-1.94-.076-2.691-1.124-2.966-2.108-.239-.858-1.142-1.334-1.981-1.031-4.223 1.529-14.631 4.823-21.329 2.926-8.565-2.43-2.486-12.427-.486-14.14z" fill="#6614CF"/><path d="M392.951 242.713l-5.172-1.421s2.469 3.885 6.074 4.875c3.605.991 4.167-2.062 4.167-2.062l-5.069-1.392z" fill="#fff"/><path d="M431.727 363.085l4.409-2.524-1.656 2.702-2.229.823-.524-1.001z" fill="#D29FFF"/><path d="M340.492 75.0359L220.065 2.69421c-5.272-3.166734-10.672-3.443372-15.372-1.34367V1.3471l-11.45 4.15988h8.732c-1.682 2.80246-3.007 6.15132-3.844 9.98992L134.456 307.561c-3.608 16.549 3.138 35.771 15.066 42.937l120.427 72.342c1.278.768 2.563 1.356 3.844 1.792l-4.753 7.253 10.091-3.514h-.008c5.933-2.653 10.745-9.098 12.759-18.332l63.675-292.066c3.608-16.548-3.137-35.772-15.065-42.9371z" fill="#173D7A"/><path d="M253.07 430.818l-120.428-72.342c-11.928-7.165-18.674-26.389-15.066-42.937l63.675-292.0645c3.608-16.54843 16.201-24.153396 28.13-16.9883l120.428 72.3417c11.928 7.1651 18.674 26.3891 15.066 42.9371L281.2 413.829c-3.607 16.547-16.201 24.154-28.13 16.989z" fill="#D4ECFF"/><path d="M253.287 422.498l-117.6-70.644c-9.275-5.571-14.52-20.518-11.714-33.384l63.325-290.4559c2.804-12.8662 12.598-18.7804 21.871-13.2098l117.601 70.644c9.275 5.5706 14.519 20.5177 11.713 33.3837l-63.324 290.456c-2.805 12.868-12.599 18.781-21.872 13.21z" fill="#fff"/><path d="M243.536 75.2914l-13.416-7.7458c-1.244-.7182-1.978-2.4966-1.638-3.9726.341-1.476 1.626-2.0894 2.872-1.3712l13.416 7.7459c1.245.7182 1.977 2.4983 1.637 3.9726-.342 1.476-1.627 2.0894-2.871 1.3711zM275.494 93.7422L255.71 82.321c-1.244-.7183-1.978-2.4966-1.638-3.9726.34-1.476 1.626-2.0894 2.871-1.3712l19.784 11.4212c1.244.7182 1.978 2.4966 1.638 3.9726-.34 1.4777-1.626 2.0911-2.871 1.3712zM220.149 137.917l-13.416-7.746c-1.244-.718-1.978-2.497-1.638-3.973.34-1.476 1.626-2.089 2.871-1.371l13.416 7.746c1.246.718 1.978 2.497 1.638 3.973-.342 1.476-1.627 2.091-2.871 1.371zM248.637 154.366l-19.782-11.421c-1.246-.719-1.978-2.497-1.637-3.973.34-1.476 1.625-2.089 2.871-1.371l19.784 11.421c1.245.718 1.977 2.497 1.637 3.973-.343 1.476-1.629 2.089-2.873 1.371zM203.958 65.1283l-8.382-4.8386c-1.246-.7182-1.978-2.4966-1.637-3.9726.34-1.4759 1.625-2.0894 2.871-1.3711l8.381 4.8385c1.246.7183 1.978 2.4984 1.638 3.9726-.342 1.476-1.627 2.0911-2.871 1.3712zM229.788 92.7305L204.179 77.945c-1.244-.7182-1.977-2.4983-1.637-3.9726.34-1.476 1.625-2.0894 2.871-1.3712l25.607 14.7856c1.244.7182 1.978 2.4966 1.638 3.9726-.339 1.4759-1.624 2.0911-2.87 1.3711zM207.392 105.178l-8.381-4.839c-1.244-.7182-1.978-2.4966-1.638-3.9726.34-1.4759 1.626-2.0893 2.871-1.3711l8.382 4.8386c1.244.7181 1.978 2.4981 1.638 3.9721-.341 1.476-1.626 2.09-2.872 1.372zM252.948 182.232l-22.385-12.925c-1.244-.718-1.978-2.496-1.637-3.972.34-1.476 1.625-2.09 2.871-1.371l22.385 12.924c1.244.718 1.978 2.497 1.638 3.973-.341 1.476-1.626 2.089-2.872 1.371zM199.222 125.836l-5.38-3.107c-1.244-.718-1.977-2.496-1.637-3.972.34-1.476 1.625-2.09 2.871-1.372l5.38 3.107c1.244.718 1.978 2.497 1.637 3.973-.34 1.476-1.625 2.089-2.871 1.371zM195.356 148.979l-6.68-3.857c-1.244-.718-1.978-2.497-1.638-3.973.34-1.476 1.626-2.089 2.871-1.371l6.681 3.857c1.244.719 1.978 2.497 1.637 3.973-.342 1.476-1.627 2.089-2.871 1.371zM221.346 163.986l-17.613-10.17c-1.246-.719-1.978-2.497-1.638-3.973.34-1.476 1.626-2.089 2.871-1.371l17.614 10.17c1.244.718 1.978 2.497 1.638 3.973-.342 1.476-1.628 2.089-2.872 1.371zM198.755 163.63l-12.665-7.312c-1.244-.719-1.978-2.497-1.638-3.973.34-1.476 1.626-2.089 2.871-1.371l12.666 7.311c1.244.718 1.977 2.498 1.637 3.973-.342 1.477-1.627 2.091-2.871 1.372zM272.157 193.375l-8.133-4.696c-1.245-.718-1.977-2.497-1.637-3.973.34-1.476 1.625-2.089 2.871-1.371l8.134 4.696c1.244.718 1.978 2.497 1.638 3.973-.344 1.477-1.629 2.091-2.873 1.371zM238.57 123.177l-22.385-12.924c-1.244-.719-1.978-2.499-1.638-3.973.341-1.476 1.626-2.089 2.872-1.371l22.385 12.925c1.244.718 1.978 2.498 1.637 3.972-.342 1.476-1.627 2.09-2.871 1.371zM240.611 111.667l-39.016-22.5262c-1.244-.7182-1.977-2.4966-1.637-3.9726.34-1.476 1.625-2.0894 2.871-1.3712l39.016 22.526c1.244.719 1.978 2.497 1.638 3.973-.341 1.476-1.626 2.091-2.872 1.371zM218.814 124.458l-22.386-12.925c-1.245-.718-1.977-2.497-1.637-3.973.34-1.476 1.625-2.089 2.871-1.371l22.385 12.925c1.244.718 1.978 2.496 1.638 3.972-.342 1.476-1.627 2.091-2.871 1.372zM255.548 132.98l-8.134-4.696c-1.244-.718-1.978-2.496-1.638-3.972.341-1.476 1.626-2.09 2.872-1.371l8.134 4.696c1.245.718 1.977 2.496 1.637 3.972-.34 1.476-1.625 2.09-2.871 1.371zM316.276 115.819l-8.134-4.696c-1.244-.719-1.978-2.497-1.638-3.973.341-1.476 1.626-2.089 2.872-1.371l8.134 4.696c1.246.718 1.977 2.497 1.637 3.973-.34 1.476-1.625 2.089-2.871 1.371zM218.168 149.462l-26.91-15.537c-1.244-.718-1.978-2.496-1.637-3.972.34-1.476 1.625-2.09 2.871-1.371l26.909 15.536c1.244.718 1.978 2.498 1.638 3.973-.342 1.476-1.626 2.089-2.871 1.371zM217.944 60.5166l-19.782-11.4212c-1.246-.7182-1.978-2.4983-1.637-3.9726.34-1.476 1.625-2.0894 2.871-1.3712l19.784 11.4212c1.244.7183 1.977 2.4984 1.637 3.9726-.344 1.476-1.629 2.0894-2.873 1.3712zM195.229 174.282l-22.913-13.229c-1.244-.718-1.978-2.497-1.637-3.973.34-1.476 1.625-2.089 2.871-1.371l22.913 13.229c1.244.718 1.977 2.497 1.637 3.973-.342 1.477-1.625 2.091-2.871 1.371zM208.97 247.35l-13.416-7.746c-1.244-.718-1.978-2.498-1.638-3.972.34-1.476 1.626-2.09 2.871-1.372l13.416 7.746c1.245.719 1.978 2.497 1.638 3.973-.342 1.476-1.627 2.089-2.871 1.371zM240.928 265.802l-19.782-11.422c-1.244-.719-1.978-2.497-1.638-3.973.34-1.476 1.625-2.089 2.871-1.371l19.784 11.421c1.244.718 1.978 2.497 1.638 3.973-.344 1.477-1.629 2.091-2.873 1.372zM185.583 309.977l-13.416-7.746c-1.244-.718-1.978-2.498-1.638-3.972.34-1.476 1.626-2.09 2.871-1.372l13.417 7.746c1.244.718 1.977 2.499 1.637 3.973-.342 1.476-1.627 2.089-2.871 1.371zM214.071 326.424l-19.784-11.421c-1.244-.718-1.977-2.498-1.637-3.972.34-1.476 1.625-2.09 2.871-1.372l19.784 11.423c1.244.718 1.978 2.497 1.637 3.973-.341 1.474-1.627 2.088-2.871 1.369zM169.392 237.189l-8.382-4.839c-1.244-.718-1.978-2.498-1.637-3.972.34-1.476 1.625-2.09 2.871-1.371l8.381 4.838c1.244.718 1.978 2.498 1.638 3.973-.342 1.476-1.627 2.089-2.871 1.371zM195.222 264.791l-25.609-14.786c-1.244-.718-1.977-2.497-1.637-3.973.34-1.476 1.625-2.089 2.871-1.371l25.607 14.786c1.246.718 1.978 2.496 1.638 3.972-.341 1.476-1.626 2.09-2.87 1.372zM172.827 277.236l-8.382-4.839c-1.244-.718-1.978-2.498-1.638-3.972.341-1.476 1.626-2.09 2.872-1.372l8.381 4.839c1.244.718 1.978 2.498 1.638 3.973-.34 1.476-1.626 2.089-2.871 1.371zM218.382 354.291l-22.385-12.925c-1.244-.718-1.978-2.497-1.637-3.973.34-1.476 1.625-2.089 2.871-1.371l22.385 12.925c1.246.718 1.978 2.496 1.638 3.972-.342 1.476-1.626 2.09-2.872 1.372zM164.656 297.894l-5.38-3.106c-1.244-.718-1.977-2.497-1.637-3.973.34-1.476 1.625-2.089 2.871-1.371l5.38 3.107c1.246.718 1.978 2.498 1.638 3.972-.342 1.476-1.626 2.091-2.872 1.371zM160.788 321.038l-6.68-3.858c-1.246-.718-1.978-2.496-1.638-3.972.341-1.476 1.626-2.09 2.872-1.371l6.68 3.857c1.244.718 1.978 2.498 1.638 3.973-.341 1.477-1.626 2.091-2.872 1.371zM186.78 336.045l-17.613-10.171c-1.244-.718-1.978-2.498-1.638-3.972.34-1.476 1.626-2.09 2.871-1.372l17.614 10.171c1.246.718 1.978 2.498 1.638 3.972-.342 1.476-1.628 2.09-2.872 1.372zM164.189 335.689l-12.665-7.311c-1.244-.719-1.978-2.499-1.638-3.973.34-1.476 1.626-2.089 2.871-1.371l12.666 7.313c1.245.718 1.977 2.496 1.637 3.972-.342 1.475-1.627 2.088-2.871 1.37zM237.591 365.435l-8.134-4.696c-1.244-.718-1.978-2.497-1.638-3.973.34-1.476 1.626-2.089 2.871-1.371l8.134 4.696c1.244.718 1.978 2.497 1.638 3.973-.342 1.476-1.627 2.089-2.871 1.371zM204.004 295.236l-22.385-12.925c-1.244-.718-1.978-2.496-1.638-3.972.341-1.476 1.626-2.09 2.871-1.372l22.386 12.925c1.244.718 1.978 2.497 1.637 3.973-.342 1.476-1.627 2.089-2.871 1.371zM206.045 283.728l-39.014-22.527c-1.246-.718-1.978-2.498-1.638-3.972.341-1.476 1.626-2.09 2.872-1.371l39.016 22.526c1.244.718 1.978 2.496 1.637 3.972-.343 1.476-1.629 2.09-2.873 1.372zM184.246 296.518l-22.385-12.925c-1.244-.718-1.978-2.496-1.638-3.972.34-1.476 1.626-2.09 2.871-1.371l22.386 12.924c1.244.719 1.977 2.499 1.637 3.973-.34 1.476-1.625 2.089-2.871 1.371zM220.982 305.039l-8.132-4.696c-1.246-.718-1.978-2.498-1.638-3.973.34-1.476 1.626-2.089 2.871-1.371l8.135 4.696c1.244.718 1.977 2.498 1.637 3.973-.344 1.476-1.629 2.089-2.873 1.371zM183.602 321.52l-26.91-15.536c-1.244-.718-1.978-2.497-1.637-3.973.34-1.476 1.625-2.089 2.871-1.371l26.909 15.537c1.244.718 1.978 2.498 1.638 3.972-.342 1.478-1.627 2.091-2.871 1.371zM183.377 232.575l-19.784-11.421c-1.244-.718-1.978-2.498-1.638-3.973.34-1.476 1.626-2.089 2.871-1.371l19.783 11.421c1.245.719 1.977 2.497 1.637 3.973-.338 1.476-1.624 2.089-2.869 1.371zM160.663 346.342l-22.913-13.229c-1.244-.718-1.977-2.498-1.637-3.972.34-1.476 1.625-2.09 2.871-1.371l22.913 13.229c1.244.718 1.977 2.496 1.637 3.972-.342 1.476-1.627 2.09-2.871 1.371z" fill="#D4ECFF"/><path d="M281.602 262.828l17.772-74.367-31.217-22.413c-15.758-11.313-32.12-20.76-48.809-28.179l-33.061-14.698-17.772 74.367s-14.794 53.508 36.544 116.336c65.275 4.498 76.543-51.046 76.543-51.046z" fill="#B2D3EA"/><path d="M240.653 99.6568c-18.527-13.301-37.764-24.4094-57.386-33.1313l-38.871-17.2804-12.454 4.8506s5.468 2.9228 10.014 5.361l-18.454 77.2253s-17.393 62.912 42.965 136.779c11.583.797 21.71-.021 30.573-1.971-.184.725-.306 1.222-.306 1.222l11.208-4.385c1.043-.383 2.062-.784 3.062-1.198l.237-.093s-.01-.001-.015-.001c37.547-15.731 45.236-53.589 45.236-53.589l20.896-87.436-36.705-26.3532z" fill="#1100E4"/><path d="M183.268 66.5255l-38.872-17.2804-12.453 4.8506s5.467 2.9228 10.013 5.361l-6.696 28.0212 69.292 45.0561 60.35-1.674 12.454-4.85-36.703-26.3532c-18.527-13.3027-37.764-24.4094-57.385-33.1313z" fill="#0110E4"/><path d="M201.59 87.1995l12.531-4.7853c-10.146-5.9417-20.444-11.2614-30.853-15.8887l-38.872-17.2804-12.453 4.8506s5.467 2.9228 10.013 5.361l-.395 1.6564c24.243 10.6222 60.029 26.0864 60.029 26.0864z" fill="#3553FF"/><path d="M204.243 76.8486l-23.332 8.7425 19.543 11.2837 23.161-8.6771c-6.392-4.0379-12.851-7.8318-19.372-11.3491z" fill="#2E1DFF"/><path d="M244.007 218.297l20.895-87.437-36.703-26.353c-18.526-13.3023-37.766-24.409-57.386-33.1309l-38.87-17.2804-20.896 87.4363s-17.3939 62.912 42.965 136.78c76.747 5.288 89.995-60.015 89.995-60.015z" fill="#3553FF"/><path d="M158.88 268.806c-27.271-34.624-36.377-66.145-39.176-86.749-3.129-23.028.709-37.824.735-37.928l18.258-76.3663 28.157 12.5174c18.98 8.4383 37.707 19.2513 55.661 32.1429l31.387 22.537-19.375 81.072-.072.328c-.028.139-3.138 14.318-14.188 27.733-14.264 17.315-34.914 25.622-61.387 24.713z" fill="#2E1DFF"/><path d="M168.397 106.061c-.612 1.876.21 4.158 1.833 5.095 1.624.936 3.438.177 4.05-1.7.612-1.876-.209-4.156-1.835-5.094-1.624-.937-3.436-.176-4.048 1.699zM158.931 100.597c-.612 1.876.21 4.156 1.835 5.094 1.626.939 3.438.177 4.05-1.699.612-1.876-.21-4.1563-1.833-5.0945-1.626-.9364-3.44-.1769-4.052 1.6995zM149.467 95.1327c-.612 1.8763.21 4.1581 1.833 5.0943 1.626.938 3.439.177 4.05-1.6974.612-1.8763-.209-4.1581-1.833-5.0946-1.626-.9398-3.438-.1787-4.05 1.6977z" fill="#FF2C9C"/><path d="M103.942 411.493c-18.1448-10.476-47.5629-10.476-65.7059 0-18.1429 10.476-18.1429 27.459 0 37.935 18.1447 10.477 47.5629 10.477 65.7059 0 18.145-10.474 18.145-27.459 0-37.935zM69.9636 430.82c-4.6668 2.694-12.2322 2.694-16.8973 0-4.665-2.694-4.6667-7.062 0-9.756 4.6668-2.695 12.2322-2.695 16.8973 0 4.6667 2.694 4.6667 7.062 0 9.756z" fill="#B2D3EA"/><path d="M113.746 441.013c-2.424 2.41-5.416 4.684-8.991 6.749-3.576 2.065-7.5142 3.792-11.6896 5.191l8.8816 5.127 13.385.687 6.622 3.823-2.702 1.561 5.012 2.893 5.404-3.117 8.757 5.057-8.799 5.081 6.468 3.734 6.273 3.622 7.816-4.512 11.583 6.687-4.423 2.553 7.442 4.296 4.423-2.553 3.491 2.015-3.517 6.995 11.256 6.499h41.365l-108.057-62.388z" fill="#B2D3EA"/><path d="M117.55 426.773v-12.562l-3.701 2.09c-2.264-3.079-5.558-5.964-9.905-8.475-18.1451-10.476-47.5632-10.476-65.7062 0-5.0328 2.906-8.6634 6.313-10.904 9.942l-2.7028-3.555v12.56c-.0086 6.872 4.5259 13.746 13.6085 18.989 18.1447 10.476 47.5628 10.476 65.7055 0 9.08-5.244 13.614-12.117 13.605-18.989zm-47.7446-8.187c-4.6667 2.694-12.2322 2.694-16.8972 0-4.6668-2.694-4.6668-7.062 0-9.756s12.2322-2.694 16.8972 0c4.6651 2.694 4.6651 7.062 0 9.756z" fill="#E8A200"/><path d="M67.2006 436.675l-20.0485-9.881-17.8165-11.77c-.7578.897-1.4262 1.812-2.0018 2.742l-2.7028-3.555v12.56c-.0086 6.872 4.5259 13.746 13.6085 18.989 8.0826 4.666 18.4007 7.247 28.9628 7.758v-16.843h-.0017z" fill="#FDD762"/><path d="M103.942 395.243c-18.1448-10.476-47.5629-10.476-65.7059 0-18.1429 10.476-18.1429 27.46 0 37.936 18.1447 10.476 47.5629 10.476 65.7059 0 18.145-10.475 18.145-27.46 0-37.936zM69.9636 414.57c-4.6668 2.694-12.2322 2.694-16.8973 0-4.665-2.694-4.6667-7.062 0-9.756 4.6668-2.694 12.2322-2.694 16.8973 0 4.6667 2.694 4.6667 7.062 0 9.756z" fill="#FDD762"/><path d="M79.0789 401.875H53.8636c-2.3042.531-4.5499 1.172-6.7115 1.925v21.37h31.9268v-23.295zm-9.2734 16.71c-4.6668 2.695-12.2322 2.695-16.8973 0-4.6667-2.694-4.6667-7.062 0-9.756 4.6668-2.694 12.2322-2.694 16.8973 0 4.665 2.694 4.665 7.062 0 9.756z" fill="#E8A200"/><path d="M100.047 397.492c-15.9938-9.234-41.9222-9.234-57.9156 0-15.9918 9.234-15.9918 24.204 0 33.437 15.9917 9.234 41.9218 9.234 57.9156 0 15.993-9.232 15.993-24.203 0-33.437zM69.9635 414.57c-4.6667 2.694-12.2322 2.694-16.8972 0-4.665-2.694-4.6668-7.062 0-9.756s12.2322-2.694 16.8972 0c4.6668 2.694 4.6668 7.062 0 9.756z" fill="#F2B42A"/><path d="M42.1314 400.96c15.9917-9.234 41.9218-9.234 57.9156 0 7.232 4.175 11.182 9.524 11.873 14.985.838-6.616-3.112-13.396-11.873-18.453-15.9938-9.234-41.9222-9.234-57.9156 0-8.7614 5.059-12.7099 11.837-11.8731 18.453.6924-5.461 4.6427-10.81 11.8731-14.985z" fill="#E8A200"/><path d="M113.746 437.251c-2.424 2.411-5.416 4.684-8.991 6.75-3.576 2.065-7.5142 3.792-11.6896 5.191l8.8816 5.127 13.385.687 6.622 3.823-2.702 1.56 5.012 2.894 5.405-3.12 8.758 5.056-8.799 5.081 6.468 3.734 6.273 3.622 7.816-4.512 11.583 6.687-4.423 2.554 7.442 4.295 4.423-2.553 3.491 2.015-3.517 6.995 11.256 6.499h41.365l-108.059-62.385z" fill="#F2B42A"/><path d="M113.746 428.174c-2.425 2.411-5.416 4.684-8.992 6.749-3.576 2.065-7.514 3.792-11.6893 5.191l8.8813 5.127 13.385.687 6.623 3.824-2.703 1.56 5.012 2.893 5.406-3.12 8.757 5.057-8.799 5.081 6.468 3.733 6.273 3.622 7.816-4.512 11.583 6.688-4.423 2.553 7.442 4.296 4.423-2.554 3.491 2.016-3.517 6.995 11.256 6.498h41.365l-108.058-62.384z" fill="#FDD762"/><path d="M221.803 490.56h-41.365v9.078h41.365v-9.078zM164.783 486.682v-9.079l4.423-2.554v9.08l-4.423 2.553z" fill="#E8A200"/><path d="M157.343 473.307v9.078l7.44 4.297v-9.079l-7.44-4.296z" fill="#EEAD00"/><path d="M150.182 464.066v9.08l-7.817 4.512v-9.079l7.817-4.513z" fill="#E8A200"/><path d="M129.626 461.224v9.078l12.739 7.355v-9.079l-12.739-7.354zM169.206 484.128l-.026 9.011 11.258 6.5v-9.079l-11.232-6.432zM124.262 454.207v9.079l-5.012-2.893v-9.08l5.012 2.894z" fill="#EEAD00"/><path d="M101.945 445.243v9.078l13.385.689v-9.08l-13.385-.687zM193.574 484.129l-79.111-45.716 4.395-2.538 83.459 48.224-8.743.03z" fill="#E8A200"/><path d="M118.858 438.073l79.675 46.038 3.784-.012-83.459-48.224-4.395 2.538 1.904 1.1 2.491-1.44z" fill="#F2B42A"/><path d="M101.945 454.32v-9.077l-8.8813-5.127v9.077l8.8813 5.127zM129.668 451.087v9.079l-5.406 3.12v-9.079l5.406-3.12z" fill="#E8A200"/><path d="M100.047 397.493c-8.9867-5.189-21.1107-7.461-32.848-6.818v3.467c11.7356-.643 23.8596 1.631 32.848 6.818 7.232 4.175 11.182 9.524 11.873 14.985.838-6.614-3.112-13.394-11.873-18.452z" fill="#FDD762"/></g><defs><radialGradient id="paint0_radial" cx="0" cy="0" r="1" gradientUnits="userSpaceOnUse" gradientTransform="translate(-78.9142 195.709) scale(84.9736)"><stop stop-color="#01C8EF"/><stop offset=".0894" stop-color="#03BEE9"/><stop offset=".2388" stop-color="#08A5D7"/><stop offset=".4288" stop-color="#107BBB"/><stop offset=".4457" stop-color="#1177B8"/><stop offset="1" stop-color="#112564"/></radialGradient><clipPath id="clip0"><path fill="#fff" d="M0 0h510v503.4H0z"/></clipPath></defs></svg>