<svg width="101" height="102" fill="none" xmlns="http://www.w3.org/2000/svg"><path opacity=".15" d="M96.5723 65.0577L66.9785 48.9766c-.9754-.53-2.5563-.53-3.5316 0L.731526 83.0588c-.975368.53-.975368 1.3888 0 1.9188L30.3267 101.059c.9754.53 2.5562.53 3.5309 0l62.7141-34.0832c.9753-.5293.9753-1.3881.0006-1.9181zM6.55006 67.2079l5.65234-3.0716c3.8333-2.0832 9.1284-2.5839 11.8255-1.1179 2.6972 1.4661 1.7761 4.3427-2.0579 6.426l-5.6524 3.0716c-3.8333 2.0832-9.12766 2.5839-11.82548 1.1179-2.69714-1.4661-1.77604-4.3427 2.05794-6.426z" fill="#6B99D1"/><path d="M13.3129 62.5977c-.2514.6912.0768 1.2711.2865 1.859.4076 1.144.3124 2.681.3124 2.681.082.1339.5955.1725.7384-.0392 0 0-.0655-2.526.6478-2.3248l-1.9851-2.176z" fill="#2D2979"/><path d="M19.3852 66.5307c-.7445-1.0002-1.9157-4.2156-2.1506-4.9736-.0993-.3207-.3659-.9634-.3481-1.5881.0311-1.1148.3944-4.2244.3944-4.2244l-2.8454.0081.0457 4.0288c-.0192.6141-.0404.7854-.2309 1.2388-.1483.3525-.5102 1.2144-.6373 1.5831-.1389.4721-.3838.9765.4321 1.5925.8159.6159 1.3043.9722 1.8363 1.5918.5327.6197.4943 1.4437 1.3525 2.1748.8583.7312 2.4795.1707 2.7898-.0816.4368-.3537.2865-.6695-.6385-1.3502z" fill="#FFA8A7"/><path d="M19.2663 67.3696c-1.8065.4185-2.1691.1937-2.6905-1.7227-.4004-1.4697-.7544-2.521-1.4406-3.0859-.8231-.6763-.8827-1.065-.8847-1.542-.1786-.0131-.2686.1121-.3844.4845-.2641.8501-.5996.8775-.6115 1.4847-.0119.6073.4235 1.136.9046 1.4318.7934.4883 1.0111.7057 1.379 1.4231.4334.8451.3474 1.7831.6406 2.5715 1.2585.9174 2.6064 1.5196 4.6339.6346.3865-.9672.7127-1.4093-1.4279-2.5204.3924.426.5657.6826-.1185.8408zM8.47798 63.683c-.18197.4478-.53202.9622-.43078 2.138.10191 1.1765.37321.933.28719 2.503-.05228.9672-.54525 2.1966-.00596 2.9321.93897.8782 3.40917.7586 3.92397.2903.1323-.4098.2581-.8171.1833-1.1946-.0635-.3232-.6273-.6713-.7166-.9939-.0675-.2622-.1602-.5755-.2541-1.0133-.2998-1.4007-.6412-4.6678-.6412-4.6678l-2.34582.0062z" fill="#2D2979"/><path d="M10.397 69.878c-.5188.028-1.1289-.1769-1.1289-.1769-.17932-.0891-.30174-.3214-.34607-.5998-.11779-.7392.14425-1.6466-.20381-2.6736-.34872-1.0295-.42151-1.6423-.2402-2.7446s.03375-2.7739.03375-2.7739l2.40073-.0498s-.1013 1.8534-.088 2.8162c.0132.9635.211 3.9827.4228 4.9742.1052.4958.1925.6882.1323.8981-.0006 0-.2031.2883-.9826.3301z" fill="#FFA8A7"/><path d="M14.314.617452C13.7747-.197157 9.66084-.732756 8.30829 2.54872c-.51283 1.24434-.43342 4.42368-.86353 6.42221-.43012 1.99857-1.44056 3.12947-1.8045 4.75067-.36328 1.6211.22962 4.3383 4.37984 4.8179 4.1503.4795 7.3424-.8912 8.3218-2.1368.9793-1.2456 1.0011-3.8912-.0172-5.313-1.0184-1.42249-1.7906-2.57714-1.7661-4.42808L14.314.617452z" fill="#543354"/><path d="M34.9739 22.476c-.5373.1719-1.0707.1314-1.8059.4298-.6478.2634-1.0792.4141-1.731.4957-.6511.0816-2.6105-.5225-4.3329-1.3434-2.0315-.9678-4.1867-2.8231-5.0026-3.7454-1.7588-1.9892-3.6904-5.011-4.2872-6.1078-.716-1.3153-1.6358-1.5302-2.5086-1.4324-1.0256.1146-1.471.6857-.4175 2.4632 1.0534 1.7768 3.1967 4.9499 5.2427 6.9472.992.9678 2.6145 2.4158 5.2203 3.6695 1.8204.8757 3.4125 1.3726 5.395 1.8429.5399.1283.9078.3493 1.907.7081.9999.3587 2.2459.5455 3.1286.4067.8827-.1396 1.1779-.3208 1.2255-.5008.0602-.2267-.1337-.3512-.5446-.3313-.4109.0199-1.0878.1177-1.9434-.0978 0 0 .9012-.0012 1.4399-.0479.5386-.0461 1.0547-.1688 1.4041-.2977.4328-.1601.5929-.7922.1787-.7816-.4169.0106-.7325.1245-1.5319.1818-.7279.0517-1.2705-.0454-1.2705-.0454s.8636-.1047 1.5689-.322c.7048-.2174.9483-.4428 1.0998-.5998.1515-.1569.1218-.5449-.3911-.4677-.4605.0698-1.0104.3432-1.911.3475-.6544.0031-1.117-.0797-1.0309-.1731.086-.0928.4704-.0698.976-.3189.4824-.2379.806-.7417.6432-.9865-.1641-.2435-.184-.0647-.7206.1071z" fill="#FFA8A7"/><path d="M14.2523.662522s1.4684-1.185181 3.2285.505708c1.123 1.07869 1.074 3.16941.8239 4.08928-.2502.91987-1.1587 2.0272-1.9362 2.09758-.7775.07038-2.1162-6.692568-2.1162-6.692568z" fill="#543354"/><path d="M6.88135 29.5171c-.84434 3.4583.30572 8.9283.49828 11.7645.19189 2.8355.47047 6.1351.47047 6.1351s-.91052 2.995-.85824 5.2993c.05492 2.4494 1.60003 9.4583 1.60003 9.4583s.97536.6789 2.21941-.0062c0 0 .3666-6.0685.7113-8.8785.36-2.9346.4765-5.0751.7921-6.7915.3937-2.1387 1.289-13.5551 1.289-13.5551l.1006 1.7283 1.1031 11.2594s-.7888 1.6224-.7842 2.9265c.006 1.7943.4096 10.2069.4096 10.2069s1.0786.7717 2.4014.0106c0 0 1.8793-11.5497 2.1459-12.9055.2455-1.2505.7954-14.2388-.2964-17.2556l-11.80235.6035zM10.4132 8.00293s.2032 3.24977.1403 3.48827c-.0622.2379-1.3552.4702-1.71848.7542-.36262.2834 1.87798 3.5798 3.01738 4.0674 1.1395.4877 4.6651-.7585 4.9106-2.4095.2257-1.5203-1.0098-2.7023-1.4855-3.1146-.317-.0635-.8292-.0044-.9734-.0237l-.1032-1.57565c-1.5438-.46211-3.7877-1.18642-3.7877-1.18642z" fill="#FFA8A7"/><path d="M9.93959 11.8071c-.96941.1407-2.0791.6284-2.2313 1.1278-.178.583-.56179 3.3326.27792 5.4239.83972 2.0914 1.8217 3.5076 2.30479 4.4088 0 0 3.6751 1.0693 7.0591-.9062 0 0 .3382-1.7021.3541-2.901 3.1219-2.5646.4532-5.7265-2.1936-8.1834-.2588-.0355-.7041-.0274-.9529-.0113 0 0 1.5636 3.7679.7199 4.1211-1.2255.5125-4.2138-2.4875-5.33801-3.0797z" fill="#F5FBFB"/><path d="M14.2849 10.4655l-.0834-1.27615-1.0997-.33568-2.6886-.85074s.0318.58792.0536 1.02014c0 0 .1132 1.11103 2.0652 1.97173.3448.1526 1.6457.2647 1.7529-.5293z" fill="#F28F8F"/><path d="M16.8628 3.97486c-.348-2.08759-1.9507-3.664499-4.2383-3.538073C10.1914.57131 8.33465 2.53684 8.47758 4.82684c.08337 1.33962.84104 2.47497 1.93622 3.17499 0 0 .2077.75357.352.91176.8126.88872 2.9638 1.45231 3.6738 1.46041.6141.0069 1.1435-.53307 1.7192-1.42989 1.1983-1.86775.8946-3.93729.704-4.96925z" fill="#FFA8A7"/><path d="M16.6982 2.67559C15.7208.788528 13.78.131482 11.9133.475886 10.31.771712 9.08118 1.89897 8.64643 3.38183c-.5704 1.94498.29976 3.67821 1.76677 4.6205-.049-.14075-1.21225-1.76001-.0251-2.12248.0192.15508.0469.73303.1091 1.09674 0 0 .583.03737.5618-.6477-.0059-.18435-.0416-.49699-.039-.64895.0093-.49886-.0132-.83579.2905-1.26303.133-.18621.1899-.39236.27-.63026.1952-.58231.6432-1.0874 1.2579-1.28171.5823-.18372 1.383-.13888 2.2551.77912.8781-1.32406 1.3095-.88437 1.6047-.60847z" fill="#543354"/><path d="M10.413 8.00398s-.1058.20739-.53529.22919c-.80199.03923-1.74625-1.36144-1.10241-2.31619.40232-.59664 1.3155-.3905 1.6126-.0355l.0251 2.1225z" fill="#FFA8A7"/><path d="M10.0533 22.3448c.2376.4217.2846 1.0295-.5009 2.1082-.78546 1.0787-2.38152 3.2684-2.67069 5.0626.63194.6303 1.53253 1.9201 4.26539 2.3193 3.93.5736 6.8574-1.0587 7.7798-2.0091 0 0-.0549-1.5539-.7537-4.3558-.4202-1.6865-.6531-2.2925-.8232-3.6091-.1694-1.3165-7.2967.4839-7.2967.4839z" fill="#F5FBFB"/><path d="M9.8748 23.7089c-.44467.7068-.81457 1.3134-1.65561 2.4114-.80796 1.0544-2.37688 3.3662-1.99772 7.4044.24814 2.6381 1.62848 13.8926 1.62848 13.8926s-.70076 1.9288-.91912 4.334c-.21837 2.4046 1.56165 10.4772 1.56165 10.4772s.4268.3756 1.28372.3569c.8569-.0187 1.1282-.4329 1.1282-.4329s.319-4.4965.487-6.8326c.1681-2.3367.6128-6.0486.7418-6.9753.1284-.9267.4434-2.5459.5936-4.362.1502-1.8154.8768-11.0384.8768-11.0384l.1005 1.7283s.096 2.8038.5241 6.264c.4282 3.4603.579 4.9954.579 4.9954s-.7431 1.2849-.8384 2.234c-.0959.9485.4639 10.8995.4639 10.8995s.3567.5518 1.3261.6502c.9892.1002 1.2354-.1713 1.2354-.1713s1.553-10.4262 1.7403-11.4899c.1879-1.0637.3421-1.5894.5572-4.9331.215-3.3438.1369-10.6093-.221-13.2431-.358-2.6344-1.3903-6.4627-1.3903-6.4627s-1.3009.6384-3.1081.7256c-1.8065.0853-4.6975-.4322-4.6975-.4322z" fill="#C4D9FF"/><path d="M17.7048 29.8267s-.4017.86-1.514 1.8173c-1.1124.9578-2.5867 1.2972-2.5867 1.2972l.1006 1.7283s.096 2.8038.5241 6.264c.2342 1.8933.3851 3.2055.4738 4.0102l-.1258-11.3379c2.7342-1.1528 3.128-3.7791 3.128-3.7791z" fill="#AACAF9"/><path d="M10.1951 22.7472s2.5218.7093 4.3323.5555c2.0129-.1707 2.6442-.6907 2.8804-1.042 0 0 .3031.6745.2733 1.151-.8741.9554-1.9917 1.1777-3.6063 1.174-1.8383-.0044-3.9028-.6515-4.19992-.8788 0 0 .24812-.5362.32022-.9597z" fill="#7FA8E6"/><path d="M10.8596 34.5863c-.4632-.3083-.7417-.7387-1.43059-1.1229-.60679-.3388-.98992-.5786-1.4432-1.0264-.45261-.4484-1.08455-2.2956-1.39092-4.0886-.3613-2.1162-.03309-4.8478.28056-6.0105.67628-2.5086 2.13999-5.7546 2.73222-6.8539.71003-1.3184.49363-2.2333-.24218-2.7521-.82649-.5829-1.61723-.3288-2.36233 1.1292-.93765 1.8341-2.3782 5.3429-2.89301 8.0744-.25013 1.3241-.54129 3.4104-.08801 6.1314.31696 1.9014.82516 3.4054 1.58547 5.1916.20711.487.23292.8962.51216 1.8683.27925.9722.85031 2.031 1.48886 2.6214.63856.5904.96743.7081 1.15073.639.23027-.0872.22299-.3083-.03574-.6098-.25873-.3008-.74046-.7598-1.05742-1.5376 0 0 .5307.685.88736 1.0687.356.3836.76428.7044 1.08058.8943.39236.2354 1.02966-.0137.77686-.3232-.2541-.3114-.53798-.4845-1.05676-1.06-.47181-.5238-.70738-.994-.70738-.994s.59753.596 1.19837 1.0052c.60087.4098.93767.4621 1.16197.4852.2237.0236.54-.2274.1727-.5724-.3308-.3101-.8893-.568-1.42202-1.2512-.3871-.4963-.5876-.8974-.45658-.8862.13036.0106.33615.317.8477.5561.4883.228 1.1116.1775 1.2255-.0903.1138-.2678-.0517-.1781-.5149-.4857z" fill="#FFA8A7"/><g opacity=".9"><path opacity=".8" d="M81.5176 17.7707L98.959 8.2931c.5751-.31264 1.0402-.05916 1.0409.56549V20.7414c0 .6247-.4658 1.3838-1.0409 1.6965l-17.4414 9.4776c-.5751.312-1.0409.0591-1.0409-.5655V19.4672c.0006-.6253.4665-1.3845 1.0409-1.6965z" fill="#57F7E0"/><path opacity=".9" d="M81.5176 17.7707L98.959 8.2931c.5751-.31264 1.0402-.05916 1.0409.56549V20.7414c0 .6247-.4658 1.3838-1.0409 1.6965l-17.4414 9.4776c-.5751.312-1.0409.0591-1.0409-.5655V19.4672c.0006-.6253.4665-1.3845 1.0409-1.6965z" stroke="#E9FFFB" stroke-miterlimit="10"/><path opacity=".8" d="M82.624 19.5465l7.0942-3.8545c.2879-.1563.5208-.0299.5208.2828v.028c0 .312-.2336.6919-.5208.8482l-7.0936 3.8545c-.2878.1563-.5207.0293-.5207-.2827v-.0274c0-.3127.2329-.6926.5201-.8489zM91.7396 14.5949l6.1129-3.3219c.2872-.1564.5208-.0293.5208.2827v.028c0 .312-.2329.6919-.5208.8483l-6.1129 3.3219c-.2872.1557-.5201.0292-.5201-.2828v-.0274c0-.3126.2329-.6925.5201-.8488z" fill="#0B3FA5"/><g opacity=".8"><path opacity=".8" d="M82.624 24.9953l7.0942-3.8544c.2879-.1557.5208-.0293.5208.2827v.028c0 .312-.2336.6919-.5208.8483l-7.0936 3.8544c-.2878.1557-.5207.0293-.5207-.2827v-.0274c0-.3127.2329-.6926.5201-.8489zM91.7396 20.0438l6.1129-3.3219c.2872-.1557.5208-.0293.5208.2827v.0274c0 .3121-.2329.692-.5208.8483l-6.1129 3.3219c-.2872.1563-.5201.0292-.5201-.2828v-.0274c0-.3126.2329-.6925.5201-.8482z" fill="#0B3FA5"/></g><g opacity=".8"><path opacity=".8" d="M82.624 22.2708l3.8406-2.087c.2872-.1557.5201-.0293.5201.2828v.028c0 .312-.2329.6919-.5201.8482l-3.8406 2.0864c-.2878.1563-.5207.0293-.5207-.2828v-.0274c.0006-.312.2336-.6919.5207-.8482zM88.1891 19.2473l3.2576-1.7799c.2872-.1569.5195-.0311.5195.2815v.0281c0 .312-.2329.6925-.5195.8494l-3.2576 1.7799c-.2872.1569-.5194.0305-.5194-.2815v-.028c0-.3126.2322-.6932.5194-.8495zM93.293 16.4602l4.5592-2.4656c.2879-.1557.5214-.028.5214.284v.028c0 .312-.2335.6913-.5214.847l-4.5592 2.465c-.2872.1557-.5208.0287-.5208-.2834v-.0274c0-.3126.2329-.6925.5208-.8476z" fill="#0B3FA5"/></g><g opacity=".8"><path opacity=".8" d="M82.6246 27.7514l6.1877-3.3562c.2872-.1557.5208-.0292.5208.2834v.028c0 .312-.2329.6919-.5208.8476l-6.1877 3.3556c-.2871.1557-.5207.0293-.5207-.2833v-.0274c0-.3127.2329-.692.5207-.8477zM90.5359 23.4587l3.2577-1.7799c.2871-.157.5194-.0306.5194.2815v.0274c0 .312-.2329.6925-.5194.8495l-3.2577 1.7799c-.2872.157-.5194.0305-.5194-.2815v-.0274c0-.3126.2322-.6925.5194-.8495zM95.6398 20.6727l2.2122-1.197c.2878-.1557.5207-.0287.5207.2834v.028c0 .312-.2336.6919-.5214.847l-2.2121 1.197c-.2879.1557-.5208.0287-.5208-.284v-.0274c.0007-.312.2343-.6913.5214-.847z" fill="#0B3FA5"/></g></g><path d="M97.2999 61.9494l.002-.0012V58.194l-4.4858 1.7955-27.2613-14.8068c-.9754-.53-2.5562-.53-3.5309 0L10.3591 73.2599 0 76.2101v3.7647l.00132343.0007c.00397029.3444.24615757.6881.72987157.951L30.3264 97.0082c.9754.53 2.5562.53 3.5309 0l62.714-34.0835c.4956-.269.7365-.6228.7286-.9753z" fill="#C8E2FF"/><path d="M0 76.2117v3.7647l.00132343.0007c.00397029.3444.24615757.6881.72987157.951L30.3264 97.0098c.4877.2647 1.1269.3973 1.7654.3973V80.2467l-17.0874-9.5094-4.6453 2.5242L0 76.2117z" fill="#A5CBFA"/><path d="M92.9721 58.2914l-7.2537-3.9404c-.6498-.3531-1.7039-.3531-2.3544 0l-.4063.2205c-.6498.3531-1.7039.3531-2.3543 0l-8.6877-4.7208c-.6498-.3531-.6498-.9261 0-1.2792l.4056-.2205c.6498-.3531.6498-.9261 0-1.2792l-7.3496-3.9896c-.6498-.3531-1.704-.3531-2.3544 0L4.26726 74.8072c-.6498.3531-.6498.926 0 1.2792L32.2691 91.2949c.6504.3531 1.7045.3531 2.3543 0l58.3474-31.7243c.6518-.3531.6518-.9261.0013-1.2792z" fill="#031F60"/><path d="M84.541 53.7109l9.6379 5.2035-1.3267 2.313-8.3112-4.5159v-3.0006zM63.7939 45.4438v-3l9.7048 5.2683-2.7607 1.5003-6.9441-3.7686z" fill="#1E3779"/><path d="M34.6243 91.2953l58.1098-31.5954-7.0168-3.8108c-.6498-.3531-1.7039-.3531-2.3544 0l-.4063.2204c-.6498.3532-1.7039.3532-2.3543 0l-8.6877-4.7207c-.6498-.3531-.6498-.9261 0-1.2792l.2376-.1289-.2376-.129c-.6498-.3531-.6498-.926 0-1.2792l.1687-.0915-7.1127-3.8607c-.6498-.3531-1.7039-.3531-2.3544 0L4.50439 76.2157l27.76421 15.079c.6518.3537 1.7059.3537 2.3557.0006z" fill="#344593"/><path d="M85.7179 55.8889c-.6498-.3531-1.7039-.3531-2.3543 0l-.4063.2205c-.6498.3531-1.704.3531-2.3544 0l-8.6877-4.7208c-.6498-.3531-.6498-.926 0-1.2792l.2376-.1289-.2376-.1289c-.6498-.3531-.6498-.9261 0-1.2792l.1688-.0916-7.1128-3.8606c-.3249-.1769-.7511-.2647-1.1772-.2647 0 0 3.8803 9.2154.5691 18.8961-3.0889 9.0304-21.0889 23.1572-28.3267 27.2757l56.697-30.8275-7.0155-3.8109z" fill="#2B3D89"/><path d="M71.4282 49.2114v1.5377c.0047.2591.1827.4677.4877.6396l8.6877 4.7207c.301.1675.7034.264 1.244.2634v-1.973l-10.4194-5.1884z" fill="#1E3779"/><path d="M96.5723 57.2507L66.9785 41.169c-.9754-.53-2.5563-.53-3.5316 0L.731526 75.2524c-.975368.53-.975368 1.3888 0 1.9188L30.3267 93.2523c.9754.5299 2.5562.5299 3.5309 0l62.7141-34.0828c.9753-.53.9753-1.3895.0006-1.9188zm-3.6004 2.3198L34.6246 91.2948c-.6498.3532-1.704.3532-2.3544 0L4.26839 76.0863c-.6498-.3531-.6498-.9255 0-1.2792L62.6184 43.0822c.6498-.3531 1.7039-.3531 2.3544 0l7.3497 3.9896c.6498.3531.6498.9261 0 1.2792l-.4057.2205c-.6498.3531-.6498.926 0 1.2792l8.6877 4.7207c.6498.3531 1.7039.3531 2.3544 0l.4063-.2205c.6498-.3531 1.7039-.3531 2.3543 0l7.2538 3.9404c.6491.3532.6491.9261-.0014 1.2792z" fill="#DCEEFF"/><g opacity=".4" fill="#FAFDFF"><path opacity=".4" d="M24.6988 63.6999l5.0535-2.7478h-2.7064l-5.0555 2.7478h2.7084zM43.7118 53.3618l10.107-5.4956H51.123l-10.1116 5.4956h2.7004zM64.3317 42.8735c.2329.043.4546.1072.6398.2081l3.2027 1.7389h5.5234l-3.5819-1.9463h-5.784v-.0007zM56.7273 44.8205h2.6932l3.1974-1.7389c.1859-.1009.4076-.1651.6399-.2081h-2.9486l-3.5819 1.947zM72.7824 47.8668c-.0569.1775-.2085.3476-.4606.4846l-.4056.2204c-.6498.3532-.6498.9261 0 1.2793l6.461 3.5107h11.0394l-10.113-5.4956h-6.5212v.0006zM10.0319 71.6747l10.107-5.4955h-2.7103L7.31689 71.6747h2.71501zM31.8008 91.04l-10.1183-5.4956H16.142L26.255 91.04h5.5458zM90.4325 60.9521l-5.0535 2.7478h2.8586l5.0555-2.7478h-2.8606zM80.8199 66.1792l-10.107 5.4955h2.8513l10.1117-5.4955h-2.856zM17.1182 83.0652l-5.0588-2.7478H6.52283l5.05677 2.7478h5.5386zM54.8136 80.3174l-5.0535 2.7478h2.8421l5.0555-2.7478h-2.8441zM45.1998 85.5444L35.0928 91.04h2.8354l10.1117-5.4956h-2.8401z"/></g><path d="M76.0565 49.1064l4.2151 2.2894c.3613.1962.4255.4802.143.6334-.2826.1532-.8047.1189-1.166-.0779l-4.2151-2.2887c-.3613-.1962-.4255-.4802-.1429-.634.2825-.1532.8046-.1183 1.1659.0778z" fill="#031F60"/><path d="M13.3258 86.0338c0-.4291.9602-.2554 2.144.3886 1.1844.6433 2.1439 1.5127 2.1439 1.9418v.7767l-4.2879-2.3299v-.7772zM18.9392 89.6159c0 .1625.1218.3606.2713.4416.1496.0816.2707.0155.2707-.147 0-.1626-.1218-.3606-.2713-.4422-.1496-.081-.2707-.0156-.2707.1476zM20.2765 90.3435c0 .1625.1211.3605.2706.4415.1496.0816.2707.0156.2707-.147 0-.1625-.1218-.3605-.2713-.4415-.1489-.0822-.27-.0162-.27.147zM21.6138 91.0706c0 .1626.1211.3606.2706.4416.1496.0816.2707.0156.2707-.147 0-.1625-.1218-.3606-.2714-.4415-.1488-.0816-.2699-.0156-.2699.1469zM22.951 91.796c0 .1625.1211.3606.2707.4415.1495.0816.2706.0156.2706-.1469 0-.1626-.1211-.3607-.2713-.4422-.1489-.081-.27-.015-.27.1476zM24.2883 92.5235c0 .1626.1211.3606.2707.4416.1495.0816.2706.0156.2706-.147s-.1211-.3606-.2713-.4422c-.1489-.081-.27-.015-.27.1476zM25.6256 93.251c0 .1625.1211.3606.2707.4421.1495.081.2706.015.2706-.1476 0-.1625-.1218-.3605-.2713-.4421-.1489-.0809-.27-.0149-.27.1476zM26.9629 93.976c0 .1626.1217.3606.2706.4416.1496.0815.2707.0155.2707-.147 0-.1626-.1211-.3606-.2713-.4416-.1489-.0815-.27-.0162-.27.147zM18.905 88.3048c0 .1626.1218.3606.2713.4422.1496.0809.2707.0155.2707-.1476 0-.1625-.1218-.3606-.2713-.4421-.1496-.081-.2707-.0156-.2707.1475zM20.2423 89.0298c0 .1626.1218.3606.2713.4422.1496.081.2706.015.2706-.1476 0-.1625-.1217-.3606-.2713-.4422-.1495-.0809-.2706-.0149-.2706.1476zM21.5796 89.7574c0 .1625.1211.3606.2706.4416.1496.0816.2707.0155.2707-.147 0-.1626-.1218-.3606-.2713-.4422-.1489-.081-.27-.015-.27.1476zM22.9169 90.4849c0 .1626.1211.3606.2713.4422.1495.081.2706.0156.2706-.1476 0-.1625-.1217-.3606-.2706-.4422-.1502-.0809-.2713-.0149-.2713.1476zM24.2542 91.2123c0 .1625.121.3606.2706.4421.1495.0816.2706.0156.2706-.1469 0-.1626-.1211-.3607-.2706-.4422-.1496-.0816-.2706-.0156-.2706.147zM25.5914 91.9377c0 .1625.1211.3606.2707.4422.1495.0815.2706.0155.2706-.147 0-.1632-.1211-.3606-.2706-.4422-.1496-.0822-.2707-.0162-.2707.147zM26.9287 92.6655c0 .1625.1211.3605.2707.4421.1495.0809.2706.0156.2706-.1476 0-.1625-.1211-.3605-.2706-.4421-.1496-.0816-.2707-.0156-.2707.1476zM3.20923 81.0661c0 .1626.12175.3607.2713.4422.14955.0816.27064.0156.27064-.1476 0-.1625-.12109-.3606-.27064-.4415-.15021-.0822-.2713-.0162-.2713.1469zM4.54712 81.7931c0 .1625.12175.3606.27064.4422.14955.0815.27064.0155.27064-.147 0-.1626-.12109-.3606-.27064-.4416-.14955-.0822-.27064-.0162-.27064.1464zM5.8844 82.5182c0 .1625.12175.3606.27063.4422.14955.0816.27064.0156.27064-.147s-.12109-.3606-.27064-.4416c-.14954-.0822-.27063-.0162-.27063.1464zM7.22168 83.2459c0 .1626.12176.3606.2713.4422.14955.0816.27065.0156.27065-.1476 0-.1625-.1211-.3606-.27065-.4415-.15021-.0816-.2713-.0156-.2713.1469zM8.55896 83.9734c0 .1625.12176.3606.27064.4422.14955.0816.27131.0155.27131-.147 0-.1626-.12176-.3606-.27131-.4416-.14955-.0822-.27064-.0168-.27064.1464zM9.89624 84.6987c0 .1626.12176.3606.27126.4422.1496.0816.2707.0156.2707-.1469 0-.1626-.1211-.3607-.2707-.4416-.1502-.0829-.27126-.0168-.27126.1463zM11.2335 85.4267c0 .1626.1211.3606.2707.4416.1488.0816.2706.0155.2706-.147 0-.1626-.1218-.3606-.2713-.4422-.1489-.0816-.27-.0156-.27.1476zM3.17505 79.7525c0 .1626.12175.3606.27064.4416.14955.0816.27064.0155.27064-.147 0-.1626-.12109-.3606-.27064-.4422-.14955-.081-.27064-.0149-.27064.1476zM4.51233 80.48c0 .1626.12109.3607.27064.4416.14955.081.27064.0156.27064-.1469 0-.1632-.12109-.3607-.27064-.4423-.14955-.0809-.27064-.0149-.27064.1476zM5.84961 81.2076c0 .1625.12175.3605.27064.4421.14955.081.27064.015.27064-.1476 0-.1625-.12109-.3605-.27064-.4421-.14955-.081-.27064-.015-.27064.1476zM7.18689 81.9328c0 .1625.12176.3605.2713.4415.14955.0815.27065.0155.27065-.147 0-.1625-.1211-.3605-.27065-.4421-.15021-.081-.2713-.0156-.2713.1476zM8.52417 82.6603c0 .1626.12175.3606.2713.4416.14954.081.27063.0156.27063-.147 0-.1632-.12175-.3606-.27129-.4422-.14955-.0809-.27064-.0155-.27064.1476zM9.86206 83.3879c0 .1625.12175.3606.27134.4422.1495.0809.2706.0156.2706-.1476 0-.1626-.1218-.3606-.2713-.4422-.14955-.081-.27064-.0156-.27064.1476zM11.1993 84.1126c0 .1625.1218.3605.2713.4415.1496.0816.2707.0156.2707-.147 0-.1625-.1211-.3605-.2707-.4421-.1502-.0804-.2713-.015-.2713.1476z" fill="#7AA3E5"/><path d="M80.9061 52.2772c-.274.1488-.274.3905.0006.5387.274.1488.718.1488.9913 0 .2739-.1489.2739-.3899 0-.5387-.274-.1489-.718-.1489-.9919 0z" fill="#031F60"/><g opacity=".6"><path opacity=".6" d="M60.6164 38.9205c0-2.873-2.1631-4.0482-4.806-2.6114l-.049.0261c-2.6436 1.4362-4.9774 4.9568-5.1865 7.8229l-.2085 2.8617c-.1151 1.5801-1.729 3.687-3.605 4.7065-1.8753 1.0189-3.3966.175-3.3979-1.8858l-.002-2.5566c-.0013-2.3099-1.7423-3.2559-3.8684-2.1025-2.0202 1.0955-3.83 3.7816-4.0225 5.9688l-.2919 3.3294c-.1793 2.0453-1.8706 4.5576-3.7592 5.584l-.303.1644c-1.8886 1.0257-3.613.1949-3.8327-1.8466l-1.5332-14.237c-.3077-2.858-2.7223-4.0213-5.3658-2.5852l-.049.0268c-2.6435 1.4362-4.806 4.9624-4.806 7.8353v29.7763l45.0873-24.4994V38.9205h-.0007z" fill="#57F7E0"/><path opacity=".6" d="M60.6164 54.697V38.9205c0-2.873-2.1632-4.0482-4.806-2.6114l-.049.0261c-2.6436 1.4362-4.9774 4.9568-5.1865 7.8229l-.2085 2.8617c-.1151 1.5801-1.729 3.687-3.605 4.7065-1.8753 1.0189-3.3966.175-3.3979-1.8858l-.002-2.5566c-.0013-2.3099-1.7423-3.2559-3.8684-2.1025-2.0202 1.0955-3.83 3.7816-4.0225 5.9688l-.2919 3.3294c-.1793 2.0453-1.8706 4.5576-3.7592 5.584l-.303.1644c-1.8886 1.0257-3.613.1949-3.8327-1.8466l-1.5332-14.237c-.3077-2.858-2.7223-4.0213-5.3658-2.5852l-.049.0268c-2.6435 1.4362-4.806 4.9624-4.806 7.8353v29.7763" stroke="#E9FFFB" stroke-miterlimit="10" stroke-linecap="round"/></g><path opacity=".8" d="M62.9407 53.3715c-.1773 2.0534-1.8607 4.5501-3.7592 5.5759-1.9315 1.0431-3.7472.2248-4.0874-1.8105 0 0-.2223-1.3296-.4962-2.9701-.2747-1.6404-1.8026-2.2607-3.4132-1.3857-1.6106.875-3.1855 3.2354-3.5183 5.2719l-.6809 4.1678c-.3329 2.0365-1.8469 4.3632-3.3807 5.1971-1.5345.834-3.0042-.1469-3.2821-2.1909l-1.3062-7.1335c-.5208-2.843-3.0949-3.9784-5.749-2.536l-.049.0268c-2.6541 1.4424-4.806 4.9499-4.806 7.8347v22.7767l45.0872-24.4993V31.9201c0-2.8847-1.9388-4.1739-4.3302-2.8791-2.3915 1.2941-4.5315 4.6746-4.7796 7.5501l-1.4492 16.7804z" fill="#57F7E0"/><path d="M73.4991 61.697V31.9201c0-2.8847-1.9388-4.1739-4.3303-2.8791-2.3914 1.2941-4.5314 4.6746-4.7795 7.5501l-1.4485 16.7804c-.1774 2.0534-1.8608 4.5501-3.7592 5.5759-1.9316 1.0431-3.7473.2248-4.0875-1.8105 0 0-.2223-1.3296-.4962-2.9701-.2746-1.6404-1.8026-2.2607-3.4132-1.3857-1.6106.875-3.1855 3.2354-3.5183 5.2719l-.6809 4.1678c-.3329 2.0365-1.8469 4.3632-3.3807 5.1971-1.5345.834-3.0042-.1469-3.2821-2.1909l-1.3062-7.1335c-.5208-2.843-3.0949-3.9784-5.749-2.536l-.049.0268c-2.6541 1.4424-4.806 4.9499-4.806 7.8347v22.7767" stroke="#E9FFFB" stroke-miterlimit="10" stroke-linecap="round"/></svg>