<svg width="100" height="124" fill="none" xmlns="http://www.w3.org/2000/svg"><path d="M1.72626 112.104v.003l4.39036 2.38.75107-5.774L41.5102 89.9286c1.2398-.672 2.244-2.3055 2.244-3.6486L43.75 15.0951l3.133-12.57357L42.4901.140252c-.0009 0-.0017-.00079-.0025-.001579L42.48.134725l-.0009.00079c-.4053-.2139682-.9621-.1823863-1.5769.150803L3.28644 20.6748c-1.23973.6719-2.24396 2.3055-2.24396 3.6485l.00505 86.4087c.00084.683.26157 1.157.67873 1.372z" fill="#C8E2FF"/><path d="M46.8837 2.52153L42.4908.140252c-.0008 0-.0017-.00079-.0025-.001579l-.0076-.003948-.0008.00079c-.4054-.2139682-.9622-.1823863-1.577.150803L3.28631 20.6748c-.61987.3364-1.18086.912-1.58709 1.5728L21.7695 33.1245l21.9812-11.6301v-6.4001l3.133-12.57277z" fill="#A5CBFA"/><path d="M47.5541 3.8951c0-1.34618-1.0017-1.88939-2.2372-1.21591L7.70035 23.0646c-1.24393.6734-2.24564 2.3023-2.24564 3.6485l.00925 86.4129c0 1.338 1.00171 1.882 2.23723 1.217L45.3186 93.9495c1.2439-.6735 2.2456-2.3031 2.2456-3.6485l-.0101-86.4059zm-3.291 86.8117L8.6844 109.997c-.82929.445-1.49457.089-1.49457-.811l-.02524-80.4051c0-.8922.67369-1.9873 1.49457-2.4326l9.12134-4.9544.2161-.1129c.8293-.4453 1.4946-.0814 1.4946.8108v.559c0 .398.1295.6893.3541.8599.0261.0165.0522.0323.0866.0489v.0087c.2683.1461.6477.1208 1.0623-.1058l11.039-5.984c.8292-.4453 1.4945-1.5325 1.4945-2.4326v-.5598c0-.8914.6737-1.9786 1.4946-2.4326l9.2248-4.99468c.8209-.44531 1.4937-.08843 1.4937.81087l.0177 80.39661c-.0009.8985-.6662 1.9849-1.4954 2.4405z" fill="#DCEEFF"/><path d="M22.752 18.7147l5.3559-2.904c.4592-.2487.8318-.1358.8318.2534 0 .3893-.3726.9065-.8318 1.1559l-5.3559 2.9048c-.4592.2487-.8318.135-.8318-.2542 0-.3893.3726-.9072.8318-1.1559zM29.541 15.7127c0 .3774.2826.5298.6308.3419.3482-.1887.63-.6475.63-1.0249 0-.3782-.2818-.5305-.6308-.3418-.3474.1894-.63.6482-.63 1.0248z" fill="#031F60"/><path d="M45.758 88.2641c0 .9001-.6653 1.9865-1.4946 2.4413L8.68472 109.996c-.82929.445-1.49457.089-1.49457-.811v-.308l-.02523-80.0975c0-.8922.67369-1.9873 1.49457-2.4326l9.12131-4.9545.2162-.1129c.8293-.4453 1.4945-.0813 1.4945.8109v.559c0 .9009.6737 1.2657 1.503.8109l11.039-5.984c.8293-.4453 1.4945-1.5325 1.4945-2.4326v-.5598c0-.8914.6737-1.9786 1.4946-2.4326l9.0087-4.88101.2161-.11369c.8209-.44531 1.4937-.08843 1.4937.81087l.0169 80.39663z" fill="#031F60"/><path d="M44.2461 7.05658l-.2162.11369-1.7814.96483.0009 79.315 3.286 1.7812c.1388-.3221.2229-.6553.2229-.9672l-.0185-80.39586c0-.90009-.6737-1.25697-1.4937-.81166z" fill="#1E3779"/><path d="M44.0481 87.2591c0 .9001-.6653 1.9866-1.4946 2.4405L7.19099 108.877l-.02607-80.0966c0-.8922.67369-1.9873 1.49457-2.4326l9.12131-4.9544v.251c0 .9009.6737 1.2649 1.503.8109l.2069-.1137v.3079c0 .9009.6737 1.2657 1.503.8109l11.0389-5.984c.8293-.4453 1.4946-1.5325 1.4946-2.4326v-.5598c0-.8914.6737-1.9786 1.4946-2.4326l9.0086-4.88099.0177 80.08869z" fill="#2B3D89"/><path d="M37.4785 61.6619c4.1288-14.6287 5.9716-40.5473 6.5527-50.5287l-.0008-3.96279-9.0086 4.88019c-.8209.454-1.4946 1.5412-1.4946 2.4326v.5598c0 .9001-.6653 1.9873-1.4946 2.4326l-11.0389 5.984c-.8293.454-1.503.0892-1.503-.8109v-.3079l-.2069.1137c-.8293.454-1.503.0892-1.503-.8109v-.251L8.65949 26.347c-.82088.4453-1.49457 1.5404-1.49457 2.4326l.02271 70.6078C7.6746 99.0953 30.8568 85.121 37.4785 61.6619z" fill="#344593"/><path d="M19.8444 23.5087l-1.6586-.9736c-.2767-.1784-.4063-.4863-.4063-.8922v-.251l.2162-.1129c.8293-.4454 1.4946-.0814 1.4946.8108v.559c0 .398.1295.6893.3541.8599z" fill="#031F60"/><path opacity=".2" d="M57.8622 84.6241c.0631-.1461.111-.2929.1472-.4414.0067-.0268.0143-.0529.0193-.0805.0328-.1508.0555-.3008.0555-.4453l-.0168-80.39588c0-.90008-.6737-1.25696-1.4946-.81087l-.2161.11449-1.7814.96483v.00079l-7.2272 3.91537c-.8209.45399-1.4946 1.5412-1.4946 2.4326v.55977c0 .9001-.6653 1.9873-1.4946 2.4326L33.32 18.8546c-.8293.454-1.503.0892-1.503-.8108V17.4848c0-.8922-.6653-1.257-1.4946-.8109l-.2161.1137-9.1214 4.9544c-.8209.4453-1.4945 1.5404-1.4945 2.4326l.026 80.0964v.308c0 .901.6653 1.257 1.4946.811l35.5787-19.2903c.5424-.2976 1.0101-.8661 1.2725-1.4756z" fill="#E9FFFB"/><path d="M57.8622 84.6241c.0631-.1461.111-.2929.1472-.4414.0067-.0268.0143-.0529.0193-.0805.0328-.1508.0555-.3008.0555-.4453l-.0168-80.39588c0-.90008-.6737-1.25696-1.4946-.81087l-.2161.11449-1.7814.96483v.00079l-7.2272 3.91537c-.8209.45399-1.4946 1.5412-1.4946 2.4326v.55977c0 .9001-.6653 1.9873-1.4946 2.4326L33.32 18.8546c-.8293.454-1.503.0892-1.503-.8108V17.4848c0-.8922-.6653-1.257-1.4946-.8109l-.2161.1137-9.1214 4.9544c-.8209.4453-1.4945 1.5404-1.4945 2.4326l.026 80.0964v.308c0 .901.6653 1.257 1.4946.811l35.5787-19.2903c.5424-.2976 1.0101-.8661 1.2725-1.4756z" stroke="#E9FFFB" stroke-miterlimit="10"/><path opacity=".8" d="M38.9795 25.7645v59.7917c0 1.3431 1.0051 1.8879 2.2448 1.2159l30.5979-16.5844c1.2397-.6719 2.2439-2.3055 2.2439-3.6485V6.74819c0-1.34303-1.0051-1.88861-2.2439-1.21591L41.2243 22.116c-1.2406.6711-2.2448 2.3047-2.2448 3.6485z" fill="#57F7E0"/><path d="M38.9795 25.7645v59.7917c0 1.3431 1.0051 1.8879 2.2448 1.2159l30.5979-16.5844c1.2397-.6719 2.2439-2.3055 2.2439-3.6485V6.74819c0-1.34303-1.0051-1.88861-2.2439-1.21591L41.2243 22.116c-1.2406.6711-2.2448 2.3047-2.2448 3.6485z" stroke="#E9FFFB" stroke-miterlimit="10" stroke-linecap="round"/><path opacity=".8" d="M43.3858 61.9123l12.2392-6.6338c.4954-.2684.8974-.0505.8974.4864v.0481c0 .5377-.402 1.1914-.8974 1.4599l-12.2392 6.633c-.4954.2684-.8974.0505-.8974-.4864v-.0481c0-.5377.402-1.1907.8974-1.4591zM59.1137 53.3904l10.547-5.7164c.4954-.2692.8974-.0513.8974.4864v.0481c0 .5377-.402 1.1907-.8974 1.4591L59.1146 55.384c-.4954.2692-.8974.0505-.8974-.4864v-.0474c-.0017-.5376.4003-1.1906.8965-1.4598z" fill="#0B3FA5"/><g opacity=".8"><path opacity=".8" d="M43.3858 71.2889l12.2392-6.633c.4954-.2684.8974-.0505.8974.4864v.0482c0 .5376-.402 1.1914-.8974 1.4598l-12.2392 6.633c-.4954.2685-.8974.0505-.8974-.4863v-.0482c0-.5377.402-1.1906.8974-1.4599zM59.1137 62.7681l10.547-5.7171c.4954-.2685.8974-.0506.8974.4863v.0482c0 .5377-.402 1.1914-.8974 1.4599l-10.5461 5.7163c-.4954.2692-.8974.0505-.8974-.4864v-.0473c-.0017-.5377.4003-1.1915.8965-1.4599z" fill="#0B3FA5"/></g><g opacity=".8"><path opacity=".8" d="M43.3858 66.6021l6.6259-3.5917c.4954-.2684.8974-.0505.8974.4864v.0482c0 .5376-.402 1.1914-.8974 1.4598l-6.6259 3.5909c-.4954.2684-.8974.0505-.8974-.4864v-.0481c0-.5369.402-1.1907.8974-1.4591zM52.9868 61.3968l5.6208-3.0634c.4946-.2693.8958-.0521.8958.4848v.0481c0 .5377-.4012 1.1914-.8958 1.4615l-5.6208 3.0634c-.4945.27-.8957.0521-.8957-.4848v-.0473c0-.5377.4012-1.1923.8957-1.4623zM61.7933 56.6034l7.8664-4.2431c.4963-.2676.8983-.0489.8983.4888v.0481c0 .5377-.4029 1.1899-.8983 1.4575l-7.8664 4.2423c-.4963.2676-.8991.0497-.8991-.488v-.0481c0-.5377.402-1.1899.8991-1.4575z" fill="#0B3FA5"/></g><g opacity=".8"><path opacity=".8" d="M43.3867 76.0311l10.6747-5.7747c.4954-.2685.8975-.0498.8975.4871v.0482c0 .5377-.4021 1.1906-.8975 1.4591l-10.6747 5.7731c-.4954.2685-.8983.0498-.8983-.4871v-.0474c0-.5369.4029-1.1906.8983-1.4583zM57.0367 68.6433l5.62-3.0635c.4954-.27.8966-.0521.8966.4848v.0482c0 .5376-.4012 1.1914-.8966 1.4614l-5.62 3.0635c-.4954.27-.8966.0521-.8966-.484v-.0474c0-.5385.4021-1.193.8966-1.463zM65.8433 63.8491l3.8168-2.0599c.4962-.2677.8982-.0497.8982.4879v.0482c0 .5377-.4029 1.1899-.8982 1.4583l-3.8168 2.0592c-.4962.2676-.8982.0497-.8982-.488v-.0482c-.0009-.5368.4012-1.1898.8982-1.4575z" fill="#0B3FA5"/></g><path opacity=".8" d="M44.2464 54.7008l24.5481-13.3063V14.7852l-24.591 13.3275.0429 26.5881z" fill="#0B3FA5"/><path d="M98.284 51.6357c.159 1.3004 1.859 6.6662 1.5047 8.5864-.3532 1.9202-6.0439 5.3713-6.0439 5.3713l-.7822-3.2861 2.4072-2.2147c.4508-.4137.6627-1.0051.5719-1.591l-.6998-4.513 3.0421-2.3529z" fill="#FFA8A7"/><path d="M95.3016 58.1826l-2.339-9.893c-.3145-3.6714 3.2684-3.3509 4.0985-2.06.8301 1.2909 2.5182 9.7415 2.5955 10.4971.3121 1.9115.3604 2.8432.1809 3.6295-.1783.7856-2.1733 3.0217-6.0927 5.2379l-.7822-3.2861 2.339-4.1254z" fill="#6A89CE"/><path d="M94.7076 104.906s.0639.574.2515 1.297c.1455.562.1766 1.296-.4971 1.499-.6737.202-1.4449.136-1.8764-.411-.5391-.684-.82-1.534-1.6014-2.197-.7502-.637-1.6779-1.358-1.947-2.372-.2431-.917-.0884-1.489.5786-1.581.8419-.115 2.175.548 2.8579 1.019.4929.341 2.2339 2.746 2.2339 2.746zM85.6236 110.235s.0496.729.0959 1.309c.0462.579.2658 1.503.0681 1.931-.1976.429-1.2145.745-2.4096.737-.7747-.007-2.276.556-2.8075.99-.7603.619-2.5022.867-3.5308.565-1.0286-.302-2.1657-.749-2.3373-1.194-.1724-.444.3625-.665 2.8697-1.742 2.5064-1.078 4.355-1.822 5.3281-3.065l2.7234.469z" fill="#2D2979"/><path d="M95.3162 92.3964c-.4273-3.0792-1.1027-4.9086-1.1027-4.9086s.3331-4.2344.4929-8.25c.1732-4.337.4609-9.7699.5425-10.8516l-14.9785 3.1266s.942 16.8127 1.106 19.0147c.164 2.2029.3465 5.2545.5896 8.0827.307 3.5738.6341 11.4898.6341 11.4898 1.5838.865 3.0514.552 3.0514.552s1.2978-9.871 1.5131-12.4066c.2918-3.4211-.6325-6.3369-.6325-6.3369s.4163-4.3552.7788-7.9413c.323-3.1961.7259-5.1068.7797-6.6701l.2986-.1492s.3036 6.2034.4684 8.4055c.164 2.2028.5106 4.3149 1.1422 8.4055.5475 3.549 1.9765 10.8591 1.9765 10.8591 1.5846.864 2.7318.086 2.7318.086s1.0353-9.4276.6081-12.5076z" fill="#C4D9FF"/><path d="M88.0908 77.2981s3.3643-1.6731 5.0472-3.1819c0 0-1.5626 2.2226-3.6148 3.2079 0 0-.7301 7.7068-.7259 7.5536l-.4214-7.5915-.2851.0119z" fill="#AACAF9"/><path d="M93.1274 45.4157c-1.1396.0506-1.9891.3269-2.1321.0111-.111-.2448-.259-1.6731-.259-1.6731.1312-.311.243-.6442.243-.6442 1.4332-.8275 2.4585-2.2242 2.646-3.917.3213-2.8921-1.9159-5.481-4.9967-5.7834-2.8967-.2827-5.0287 1.6272-5.5981 4.2517-.3062 1.2964-.5795 3.868.1042 6.1774.3668 1.2365.683 1.5902 1.2431 1.7591.2019.0616 1.5215.1587 1.9244.12l-.0025.0008s.1539.8038.2599 1.3194c.1068.5155.0647.7879-1.0303 1.4204-1.0951.6324 1.6543 1.9328 3.4492 1.8049 1.7948-.1279 3.815-1.1441 4.3684-2.2344.6182-1.2167.5635-2.6482-.2195-2.6127z" fill="#FFA8A7"/><path d="M93.127 45.4168c-1.1396.0505-1.9891.3268-2.1321.011-.111-.2447-.259-1.673-.259-1.673.1312-.3111.243-.6443.243-.6443.5063-.2921.958-.6593 1.344-1.0817l-3.7873 1.1725-1.1076-.2108-.45-.2416-.2927-.4895c.0008.0679-.1733 1.6201-.5425 2.1475-.3684.5267-1.3129 1.1394-1.8276 1.1686.021.0071.0404.0158.0622.0221.2019.0616 1.5215.1587 1.9244.12l-.0025.0008s.1539.8037.2598 1.3193c.0959.4659.0631.7367-.751 1.2499l1.5391 1.1077 4.599-.0718c.1261-.0735.2472-.1485.3625-.2274l1.3709-1.9818c.2128-.9182.037-1.7244-.5526-1.6975z" fill="#F28F8F"/><path d="M91.588 43.2864c1.4046-1.2057 1.8487-2.4018 2.0362-4.0938.3213-2.8921-1.9159-5.4811-4.9967-5.7835-1.9967-.195-3.6284.6514-4.6376 2.056.0008.0008.2077.3916.5248.6838 0 0-.2523.6711.2002 1.1472.3246.3427.3431.6964.3473 1.2798.0034.499-.0698 1.377-.0134 1.9179.079.7627.9832.9285.9832.9285s.0496-1.7086.2077-1.8894c.3087-.6317 1.5442-.8204 1.9101.0868.3002.7477.1421 1.4236-.1111 2.1484-.2531.724-1.0193.6916-1.3532.4903.0126.3458-.1346 1.5357 1.0824 1.8578 1.2162.3213 2.3525.0245 2.9765-.2795.3743-.1761.8436-.5503.8436-.5503z" fill="#543354"/><path d="M84.5147 36.1501s-1.455.1271-2.7814-1.2996c-1.3255-1.4267-.5795-2.7492 1.0219-2.1523 1.6022.5961 4.281.259 5.6343.1295s4.9471.5535 4.5729 3.2845l-8.4477.0379z" fill="#543354"/><path d="M91.4769 45.5749c.3163.739-.4869 1.6438-2.6291 2.2771-2.1431.6324-2.3357-.1816-2.3357-.1816s-3.1405 1.3438-4.1632 2.0149c-1.286.8432-1.8571 3.2853-2.0304 7.4076-.2001 4.7704-.6198 14.1787-.4508 15.3993 0 0 1.4542.7896 2.7697-1.0058.783 1.2056 2.2094 2.1957 4.0791 2.7192 3.022.8464 7.2306-.2243 9.2626-3.9691-.0344-4.1815-1.2817-7.6918-.5601-10.1015 1.6502-5.5166 2.5215-7.7755 1.7183-11.4406-.6619-3.0216-1.5888-3.3974-2.8605-3.3682-1.2725.03-2.7999.2487-2.7999.2487z" fill="#7FA8E6"/><path d="M90.8557 44.7342s.201-.1153.4323.0371c.2305.1516.8588.7177.8588.7177s.1926 1.1788-1.3239 2.0615c-1.5173.8835-3.3323 1.3525-5.2028.51 0 0 .3482-1.1424.4727-1.3422.1236-.2005.3591-.2242.3591-.2242s.4752.5755 2.286 0c1.8108-.5756 2.154-1.3944 2.154-1.3944l-.0362-.3655z" fill="#6A89CE"/><path d="M75.4854 61.8107c2.524.5969 3.1169-.897 3.4483-2.1334.8024-2.9955 1.2355-5.6997 1.8335-7.3988.7048-2.0055 1.445-2.3245 2.482-2.7153 1.2179-.4587 2.2667.5077 1.8613 3.0587-.4794 3.0177-1.1102 5.1384-2.3121 8.7095-.3137.9333-1.0185 2.5897-2.0724 3.3903-1.3019.9885-3.2633.9459-6.2306.2527-1.2658-.2953-2.6535-1.0059-5.0472-2.0536-.6417-.2803-1.1422-.4682-2.3752-1.0067-1.2321-.5393-2.5173-1.4401-3.164-2.3189-.6468-.8788-.7326-1.2917-.6005-1.4922.1656-.2511.4592-.1951.8032.1744.344.3696.8494 1.0359 1.8158 1.5776 0 0-.7965-.773-1.2296-1.2752-.4323-.5021-.7704-1.0516-.9546-1.4646-.2279-.5116.243-1.2064.5988-.8432.3591.3671.5282.7382 1.1809 1.4725.5938.6687 1.1682 1.0469 1.1682 1.0469s-.6628-.8321-1.0766-1.6272c-.4146-.7951-.4104-1.2017-.3927-1.4709.0176-.2685.4205-.5851.799-.079.3406.4564.5626 1.1685 1.3558 1.9431.5769.5629 1.0664.8858 1.0807.7303.0143-.1563-.349-.465-.5551-1.1172-.1968-.6237.0051-1.3454.3861-1.422s.3103-.0545.619.5567c.3095.6111.7847 1.0643 1.1464 1.9572.3187.7864.4651 1.1054 1.0378 1.6763.6216.6205 1.9942 1.3043 4.3938 1.872z" fill="#FFA8A7"/><path d="M73.8497 61.3283l-1.413-.6032c-.8242.3316-1.5004 1.6707-1.2389 3.0642l1.7175.6593.9344-3.1203z" fill="#F5FBFB"/><path d="M83.4301 49.0875c-1.6401.184-2.3702.6214-3.1599 4.0228-.7898 3.4013-1.2969 6.7119-1.9177 7.4604-.6207.7485-.9125 1.8033-4.7015.4753 0 0-1.7536.6419-1.5795 3.403 0 0 2.0429.7303 4.3298 1.1456 2.2877.4153 4.3853.2203 5.7722-2.4768 1.3869-2.6979 2.8663-7.9752 3.1052-10.1244.2406-2.1515-.349-4.0749-1.8486-3.9059z" fill="#6A89CE"/><path opacity=".15" d="M75.8192 107.544l7.1844-3.894c4.8723-2.641 11.6025-3.275 15.0306-1.418 3.4278 1.859 2.2578 5.506-2.6157 8.146l-7.1843 3.894c-4.8723 2.641-11.6016 3.276-15.0307 1.418-3.4281-1.858-2.2574-5.506 2.6157-8.146zM.295844 121.063L42.6215 98.2386c.3945-.214 1.0328-.2132 1.4264.0016l3.5981 1.9158c.3936.214.3936.561-.0008.775l-42.33241 22.81c-.39446.214-1.03367.214-1.42729 0l-3.589656-1.904c-.3944586-.214-.3944586-.561 0-.774z" fill="#6B99D1"/></svg>