<svg width="100" height="138" fill="none" xmlns="http://www.w3.org/2000/svg"><path opacity=".15" d="M98.9472 111.977l-46.4126 25.346c-.7019.387-1.6182.572-2.5346.572-.9164 0-1.8327-.185-2.5346-.572L1.05284 111.977C.350946 111.599 0 111.101 0 110.594c0-.36.185221-.729.555664-1.042.136479-.12.301228-.24.497176-.341L47.4654 83.8735c1.394-.7653 3.6654-.7653 5.0682 0l46.4126 25.3375c1.3948.765 1.3948 2.01.001 2.766z" fill="#6B99D1"/><path d="M98.9472 106.809l-46.4126 25.337c-.7019.387-1.6182.572-2.5346.572-.9164 0-1.823-.185-2.5249-.563L1.05284 106.809C.350946 106.422 0 105.924 0 105.426c0-.507.350946-1.005 1.05284-1.383l7.36985-4.02L47.4664 78.6963c1.394-.7653 3.6654-.7653 5.0682 0l46.4126 25.3467c1.3938.755 1.3938 2 0 2.766z" fill="#DCEEFF"/><path d="M50 122.722v9.995c-.9164 0-1.823-.184-2.5249-.562L1.05284 106.808C.350946 106.421 0 105.923 0 105.425v-8.6578c0-.3596.185221-.7284.555664-1.0419l7.866056 4.2967L50 122.722z" fill="#A5CBFA"/><path d="M50 122.722v9.995c.9154 0 1.823-.184 2.5249-.562l46.4223-25.347c.7019-.387 1.0528-.885 1.0528-1.383v-8.6578c0-.3596-.1852-.7284-.5557-1.0419l-7.867 4.2967L50 122.722z" fill="#C8E2FF"/><path d="M98.9472 98.1502L52.5346 123.497c-.7019.387-1.6182.571-2.5346.571-.9164 0-1.8327-.184-2.5346-.571L1.05284 98.1502C.350946 97.7721 0 97.2742 0 96.7671c0-.3596.185221-.7284.555664-1.0419.136479-.1198.301228-.2397.497176-.3411L47.4654 70.0469c1.394-.7653 3.6654-.7653 5.0682 0l46.4126 25.3372c1.3948.7662 1.3948 2.0109.001 2.7661z" fill="#DCEEFF"/><path d="M49.9961 70.3954c.7779 0 1.5256.1641 2.0501.4509l46.4106 25.3363c.4143.2277.5605.4601.5596.5901 0 .1281-.1463.3568-.5576.5799L52.0423 122.702c-.5128.283-1.2575.445-2.0433.445-.7857 0-1.5295-.162-2.0472-.448L1.53539 97.3499c-.34607-.1872-.560541-.4094-.560541-.5828 0-.0995.086761-.2323.244691-.3669.09456-.083.19594-.1531.32072-.2176L47.9557 70.8444c.5196-.2849 1.2634-.449 2.0404-.449zm0-.922c-.9173 0-1.8337.1918-2.5307.5744L1.05284 95.385c-.194973.1015-.360697.2213-.497176.3412C.185221 96.0397 0 96.4085 0 96.7681c0 .5071.350946 1.005 1.05284 1.383L47.4654 123.498c.7019.387 1.6173.571 2.5346.571.9154 0 1.8327-.184 2.5346-.571l46.4126-25.3469c1.3938-.7561 1.3938-2.0008 0-2.7661L52.5346 70.0478c-.7019-.3836-1.6202-.5744-2.5385-.5744z" fill="#fff"/><path d="M48.3096 76.0706L12.0881 95.8499c-.9329.509-.9329 1.3351 0 1.8441l36.2225 19.779c.9319.509 2.4439.509 3.3768 0l36.2205-19.779c.933-.509.933-1.3351 0-1.8441L51.6865 76.0706c-.933-.5098-2.444-.5098-3.3769 0z" fill="#344593"/><path d="M87.908 95.8499L51.6865 76.0706c-.467-.2544-1.0772-.3826-1.6885-.3826v1.6228l37.6195 20.5417.2915-.1586c.9319-.5089.9319-1.335-.001-1.844z" fill="#1E3779"/><path d="M49.998 75.6887c-.6112-.0009-1.2224.1273-1.6884.3817L12.0881 95.8497c-.9329.509-.9329 1.3351 0 1.8441l.2915.1595L49.999 77.3115v-1.6228h-.001z" fill="#031F60"/><path d="M30.1998 66.4944l27.7199-15.136 11.8804 6.4874-27.7198 15.1369-11.8805-6.4883z" fill="#ABFFEF"/><path d="M30.1998 96.4824c0 2.5457 1.8903 5.6416 4.2211 6.9156l3.4354 1.876c2.3318 1.272 6.1113 1.272 8.4422 0l19.2523-10.5121c2.3318-1.2724 4.223-4.3685 4.225-6.9152l.0224-30.0017-27.7179 15.1378-11.8805-6.4874v29.987z" fill="#6CFFE6"/><path d="M34.4219 103.398l1.7187.937 1.7176.939c1.165.636 2.6936.954 4.2211.954l.001-33.2453-11.8805-6.4873v29.9879c0 2.5458 1.8903 5.6407 4.2221 6.9147z" fill="#47EACE"/><path d="M56.1815 76.3987c2.6448-1.4448 4.7895-.2729 4.7895 2.6177 0 2.8905-2.1447 6.4053-4.7895 7.8492-2.6457 1.4439-4.7894.272-4.7894-2.6177 0-2.8905 2.1437-6.4053 4.7894-7.8492z" fill="#344593"/><path d="M54.5994 90.9651c0 1.2199.7087 1.8192 1.5812 1.3379.8734-.4813 1.5821-1.8597 1.5821-3.0796l.001-11.9033-3.1643 1.7242v11.9208zM39.2815 64.9668c-1.5461.8437-1.5461 2.2129 0 3.0574 1.5461.8446 4.0525.8446 5.5976.001 1.5461-.8437 1.5461-2.2129 0-3.0575-1.5451-.8455-4.0515-.8455-5.5976-.0009zM55.1209 56.3165c-1.5471.8445-1.5471 2.2128 0 3.0574 1.5461.8446 4.0524.8446 5.5976.0009 1.5461-.8445 1.5461-2.2128 0-3.0574-1.5452-.8446-4.0515-.8446-5.5976-.0009z" fill="#344593"/><path d="M38.1215 51.6434v14.8501h7.9167v-14.602c0-.3292.1852-.6344.4874-.7985l6.7031-3.6595c.3256-.177.7311.0443.7311.3992v10.0132h7.9177l.001-15.0013c0-4.8314-3.6186-6.8073-8.0425-4.3916l-11.4934 6.2762c-2.3212 1.2669-4.2211 4.3787-4.2211 6.9142z" fill="#344593"/><path opacity=".3" d="M52.5376 19.8365c-.7321.4416-1.591.602-2.5346.5716-.0146 0-.0273-.0009-.041-.0009.0127 0 .0244.0018.0371.0009v97.4469c.5634 0 1.1259-.127 1.6894-.382l35.93-19.6195c.6687-.3485.9914-.6564.9914-1.0806V.144775L52.5376 19.8365z" fill="url(#paint0_linear)"/><path opacity=".5" d="M49.962 20.4071c-.2184.0027-.4309-.0037-.6395-.024-.0137-.0009-.0254-.0046-.039-.0055-.2067-.0212-.4094-.0517-.6064-.0959-.1306-.0295-.2544-.0719-.3802-.1107-.0779-.0239-.1589-.0405-.2349-.0682-.1998-.0728-.3938-.1577-.5839-.2563L11.3911.142822V96.771c.0166.3909.273.6906.7.9229l36.2244 19.7821c.5459.246 1.0918.367 1.6377.374.0166 0 .0312.005.0468.005V20.408c-.0136.0009-.0253-.0009-.038-.0009z" fill="url(#paint1_linear)"/><defs><linearGradient id="paint0_linear" x1="91.5542" y1="96.0672" x2="58.9989" y2="35.4383" gradientUnits="userSpaceOnUse"><stop stop-color="#57F7E0"/><stop offset="1" stop-color="#57F7E0" stop-opacity="0"/></linearGradient><linearGradient id="paint1_linear" x1="8.51404" y1="96.3093" x2="34.6158" y2="47.2284" gradientUnits="userSpaceOnUse"><stop stop-color="#57F7E0"/><stop offset="1" stop-color="#57F7E0" stop-opacity="0"/></linearGradient></defs></svg>