<svg width="40" height="45" fill="#282561" xmlns="http://www.w3.org/2000/svg"><path d="M34.7305 6.21613v8.65017c0 16.4308-9.7854 25.0854-14.9581 27.391C14.7206 39.8592 5.26953 31.1318 5.26953 15.274V6.21613L20 2.96301l14.7305 3.25312zM20 0L0 2.95134V16.7156c0 23.0969 19.7105 28.2227 19.7105 28.2227S40 40.2077 40 16.4084V2.95134L20 0z"/><path d="M12.3765 10.6953h3.1366v8.0618c2.5595-2.257 5.9999-5.1778 9.2521-8.0618h3.9423l-8.4321 7.3676 8.9223 9.7953h-3.9853l-7.2321-8.0807-2.4672 2.0055v6.0752h-3.1366V10.6953z"/></svg>