<svg width="160" height="62" fill="none" xmlns="http://www.w3.org/2000/svg"><g clip-path="url(#clip0)"><path d="M0 1.607h5.2v13.026C9.355 10.968 14.845 6.3 20.135 1.607h6.523L12.983 13.563l14.466 15.89h-6.596L9.184 16.401l-3.983 3.236v9.816H0V1.607zM56.94 0v12.463c.736-1.314 2.535-3.662 7.08-3.662 4.763 0 7.747 2.821 7.747 8.55v12.103H66.77V17.98c0-3.01-.977-5.202-4.337-5.202-3.683 0-5.47 2.864-5.47 6.899v9.776H52.01V0h4.93zm18.745 0h4.953v12.03c1.006-1.393 3.017-3.23 7.097-3.23 5.542 0 9.72 4.318 9.72 10.232 0 6.808-4.346 10.973-10.04 10.973-4.103 0-5.94-1.657-6.935-3.282-.017.77-.04 2.13-.095 2.73h-4.74c.04-2.71.04-4.558.04-6.817V0zm16.67 19.228c0-3.157-1.735-6.449-5.865-6.449-4.1 0-6.01 2.775-6.01 6.595 0 3.943 2.207 6.607 5.983 6.607 4.11 0 5.892-3.145 5.892-6.753zm12.126 1.357c.192 3.206 2.41 5.61 5.999 5.61 2.804 0 4.264-1.034 5.185-2.656h4.953c-1.142 3.25-4.065 6.466-10.278 6.466-7.67 0-10.807-5.352-10.807-10.558 0-5.884 3.935-10.646 10.734-10.646 7.719 0 10.621 5.497 10.621 10.552 0 .416 0 .725-.023 1.232h-16.384zm11.324-3.236c-.151-1.999-1.219-4.919-5.554-4.919-3.765 0-5.416 2.23-5.691 4.92h11.245zm8.464-2.533c0-1.816 0-3.649-.039-5.465h4.83c.083.648.162 2.812.162 4.295 1.219-2.884 3.923-4.89 7.96-4.822v4.603c-4.588-.062-7.96 2.28-7.96 8.114v7.912h-4.953V14.816zm35.692 12.182c0 7.414-2.813 11.663-11.206 11.663-8.362 0-9.952-4.729-10.323-7.016h5.031c.534 1.696 1.826 3.229 5.568 3.229 5.077 0 6.038-3.264 6.038-7.543v-.972c-1.196 2.016-3.118 3.398-7.165 3.398-5.739 0-9.664-4.514-9.664-10.106 0-6.346 4.593-10.85 10.159-10.85 4.429 0 6.114 1.9 6.67 3.264.023-.854.062-2.19.118-2.713H160c-.039 1.957-.039 3.912-.039 5.87v11.776zm-16.643-7.533c0 3.566 2.257 6.342 5.898 6.342 3.758 0 5.954-2.298 5.954-6.556 0-4.039-2.055-6.47-5.763-6.47-4.066 0-6.089 3.166-6.089 6.684z" fill="#282660"/><path d="M43.579 12.68v3.612c0 6.862-4.096 10.477-6.262 11.44-2.114-1.002-6.07-4.647-6.07-11.27V12.68l6.166-1.359 6.166 1.36zm-6.166-5.462L26.328 8.85v7.612c0 12.773 10.925 15.608 10.925 15.608s11.245-2.616 11.245-15.778V8.85L37.413 7.218z" fill="#282660"/><path d="M4.371 57.08l-1.505 3.687H.1l5.796-13.922H9.26l6.06 13.922h-2.9l-1.584-3.688H4.371zm5.672-2.194c-1.497-3.516-2.214-5.239-2.54-6.243h-.02c-.299.977-1.144 3.227-2.367 6.243h4.927zm11.404 1.772c.453 1.415 1.53 2.382 4.055 2.382 2.45 0 3.286-.861 3.286-1.957 0-1.164-.704-1.855-3.963-2.406-4.51-.768-5.451-2.21-5.451-4.09 0-2.616 2.501-4.025 5.663-4.025 4.654 0 5.835 2.414 5.993 3.926h-2.69c-.24-.817-.767-1.907-3.382-1.907-1.805 0-2.858.598-2.858 1.745 0 .97.57 1.532 3.457 2.031 5.158.903 5.977 2.48 5.977 4.453 0 2.316-1.831 4.24-6.262 4.24-4.122 0-6.087-1.858-6.524-4.392h2.699zm17.033 0c.453 1.415 1.53 2.382 4.056 2.382 2.45 0 3.286-.861 3.286-1.957 0-1.164-.705-1.855-3.964-2.406-4.509-.768-5.45-2.21-5.45-4.09 0-2.616 2.5-4.025 5.662-4.025 4.654 0 5.836 2.414 5.993 3.926h-2.69c-.24-.817-.767-1.907-3.382-1.907-1.806 0-2.858.598-2.858 1.745 0 .97.57 1.532 3.457 2.031 5.157.903 5.976 2.48 5.976 4.453 0 2.316-1.831 4.24-6.261 4.24-4.123 0-6.088-1.858-6.524-4.392h2.7zm29.328-2.897c0 3.896-2.617 7.302-7.483 7.302-4.603 0-7.353-3.224-7.353-7.298 0-3.846 2.866-7.214 7.46-7.214 4.653 0 7.376 3.381 7.376 7.21zm-12.013-.043c0 2.813 1.58 5.199 4.659 5.199 3.103 0 4.53-2.475 4.53-5.116 0-2.675-1.51-5.105-4.66-5.105-2.976 0-4.529 2.38-4.529 5.022zm30.49 2.801c-.718 2.417-2.562 4.545-6.732 4.545-4.799 0-7.256-3.34-7.256-7.236s2.716-7.277 7.398-7.277c4.141 0 6.15 2.268 6.625 4.575h-2.722c-.444-1.127-1.379-2.441-3.936-2.441-2.898 0-4.541 2.171-4.541 5.045 0 2.859 1.576 5.211 4.561 5.211 2.3 0 3.26-.947 3.908-2.422h2.696zm7.594-9.673v13.921h-2.674V46.846h2.674zm8.62 10.234l-1.506 3.687h-2.765l5.796-13.921h3.361l6.06 13.921h-2.899l-1.584-3.687h-6.463zm5.672-2.193c-1.498-3.517-2.214-5.24-2.541-6.244h-.019c-.299.977-1.145 3.227-2.368 6.244h4.928zm11.197-5.86h-5.103v-2.181h12.877v2.18h-5.091v11.742h-2.683V49.027zm23.06 5.564h-8.058v3.992h8.924l-.327 2.185h-11.272V46.847h11.161v2.185h-8.487v3.374h8.058v2.185h.001zm7.431 2.067c.453 1.415 1.53 2.382 4.056 2.382 2.45 0 3.286-.861 3.286-1.957 0-1.164-.705-1.855-3.964-2.406-4.509-.768-5.451-2.21-5.451-4.09 0-2.616 2.501-4.025 5.663-4.025 4.654 0 5.836 2.414 5.993 3.926h-2.69c-.24-.817-.766-1.907-3.381-1.907-1.806 0-2.858.598-2.858 1.745 0 .97.57 1.532 3.457 2.031 5.157.903 5.976 2.48 5.976 4.453 0 2.316-1.831 4.24-6.261 4.24-4.123 0-6.088-1.858-6.524-4.392h2.698z" fill="#282561"/></g><defs><clipPath id="clip0"><path fill="#fff" d="M0 0h160v61.064H0z"/></clipPath></defs></svg>