<svg width="138" height="210" fill="none" xmlns="http://www.w3.org/2000/svg"><g clip-path="url(#clip0)"><path opacity=".15" d="M5.73661 168.565L42.4286 189.83c1.1145.645 2.9219.649 4.0387.007l71.9217-41.38c1.115-.643 1.118-1.686.003-2.332l-36.9667-21.424c-1.1133-.646-2.9207-.646-4.0341 0L5.73661 166.227c-1.11333.646-1.11333 1.691 0 2.338z" fill="#6B99D1"/><path d="M3.28979 97.0076v61.5464c0 1.941 1.34974 4.304 3.01623 5.261l35.11048 20.352c.0129 0 .0129.012.0245.012.8385.468 1.9204.713 3.0046.713v-48.321L3.28979 97.0076z" fill="#A5CBFA"/><path d="M44.4456 184.893c1.0714 0 2.1428-.234 2.9696-.689.0233-.012.0349-.012.0466-.025 0-.012.0116-.012.0116-.012l58.4966-33.901c1.665-.97 3.016-3.32 3.016-5.26v-40.354l-64.5404 31.919v48.322z" fill="#C8E2FF"/><path d="M4.76182 93.6947l60.17668-34.875c1.6723-.9679 4.083-.5962 5.3873.8312l37.8522 41.4381c1.304 1.427 1.006 3.37-.664 4.338l-60.1756 34.875c-1.6723.969-4.083.596-5.3873-.831L4.09802 98.034c-1.30431-1.4285-1.00735-3.3702.6638-4.3393z" fill="#DCEEFF"/><path d="M99.4714 103.413c0 .011-.0116.011-.0116.011l-51.8582 30.055c-.0244.013-.0466.025-.071.035-1.1052.597-2.6436.351-3.5054-.56l-.0232-.024-31.363-34.3455-.1397-.1519.0128-.0117c-.7104-.9235-.4891-2.1054.5473-2.7121.0117 0 .0117-.0117.0221-.0117L64.9397 65.642c.0245-.0129.0466-.0246.071-.0351.5579-.3039 1.2228-.3858 1.8633-.2806.6289.1053 1.2112.3975 1.6421.8429.0116.0117.0116.0117.0233.0234l31.3629 34.3334c.0117.024.0338.035.0466.059.8031.947.5941 2.196-.4775 2.828z" fill="#1E3779"/><path d="M12.4922 98.4291l31.4445 34.4229c.9596 1.051 2.5166 1.29 3.7464.577l52.1004-30.194-33.0854-36.2194-54.2059 31.4135z" fill="#344593"/><path d="M26.7209 103.885c3.743-2.168 6.0721 1.881 9.815-.288 3.7441-2.169 1.415-6.2198 5.159-8.3907 3.7418-2.1673 6.0721 1.881 9.8138-.2864 3.7453-2.1708 1.4162-6.2203 5.1614-8.3923 3.7476-2.1708 6.0767 1.8775 9.8243-.2934 3.7476-2.172 1.4196-6.2214 5.1672-8.3946M32.6335 111.423c3.2084-1.86 5.5376 2.189 8.7459.331 3.2084-1.86.8805-5.91 4.0888-7.77 3.2096-1.859 5.5387 2.19 8.7483.33 3.2083-1.86.878-5.9092 4.0864-7.7691 3.2096-1.8598 5.5399 2.1896 8.7494.3297 3.2131-1.8622.8839-5.9128 4.097-7.7739 3.213-1.8622 5.5421 2.1884 8.754.3262M38.5483 118.962c4.4918-2.604 6.8209 1.446 11.3138-1.156 4.4929-2.606 2.1638-6.654 6.659-9.26 4.4917-2.602 6.8209 1.446 11.3138-1.156 4.4952-2.606 2.1649-6.655 6.6613-9.2623 4.4952-2.6057 6.8244 1.4449 11.3207-1.1597" stroke="#6CFFE6" stroke-miterlimit="10"/><path d="M66.8751 65.3264l-.1747 1.6834-54.1861 31.4111c-.7104-.9235-.4892-2.1053.5473-2.7121.0117 0 .0117-.0117.0221-.0117L64.9419 65.642c.0244-.0128.0466-.0245.071-.035.5579-.3028 1.2217-.3858 1.8622-.2806z" fill="#031F60"/><path d="M39.939 24.5784l9.2175 5.3423.0012 10.6859-9.2187-5.3424V24.5784z" fill="#41E5C9"/><path d="M49.1565 29.9207l9.2187-5.3423v10.6858l-9.2175 5.3424-.0012-10.6859z" fill="#6CFFE6"/><path d="M58.3752 24.5784l-9.2187-5.3423-9.2175 5.3423 9.2175 5.3424 9.2187-5.3424z" fill="#ABFFEF"/><path d="M49.1563 24.5784L27.0249 6.41553M44.5481 32.5918L18.739 59.8436" stroke="#344593" stroke-miterlimit="10" stroke-linecap="round"/><path d="M0 56.2749l12.2815 7.1181v14.2361L0 70.511V56.2749z" fill="#41E5C9"/><path d="M12.2815 63.393l12.2815-7.1181V70.511s-12.2815 7.3659-12.2815 7.1181V63.393z" fill="#6CFFE6"/><path d="M24.563 56.2748l-12.2815-7.1181L0 56.2748l12.2815 7.1181 12.2815-7.1181z" fill="#ABFFEF"/><path d="M15.9685 4.27393l7.3752 4.27505v8.54772l-7.3752-4.2738V4.27393z" fill="#41E5C9"/><path d="M23.3438 8.54903l7.3752-4.27388v8.54895s-7.3752 4.4223-7.3752 4.2739V8.54903z" fill="#6CFFE6"/><path d="M30.7189 4.27388L23.3437 0l-7.3752 4.27388 7.3752 4.27505 7.3752-4.27505z" fill="#ABFFEF"/><path d="M12.5576 55.9394L19.651 10.686" stroke="#344593" stroke-miterlimit="10" stroke-linecap="round"/><path d="M92.2406 177.845c-.8361 1.055-2.7309 1.594-4.027 1.297-.955-.219-1.5839-.388-2.3082-.617-.9445-.301-2.3816-.319-3.3703-.379-1.1902-.071-2.13.02-3.3097-.156-1.012-.149-2.0531-.448-2.9941-.849-1.26-.538-3.4098-3.121-1.8342-4.098.1177-.073.2586-.097.3948-.118 4.2286-.638 9.6857-.387 11.0261-2.02 0 0 5.6843-.283 5.7379-.286-.1712.009.9305 5.206 1.0225 5.627.0512.233.1036.47.0791.708-.0337.333-.2096.63-.4169.891z" fill="#2D2979"/><path d="M88.6712 144.675l2.3944-2.019s1.5197 3.97 1.4825 5.393c-.035 1.425-1.0167 22.593-1.0167 22.593s-3.2119 2.441-5.7134.264c0 0-1.7107-25.037-2.0985-28.955l4.9517 2.724z" fill="#6F89D1"/><path d="M79.5457 184.319c-.9293.974-2.8649 1.338-4.1284.923-.9317-.306-1.5419-.532-2.2418-.828-.913-.386-2.342-.537-3.3225-.686-1.1786-.18-2.123-.177-3.2818-.46-.9945-.242-2.003-.636-2.9032-1.121-1.2065-.651-3.1118-3.419-1.4534-4.248.1234-.062.2655-.074.4041-.081 4.2681-.247 9.681.505 11.1635-.998 0 0 5.6866.239 5.7402.241-.1712-.007.4518 5.271.5054 5.698.0291.236.0594.477.0152.71-.0653.329-.2667.608-.4973.85z" fill="#2D2979"/><path d="M80.539 154.47c-.0361 1.424-1.0179 22.592-1.0179 22.592s-3.2375 1.935-5.7401-.241c0 0-1.684-24.532-2.0718-28.45" fill="#7FA8E6"/><path opacity=".15" d="M76.5702 190.082l27.0608-15.684c1.673-.968 4.381-.968 6.051 0l27.062 15.684c1.673.968 1.673 2.539 0 3.507l-27.062 15.684c-1.671.969-4.38.969-6.05 0l-27.0618-15.684c-1.6724-.969-1.6724-2.539 0-3.507z" fill="#6B99D1"/><path d="M76.5702 157.486l27.0608-15.685c1.673-.968 4.381-.968 6.051 0l27.062 15.685c1.673.968 1.673 2.539 0 3.507l-27.062 15.683c-1.671.968-4.38.968-6.05 0l-27.0618-15.683c-1.6724-.969-1.6724-2.539 0-3.507z" fill="#DCEEFF"/><path d="M106.658 142.244c.928 0 1.818.209 2.443.57l27.064 15.684c.494.287.67.579.67.741 0 .163-.176.454-.672.742l-27.062 15.683c-.624.362-1.515.569-2.443.569-.928 0-1.818-.208-2.443-.569l-27.0626-15.683c-.4961-.288-.6719-.579-.6719-.742 0-.162.1758-.453.6719-.741l27.0606-15.684c.626-.361 1.517-.57 2.445-.57zm0-1.169c-1.095 0-2.191.242-3.027.726l-27.0608 15.685c-1.6724.968-1.6724 2.538 0 3.507l27.0618 15.683c.835.484 1.93.726 3.026.726 1.095 0 2.189-.242 3.025-.726l27.063-15.683c1.671-.968 1.671-2.539 0-3.507l-27.063-15.685c-.836-.484-1.93-.726-3.025-.726z" fill="#fff"/><path d="M75.3171 186.654c.0152.725.4845 1.292 1.2531 1.755l27.0618 15.684c.781.454 1.776.706 3.026.726V177.4c-1.188-.007-2.193-.253-3.026-.724l-27.0618-15.683c-.6731-.387-1.2531-.963-1.2531-1.753v27.414z" fill="#A5CBFA"/><path d="M138 186.654c-.015.725-.485 1.292-1.253 1.755l-27.062 15.684c-.782.454-1.777.706-3.027.726V177.4c1.188-.007 2.194-.253 3.027-.724l27.062-15.683c.672-.387 1.253-.963 1.253-1.753v27.414z" fill="#C8E2FF"/><path d="M91.2429 136.501c2.8101 1.028 21.7841 8.174 21.7841 8.174s-.75 13.516-4.802 11.332l-19.5534-11.332-4.9518-2.723c-.4367-4.407 4.4382-6.58 7.5231-5.451z" fill="#6F89D1"/><path d="M71.7096 148.371c-.4367-4.408 4.4381-6.58 7.5231-5.451 2.8101 1.028 21.7843 8.175 21.7843 8.175l18.835-1.596c.458 7.076-4.108 10.106-9.366 12.426-5.258 2.318-10.219 2.686-14.2716.502l-19.5519-11.331 2.3932-2.019s1.5197 3.969 1.4836 5.393" fill="#7FA8E6"/><path d="M99.3633 103.348c.4088-4.0248 3.1207-7.1974 7.2357-7.1787 4.377.0198 7.908 3.597 7.889 7.9917-.013 2.57-1.245 4.815-3.137 6.26 0 0-.108.516-.245 1.003 0 0 .421 2.125.613 2.479.25.455 1.442.014 3.038-.223 1.094-.164 1.343 1.887.658 3.801-.617 1.718-3.304 3.53-5.808 3.974-2.504.445-6.564-1.124-5.12-2.228 1.443-1.104 1.462-1.52 1.237-2.28-.226-.761-.662-2.208-.662-2.208-.945.19-1.74.276-2.141.24-1.629-.15-2.439-.48-2.9591-2.348-.9573-3.44-.835-7.292-.5986-9.283z" fill="#FFA8A7"/><path d="M108.183 117.126s-1.336-.03-2.423-.046c-.011-.044-.021-.086-.034-.132-.225-.761-.662-2.208-.662-2.208-.945.191-1.74.276-2.141.24-.689-.063-1.225-.167-1.66-.398.978.18 2.559-.647 2.924-1.396.367-.754.369-3.252.369-3.252s.099.425.308.855.689.346.689.346l1.544-.188 4.584-.805c-.11.094-.213.193-.327.28 0 0-.109.517-.246 1.003 0 0 .422 2.125.614 2.479.111.205.421.222.865.166l-.606.794-3.798 2.262z" fill="#F28F8F"/><path d="M98.6062 95.6749c2.5058.7855 11.8018-2.8033 13.4778 2.7448 0 0 1.839.6745 2.403 3.3863.565 2.712.565 4.717-.962 7.429-1.527 2.712-2.029 3.949-2.029 3.949s-1.102.926-2.63 1.201c-1.528.274-3.17-.383-3.837-2.268-.344-.968-.474-2.184-.474-2.184.357.57 1.433.257 2.01-.91.51-1.033.706-2.362.049-3.366-.843-1.288-2.404-.926-2.707.078-.255.851-.132 2.192-.132 2.192s-1.064.13-1.288-1.005c-.161-.804-.167-1.73-.129-2.483.034-.692-.171-1.406-.678-1.875-.707-.654-.453-1.698-.453-1.698s-2.2027-.121-3.3707-2.2429c-1.1693-2.1229-1.7562-3.735.7499-2.9482z" fill="#3A2C6D"/><path d="M112.575 114.03c.174.585-.319 1.538-2.389 2.647-2.8 1.5-4.466 1.305-4.466 1.305s-3.321 1.805-4.766 2.817c-1.8166 1.276-2.6224 4.964-2.867 11.192-.2166 5.513-.2818 14.26-.1945 18.895.0408 2.124 1.2566 4.052 3.1655 4.972 1.294.623 2.917 1.108 4.7.961 4.345-.358 12.319-4.339 14.094-7.32-.049-6.317-.579-10.156-.359-13.932.39-6.658 1.841-11.938.012-17.283-1.595-4.658-3.441-4.88-5.22-4.629-.999.141-1.71.375-1.71.375z" fill="#F5FBFB"/><path d="M111.535 113.34c.717-.088.92.177 1.409.608 0 0 .632 1.759-1.711 3.292-2.344 1.534-5.989 1.003-5.989 1.003l-.846.472s.401-2.412 1.092-2.567c0 0 2.054.104 4.155-.919 2.103-1.022 1.89-1.889 1.89-1.889z" fill="#E4F2F2"/><path d="M69.8415 119.839c.4309.927 1.0982 1.615 1.6013 2.967.4437 1.193.6475 1.677 1.451 2.543.8723.94 3.4017 2.395 7.0713 4.248 3.6544 1.845 6.5635 1.778 8.7039.96 4.6839-1.793 7.2553-5.946 10.2552-8.357 2.1018-1.692 4.1648-.926 4.5188.618.276 1.204-.76 4.584-4.3674 8.078-2.7938 2.706-7.5755 5.696-11.5839 5.804-2.5644.069-5.7029-.683-7.8411-1.647-3.4902-1.575-5.994-3.258-9.1057-5.214-.849-.533-1.6094-.716-3.3458-1.542-1.7376-.824-3.5438-2.196-4.4487-3.53-.906-1.334-1.0225-1.958-.835-2.259.2365-.378.651-.292 1.1332.269.4833.561 1.1902 1.572 2.5515 2.399 0 0-1.1191-1.175-1.7247-1.937-.6067-.761-1.0795-1.595-1.3346-2.22-.3179-.776.354-1.823.8536-1.27.5043.558.7395 1.119 1.6549 2.234.8327 1.016 1.6409 1.593 1.6409 1.593s-.9294-1.263-1.507-2.467c-.5776-1.204-.5683-1.82-.5415-2.226.0268-.405.5997-.881 1.1296-.112.4775.692.7838 1.771 1.8983 2.947.8082.855 1.4976 1.347 1.5197 1.112.0222-.235-.4891-.705-.7744-1.693-.2725-.943.0198-2.032.559-2.144.5368-.111.4367-.079.8676.846z" fill="#FFA8A7"/><path d="M102.93 121.53c.687.659 1.009 1.924.566 3.385-.443 1.463-2.072 3.856-3.5237 5.65-.9026 1.116-3.3703 3.323-3.3703 3.323s-3.6276-2.492-4.5593-5.549c0 0 4.6478-4.477 5.8834-5.634 1.2356-1.159 3.2569-2.854 5.0039-1.175z" fill="#E4F2F2"/></g><defs><clipPath id="clip0"><path fill="#fff" d="M0 0h138v210H0z"/></clipPath></defs></svg>