<svg width="120" height="138" fill="none" xmlns="http://www.w3.org/2000/svg"><path d="M2.07176 124.859v.004l5.26843 2.65.90128-6.431 41.57113-20.921c1.4876-.7486 2.6927-2.5681 2.6927-4.0639l-.005-79.2845 3.7595-14.00416L50.9884.15621c-.001 0-.0021-.000879-.0031-.001759l-.009-.004397-.0011.00088c-.4864-.2383138-1.1546-.2031384-1.8923.167962L3.94397 23.0273c-1.48767.7483-2.69275 2.5678-2.69275 4.0636l.00606 96.2411c.00101.76.31388 1.288.81448 1.527z" fill="#C8E2FF"/><path d="M56.2608 2.80844L50.9893.15621c-.001 0-.002-.000879-.003-.001759l-.0091-.004397-.001.00088c-.4865-.2383139-1.1546-.2031384-1.8924.167963L3.94393 23.0273c-.74383.3746-1.41702 1.0157-1.9045 1.7517L26.1238 36.8935l26.3774-12.9534v-7.1283l3.7596-14.00336z" fill="#A5CBFA"/><path d="M57.0653 4.33764c0-1.49936-1.2021-2.10437-2.6847-1.35426L9.24067 25.6882c-1.49272.7502-2.69477 2.5643-2.69477 4.0637l.0111 96.2451c0 1.49 1.20205 2.096 2.68468 1.355l45.14092-22.713c1.4927-.751 2.6948-2.566 2.6948-4.064l-.0121-96.23736zM53.116 101.027l-42.6945 21.485c-.99513.496-1.79346.099-1.79346-.903l-.03028-89.554c0-.9937.80843-2.2134 1.79344-2.7094l10.9457-5.5181.2593-.1258c.9952-.496 1.7935-.0906 1.7935.9031v.6226c0 .4432.1554.7677.4249.9577.0313.0185.0626.036.104.0545v.0097c.3219.1627.7771.1345 1.2747-.1179l13.2468-6.6648c.9951-.496 1.7934-1.7069 1.7934-2.7094v-.6235c0-.9928.8085-2.2037 1.7935-2.7094l11.0698-5.56297c.985-.49597 1.7924-.09849 1.7924.90313l.0212 89.54434c-.001 1.0007-.7993 2.2112-1.7944 2.7182z" fill="#DCEEFF"/><path d="M27.3027 20.8428l6.4271-3.2344c.5511-.277.9982-.1513.9982.2823 0 .4335-.4471 1.0095-.9982 1.2874l-6.4271 3.2352c-.551.277-.9981.1504-.9981-.2831 0-.4336.4471-1.0104.9981-1.2874zM35.4496 17.4995c0 .4203.3391.59.7569.3807.4179-.2101.756-.721.756-1.1414 0-.4212-.3381-.5909-.757-.3808-.4168.2111-.7559.722-.7559 1.1415z" fill="#031F60"/><path d="M54.9095 98.3082c0 1.0025-.7984 2.2128-1.7935 2.7188l-42.6945 21.485c-.99511.496-1.79344.1-1.79344-.903v-.343l-.03028-89.2108c0-.9937.80843-2.2134 1.79352-2.7094l10.9456-5.5182.2594-.1257c.9951-.496 1.7934-.0906 1.7934.9031v.6226c0 1.0034.8085 1.4097 1.8036.9031l13.2468-6.6648c.9951-.496 1.7935-1.7069 1.7935-2.7094v-.6235c0-.9928.8084-2.2038 1.7935-2.7094l10.8103-5.43637.2594-.12663c.9851-.49597 1.7925-.09849 1.7925.90313l.0202 89.54447z" fill="#031F60"/><path d="M53.0959 7.85957l-.2594.12663-2.1376 1.07461.001 88.33929 3.9432 1.9839c.1665-.3588.2675-.7299.2675-1.0773l-.0222-89.54312c0-1.0025-.8085-1.39998-1.7925-.90401z" fill="#1E3779"/><path d="M52.8576 97.1877c0 1.0025-.7983 2.2125-1.7935 2.7182L8.62907 121.265l-.03129-89.2099c0-.9937.80843-2.2134 1.79352-2.7094l10.9456-5.5181v.2796c0 1.0034.8084 1.4088 1.8036.9032l.2482-.1267v.343c0 1.0034.8085 1.4096 1.8036.9031l13.2468-6.6649c.9951-.4959 1.7935-1.7068 1.7935-2.7093v-.6235c0-.9929.8084-2.2038 1.7934-2.7094l10.8104-5.43637.0212 89.20137z" fill="#2B3D89"/><path d="M44.9741 68.6788c4.9546-16.2933 7.1659-45.1609 7.8633-56.2782l-.001-4.4136-10.8104 5.4355c-.985.5056-1.7935 1.7166-1.7935 2.7094v.6235c0 1.0025-.7983 2.2134-1.7934 2.7094l-13.2468 6.6649c-.9951.5056-1.8036.0993-1.8036-.9032v-.3429l-.2483.1266c-.9951.5056-1.8035.0994-1.8035-.9031v-.2797l-10.9456 5.5182c-.98509.4959-1.79352 1.7157-1.79352 2.7094l.02725 78.642c.58437-.326 28.40307-15.8898 36.34907-42.0182z" fill="#344593"/><path d="M23.8135 26.1843l-1.9903-1.0844c-.3321-.1988-.4875-.5418-.4875-.9938v-.2797l.2594-.1258c.9951-.496 1.7935-.0906 1.7935.9033v.6227c0 .4432.1554.7678.4249.9577z" fill="#031F60"/><path opacity=".2" d="M69.4349 94.252c.0757-.1627.1332-.3262.1766-.4915.0081-.0299.0172-.059.0233-.0897.0393-.168.0666-.3351.0666-.496l-.0202-89.54352c0-1.0025-.8084-1.39998-1.7935-.90313l-.2594.12751-2.1376 1.07461v.00088L56.818 8.29203c-.9851.50564-1.7935 1.71657-1.7935 2.70937v.6235c0 1.0025-.7984 2.2134-1.7935 2.7094l-13.2468 6.6649c-.9951.5056-1.8036.0993-1.8036-.9032v-.6226c0-.9937-.7983-1.4-1.7934-.9031l-.2594.1266-10.9456 5.5182c-.9851.4959-1.7935 1.7157-1.7935 2.7094l.0313 89.2105v.343c0 1.003.7983 1.4 1.7934.903l42.6945-21.4854c.651-.3315 1.2121-.9647 1.527-1.6436z" fill="#E9FFFB"/><path d="M69.4349 94.252c.0757-.1627.1332-.3262.1766-.4915.0081-.0299.0172-.059.0233-.0897.0393-.168.0666-.3351.0666-.496l-.0202-89.54352c0-1.0025-.8084-1.39998-1.7935-.90313l-.2594.12751-2.1376 1.07461v.00088l-8.6728 4.36088c-.985.50564-1.7934 1.71657-1.7934 2.70937v.6235c0 1.0025-.7984 2.2134-1.7935 2.7094l-13.2468 6.6649c-.9951.5056-1.8036.0993-1.8036-.9032v-.6226c0-.9937-.7983-1.4-1.7934-.9031l-.2594.1266-10.9456 5.5182c-.9851.4959-1.7935 1.7157-1.7935 2.7094l.0313 89.2105v.343c0 1.003.7983 1.4 1.7934.903l42.6945-21.4854c.651-.3315 1.2121-.9647 1.527-1.6436z" stroke="#E9FFFB" stroke-miterlimit="10"/><path opacity=".8" d="M46.7756 28.6975v66.5948c0 1.4958 1.2061 2.1026 2.6938 1.3542l36.7175-18.4714c1.4876-.7484 2.6927-2.5678 2.6927-4.0636V7.51752c0-1.49583-1.2061-2.10348-2.6927-1.35425L49.4694 24.6338c-1.4887.7475-2.6938 2.567-2.6938 4.0637z" fill="#57F7E0"/><path d="M46.7756 28.6975v66.5948c0 1.4958 1.2061 2.1026 2.6938 1.3542l36.7175-18.4714c1.4876-.7484 2.6927-2.5678 2.6927-4.0636V7.51752c0-1.49583-1.2061-2.10348-2.6927-1.35425L49.4694 24.6338c-1.4887.7475-2.6938 2.567-2.6938 4.0637z" stroke="#E9FFFB" stroke-miterlimit="10" stroke-linecap="round"/><path opacity=".8" d="M52.0631 68.9575l14.687-7.3886c.5945-.299 1.0769-.0563 1.0769.5417v.0536c0 .5989-.4824 1.327-1.0769 1.626l-14.687 7.3878c-.5945.299-1.0769.0563-1.0769-.5417v-.0536c0-.5989.4824-1.3262 1.0769-1.6252zM70.9367 59.4647l12.6564-6.3669c.5944-.2999 1.0769-.0572 1.0769.5417v.0536c0 .5989-.4825 1.3262-1.0769 1.6252l-12.6554 6.3669c-.5944.2999-1.0769.0563-1.0769-.5417v-.0528c-.002-.5989.4805-1.3261 1.0759-1.626z" fill="#0B3FA5"/><g opacity=".8"><path opacity=".8" d="M52.0631 79.4013l14.687-7.3879c.5945-.299 1.0769-.0563 1.0769.5417v.0536c0 .5989-.4824 1.3271-1.0769 1.6261l-14.687 7.3879c-.5945.299-1.0769.0562-1.0769-.5418v-.0536c0-.5989.4824-1.3261 1.0769-1.626zM70.9367 69.9091l12.6564-6.3677c.5944-.299 1.0769-.0563 1.0769.5417v.0536c0 .5989-.4825 1.3271-1.0769 1.6261l-12.6554 6.3668c-.5944.2999-1.0769.0563-1.0769-.5417v-.0527c-.002-.5989.4805-1.3271 1.0759-1.6261z" fill="#0B3FA5"/></g><g opacity=".8"><path opacity=".8" d="M52.0631 74.1792l7.9511-4.0001c.5944-.2989 1.0769-.0562 1.0769.5417v.0537c0 .5988-.4825 1.3269-1.0769 1.6258l-7.9511 3.9993c-.5945.2989-1.0769.0562-1.0769-.5417v-.0537c0-.5979.4824-1.326 1.0769-1.625zM63.5842 68.3825l6.7449-3.4121c.5935-.2999 1.0749-.058 1.0749.54v.0536c0 .5989-.4814 1.327-1.0749 1.6278l-6.7449 3.412c-.5935.3008-1.0749.0581-1.0749-.5399v-.0528c0-.5988.4814-1.3279 1.0749-1.6286zM74.1524 63.0429l9.4398-4.7259c.5954-.2981 1.0779-.0545 1.0779.5443v.0537c0 .5989-.4835 1.3252-1.0779 1.6233l-9.4398 4.725c-.5955.2982-1.0789.0554-1.0789-.5434v-.0537c0-.5988.4824-1.3252 1.0789-1.6233z" fill="#0B3FA5"/></g><g opacity=".8"><path opacity=".8" d="M52.0641 84.6818l12.8097-6.4317c.5945-.299 1.0769-.0554 1.0769.5426v.0536c0 .5989-.4824 1.3261-1.0769 1.6251l-12.8097 6.43c-.5945.299-1.0779.0554-1.0779-.5426v-.0528c0-.5979.4834-1.326 1.0779-1.6242zM68.4438 76.4535l6.744-3.412c.5945-.3008 1.0759-.0581 1.0759.5399v.0537c0 .5988-.4814 1.327-1.0759 1.6277l-6.744 3.4121c-.5945.3008-1.0759.058-1.0759-.5391v-.0527c0-.5998.4825-1.3288 1.0759-1.6296zM79.0119 71.1137l4.5801-2.2942c.5954-.2981 1.0779-.0554 1.0779.5434v.0537c0 .5988-.4835 1.3252-1.0779 1.6242l-4.5801 2.2933c-.5955.2981-1.0779.0554-1.0779-.5434v-.0536c-.001-.598.4814-1.3253 1.0779-1.6234z" fill="#0B3FA5"/></g><path opacity=".8" d="M53.0958 60.9244l29.4577-14.8203V16.467L53.0443 31.3111l.0515 29.6133z" fill="#0B3FA5"/><path d="M117.941 57.5107c.191 1.4483 2.23 7.4247 1.805 9.5634-.423 2.1386-7.252 5.9825-7.252 5.9825l-.939-3.6601 2.889-2.4667c.541-.4608.795-1.1194.686-1.7719l-.84-5.0267 3.651-2.6205z" fill="#FFA8A7"/><path d="M114.362 64.8023l-2.807-11.0187c-.377-4.0892 3.922-3.7322 4.918-2.2944.996 1.4378 3.022 10.8499 3.115 11.6915.374 2.129.432 3.1667.217 4.0426-.214.875-2.608 3.3654-7.311 5.8338l-.939-3.66 2.807-4.5948z" fill="#6A89CE"/><path d="M113.65 116.841s.076.639.301 1.445c.175.626.212 1.444-.596 1.669-.809.225-1.734.152-2.252-.458-.647-.761-.984-1.708-1.922-2.447-.9-.709-2.013-1.511-2.336-2.641-.292-1.021-.106-1.659.694-1.761 1.011-.128 2.61.611 3.43 1.136.591.378 2.681 3.057 2.681 3.057zM102.748 122.778s.06.811.115 1.457c.056.645.319 1.674.082 2.151-.237.477-1.457.83-2.892.82-.9291-.007-2.7307.62-3.3685 1.103-.9124.69-3.0026.966-4.237.63-1.2343-.337-2.5989-.834-2.8048-1.33-.2069-.495.435-.74 3.4437-1.941 3.0076-1.2 5.226-2.029 6.3938-3.414l3.2678.524z" fill="#2D2979"/><path d="M114.379 102.91c-.513-3.4299-1.323-5.4675-1.323-5.4675s.4-4.7161.591-9.1887c.208-4.8305.553-10.8816.651-12.0863l-17.9739 3.4824s1.1304 18.7257 1.3272 21.1781c.1968 2.454.4158 5.852.7075 9.002.3684 3.981.761 12.798.761 12.798 1.9002.963 3.6612.615 3.6612.615s1.558-10.995 1.816-13.819c.35-3.81-.759-7.058-.759-7.058s.5-4.8505.935-8.8447c.387-3.5597.871-5.6879.935-7.429l.359-.1662s.364 6.9093.562 9.3619c.197 2.4535.612 4.806 1.37 9.362.657 3.953 2.372 12.095 2.372 12.095 1.902.962 3.278.095 3.278.095s1.243-10.5.73-13.93z" fill="#C4D9FF"/><path d="M105.709 86.0924s4.038-1.8633 6.057-3.5438c0 0-1.875 2.4754-4.338 3.5728 0 0-.876 8.5835-.871 8.4129l-.505-8.4551-.343.0132z" fill="#AACAF9"/><path d="M111.753 50.5827c-1.368.0563-2.387.3641-2.559.0124-.133-.2727-.31-1.8635-.31-1.8635.157-.3465.291-.7176.291-.7176 1.72-.9216 2.95-2.4772 3.175-4.3626.386-3.2213-2.299-6.1048-5.996-6.4416-3.476-.3148-6.034 1.8124-6.7175 4.7355-.3673 1.444-.6953 4.3082.1252 6.8804.4403 1.3771.8193 1.7711 1.4913 1.9593.243.0686 1.826.1768 2.31.1337l-.003.0009s.184.8952.311 1.4694c.129.5743.078.8777-1.236 1.5821s1.985 2.1527 4.139 2.0103c2.154-.1425 4.578-1.2743 5.242-2.4887.742-1.3552.677-2.9495-.263-2.91z" fill="#FFA8A7"/><path d="M111.753 50.5836c-1.368.0563-2.387.3641-2.558.0123-.134-.2726-.311-1.8633-.311-1.8633.157-.3465.291-.7176.291-.7176.608-.3253 1.15-.7342 1.613-1.2047l-4.545 1.3059-1.329-.2348-.54-.2691-.351-.5452c.001.0756-.208 1.8044-.651 2.3918-.442.5866-1.575 1.269-2.193 1.3015.025.0079.048.0176.075.0246.242.0686 1.825.1768 2.309.1337l-.003.0009s.184.8951.312 1.4694c.115.5188.075.8204-.902 1.392l1.847 1.2337 5.519-.08c.151-.0818.297-.1653.435-.2532l1.645-2.2072c.255-1.0227.045-1.9206-.663-1.8907z" fill="#F28F8F"/><path d="M109.906 48.2109c1.686-1.3428 2.219-2.6751 2.444-4.5596.385-3.2212-2.3-6.1047-5.997-6.4415-2.396-.2172-4.354.7255-5.565 2.2899.001.0009.25.4362.63.7615 0 0-.303.7475.24 1.2778.39.3816.412.7756.417 1.4255.004.5557-.084 1.5336-.016 2.136.095.8495 1.18 1.0342 1.18 1.0342s.059-1.903.249-2.1044c.371-.7035 1.853-.9137 2.292.0967.361.8328.171 1.5856-.133 2.3928-.304.8064-1.223.7704-1.624.5461.015.3852-.161 1.7104 1.299 2.0692 1.459.3579 2.823.0273 3.572-.3113.449-.1961 1.012-.6129 1.012-.6129z" fill="#543354"/><path d="M101.418 40.2623s-1.7461.1416-3.3378-1.4474c-1.5906-1.589-.6954-3.0619 1.2263-2.3971 1.9225.6639 5.1375.2884 6.7615.1442 1.624-.1442 5.936.6164 5.487 3.6581l-10.137.0422z" fill="#543354"/><path d="M109.773 50.7595c.379.8231-.585 1.8309-3.155 2.5362-2.572.7044-2.803-.2023-2.803-.2023s-3.769 1.4967-4.996 2.2442c-1.5432.9392-2.2285 3.6592-2.4364 8.2505-.2402 5.3132-.7438 15.792-.541 17.1516 0 0 1.7451.8793 3.3236-1.1204.9398 1.3428 2.6518 2.4456 4.8948 3.0286 3.627.9427 8.677-.2497 11.115-4.4207-.041-4.6572-1.538-8.567-.672-11.2509 1.98-6.1442 3.026-8.6602 2.062-12.7423-.794-3.3654-1.906-3.784-3.432-3.7515-1.527.0334-3.36.277-3.36.277z" fill="#7FA8E6"/><path d="M109.027 49.8246s.241-.1283.519.0414c.276.1688 1.03.7993 1.03.7993s.231 1.313-1.588 2.2961c-1.821.9841-3.999 1.5064-6.244.5681 0 0 .418-1.2725.567-1.495.149-.2233.431-.2497.431-.2497s.571.6411 2.744 0 2.584-1.553 2.584-1.553l-.043-.4072z" fill="#6A89CE"/><path d="M90.5825 68.8423c3.0288.6648 3.7403-.999 4.138-2.3761.9628-3.3363 1.4826-6.3482 2.2002-8.2406.8458-2.2336 1.7339-2.5889 2.9784-3.0242 1.4619-.5109 2.7199.5655 2.2339 3.4067-.576 3.361-1.333 5.723-2.7749 9.7004-.3764 1.0394-1.2222 2.8844-2.4868 3.7761-1.5624 1.1009-3.916 1.0534-7.4768.2814-1.5189-.3289-3.1842-1.1204-6.0566-2.2873-.7701-.3122-1.3706-.5215-2.8502-1.1212-1.4786-.6006-3.0208-1.604-3.7969-2.5827-.7762-.9788-.8791-1.4387-.7207-1.662.1989-.2797.5511-.2172.9639.1943.4128.4115 1.0194 1.1537 2.179 1.757 0 0-.9558-.8609-1.4755-1.4202-.5188-.5593-.9245-1.1713-1.1456-1.6312-.2735-.5699.2917-1.3437.7186-.9392.431.4089.6339.8222 1.4171 1.64.7125.7449 1.4018 1.1661 1.4018 1.1661s-.7953-.9269-1.2918-1.8124c-.4976-.8855-.4926-1.3384-.4714-1.6383.0212-.299.5047-.6516.9589-.0879.4087.5082.6752 1.3014 1.6269 2.1641.6924.627 1.2798.9867 1.2969.8134.0172-.1741-.4188-.5179-.6661-1.2443-.2362-.6947.0061-1.4984.4633-1.5837.4572-.0853.3724-.0607.7428.6199.3714.6807.9417 1.1854 1.3756 2.18.3826.8758.5582 1.2311 1.2455 1.8669.7458.6912 2.393 1.4527 5.2725 2.085z" fill="#FFA8A7"/><path d="M88.6194 68.3049l-1.6956-.6719c-.9891.3694-1.8005 1.8609-1.4867 3.413l2.061.7343 1.1213-3.4754z" fill="#F5FBFB"/><path d="M100.116 54.6716c-1.9679.2049-2.844.6921-3.7917 4.4805-.9477 3.7885-1.5563 7.4758-2.3011 8.3094-.7449.8337-1.0951 2.0086-5.6419.5294 0 0-2.1043.715-1.8954 3.7902 0 0 2.4515.8134 5.1958 1.276 2.7452.4626 5.2623.2454 6.9266-2.7587 1.6647-3.0048 3.4397-8.8827 3.7267-11.2764.288-2.3964-.419-4.5386-2.219-4.3504z" fill="#6A89CE"/><path opacity=".15" d="M90.983 119.781l8.6212-4.337c5.8468-2.942 13.9228-3.648 18.0368-1.579 4.114 2.07 2.709 6.132-3.139 9.073l-8.621 4.337c-5.847 2.941-13.922 3.648-18.0369 1.579-4.1138-2.069-2.7089-6.133 3.1389-9.073zM.355013 134.838L51.1458 109.417c.4734-.238 1.2394-.237 1.7118.002l4.3176 2.133c.4724.239.4724.626-.001.864L6.37535 137.821c-.47335.239-1.2404.239-1.71275 0L.355013 135.7c-.473351-.237-.473351-.624 0-.862z" fill="#6B99D1"/></svg>