<svg width="143" height="145" fill="none" xmlns="http://www.w3.org/2000/svg"><path opacity=".15" d="M137.133 92.3823L95.1094 69.5472c-1.385-.7526-3.6298-.7526-5.0148 0L1.03877 117.944c-1.385026.752-1.385026 1.972 0 2.725l42.02513 22.835c1.3851.752 3.6299.752 5.0139 0l89.0542-48.3979c1.385-.7517 1.385-1.9712.001-2.7238zM9.301 95.4338l8.0264-4.3616c5.4433-2.9582 12.9622-3.6692 16.7922-1.5874 3.8299 2.0817 2.5219 6.1666-2.9223 9.1247l-8.0264 4.3615c-5.4433 2.958-12.9613 3.669-16.79216 1.588-3.82995-2.082-2.52198-6.167 2.92226-9.1252z" fill="#6B99D1"/><path d="M18.904 88.8872c-.357.9817.109 1.805.4069 2.6399.5788 1.6245.4435 3.8072.4435 3.8072.1165.1901.8457.2449 1.0486-.0557 0 0-.093-3.5871.9199-3.3014l-2.8189-3.09z" fill="#2D2979"/><path d="M27.5271 94.4734c-1.0571-1.4202-2.7202-5.9862-3.0538-7.0624-.1409-.4555-.5196-1.3681-.4942-2.2551.0441-1.583.56-5.9986.56-5.9986l-4.0405.0115.0649 5.7209c-.0273.872-.0573 1.1152-.328 1.759-.2104.5005-.7244 1.7245-.9048 2.248-.1973.6703-.545 1.3867.6136 2.2613 1.1585.8746 1.852 1.3805 2.6074 2.2604.7565.8799.702 2.0499 1.9207 3.0882 1.2187 1.0382 3.5208.2423 3.9615-.1159.6201-.5023.4068-.9507-.9068-1.9173z" fill="#FFA8A7"/><path d="M27.358 95.6666c-2.5652.5942-3.0802.275-3.8206-2.4462-.5685-2.0871-1.0712-3.58-2.0456-4.3821-1.1689-.9604-1.2534-1.5123-1.2563-2.1897-.2537-.0186-.3815.1592-.5459.6881-.3749 1.2071-.8513 1.246-.8682 2.1083-.0169.8623.6013 1.6131 1.2845 2.0332 1.1266.6933 1.4357 1.002 1.9582 2.0208.6154 1.2.4933 2.5319.9095 3.6515 1.7872 1.3027 3.7013 2.1579 6.5803.9012.5487-1.3734 1.012-2.0013-2.0277-3.5791.5572.605.8033.9693-.1682 1.194zM12.0381 90.4311c-.2584.6358-.7555 1.3663-.6117 3.036.1447 1.6706.5299 1.3248.4078 3.5543-.0743 1.3734-.7743 3.1196-.0085 4.1636 1.3333 1.247 4.841 1.077 5.572.412.188-.582.3665-1.16.2603-1.6962-.0902-.4589-.8908-.9533-1.0176-1.4114-.0959-.3723-.2274-.8171-.3608-1.4389-.4257-1.9889-.9105-6.6283-.9105-6.6283l-3.331.0089z" fill="#2D2979"/><path d="M14.763 99.2287c-.7367.0398-1.603-.2511-1.603-.2511-.2547-.1265-.4285-.4563-.4915-.8517-.1672-1.0497.2049-2.3382-.2894-3.7965-.4952-1.4619-.5985-2.3321-.3411-3.8974.2575-1.5654.0479-3.939.0479-3.939l3.4091-.0707s-.1438 2.6318-.125 3.9991c.0188 1.3681.2997 5.6555.6004 7.0634.1494.7039.2735.9772.188 1.2752-.001 0-.2885.4095-1.3954.4687z" fill="#FFA8A7"/><path d="M20.3258.876792C19.56-.279967 13.7182-1.04053 11.7976 3.61923c-.7282 1.76698-.6154 6.2817-1.2262 9.11967-.61076 2.8379-2.04559 4.4439-2.56239 6.746-.51586 2.302.32606 6.1605 6.21949 6.8415 5.8934.6809 10.4262-1.2656 11.8168-3.0343 1.3907-1.7688 1.4217-5.5256-.0244-7.5446-1.4461-2.0199-2.5426-3.6595-2.5079-6.28787L20.3258.876792z" fill="#543354"/><path d="M49.663 31.9146c-.763.2441-1.5204.1866-2.5643.6102-.9199.3741-1.5325.5881-2.4581.7039-.9246.1159-3.7068-.7419-6.1527-1.9075-2.8847-1.3743-5.9451-4.0088-7.1037-5.3186-2.4975-2.8246-5.2403-7.1155-6.0879-8.6729-1.0166-1.8678-2.3227-2.1729-3.5621-2.034-1.4564.1627-2.0888.9737-.5929 3.4976 1.4959 2.5231 4.5394 7.0289 7.4447 9.8651 1.4085 1.3743 3.7125 3.4304 7.4128 5.2106 2.5849 1.2434 4.8457 1.9491 7.6608 2.6168.7668.1822 1.2892.4962 2.7081 1.0056 1.4198.5093 3.1891.7747 4.4426.5774 1.2534-.1981 1.6725-.4554 1.7402-.711.0855-.3219-.1898-.4988-.7734-.4705-.5835.0283-1.5447.1672-2.7597-.1388 0 0 1.2798-.0018 2.0447-.0681.7648-.0654 1.4978-.2397 1.9939-.4227.6145-.2273.8419-1.1249.2537-1.1099-.592.015-1.0402.1769-2.1753.2582-1.0336.0734-1.8041-.0645-1.8041-.0645s1.2263-.1486 2.2279-.4572c1.0007-.3087 1.3465-.6288 1.5617-.8517.2152-.2228.1729-.7738-.5553-.6641-.654.099-1.4349.4873-2.7137.4934-.9293.0045-1.5861-.1132-1.464-.2458.1222-.1318.6681-.0991 1.386-.4528.685-.3378 1.1445-1.0533.9133-1.4008-.233-.3458-.2612-.092-1.0232.1521z" fill="#FFA8A7"/><path d="M20.2383.938583s2.085-1.682919 4.5844.718087c1.5946 1.5317 1.525 4.50046 1.1699 5.80665-.3552 1.30618-1.6453 2.87858-2.7494 2.97848-1.104.0999-3.0049-9.503217-3.0049-9.503217z" fill="#543354"/><path d="M9.77173 41.9131c-1.19897 4.9109.43407 12.6783.70757 16.7057.2725 4.0265.6681 8.7119.6681 8.7119s-1.29298 4.2529-1.21875 7.5251c.07795 3.4782 2.27205 13.4308 2.27205 13.4308s1.385.964 3.1515-.0088c0 0 .5206-8.6173 1.0101-12.6075.5112-4.1672.6766-7.2067 1.1248-9.644.559-3.037 1.8304-19.2483 1.8304-19.2483l.1428 2.4541 1.5664 15.9885s-1.1201 2.3038-1.1135 4.1556c.0085 2.5479.5816 14.4939.5816 14.4939s1.5316 1.0957 3.41.015c0 0 2.6685-16.4005 3.0472-18.3258.3486-1.7758 1.1294-20.2192-.421-24.5031l-16.75927.8569zM14.7865 11.3647s.2885 4.6145.1992 4.9532c-.0883.3378-1.9244.6677-2.4402 1.0709-.515.4024 2.6667 5.0833 4.2847 5.7757 1.6181.6924 6.6245-1.0771 6.9731-3.4215.3204-2.1587-1.4339-3.8372-2.1095-4.4227-.4501-.0902-1.1774-.0062-1.3822-.0336l-.1466-2.2374c-2.1922-.6562-5.3785-1.6846-5.3785-1.6846z" fill="#FFA8A7"/><path d="M14.1137 16.7663c-1.3765.1999-2.9523.8924-3.1684 1.6016-.2528.8278-.7978 4.7323.3946 7.702 1.1924 2.9697 2.5869 4.9808 3.2728 6.2604 0 0 5.2187 1.5185 10.024-1.2867 0 0 .4802-2.417.5027-4.1194 4.4332-3.6418.6437-8.1318-3.1149-11.6206-.3674-.0504-.9997-.0389-1.353-.0159 0 0 2.2203 5.3504 1.0223 5.8518-1.7402.7279-5.9836-3.5321-7.5801-4.3732z" fill="#F5FBFB"/><path d="M20.2843 14.8614l-.1184-1.812-1.5617-.4767-3.8177-1.208s.0451.8348.0761 1.4486c0 0 .1607 1.5777 2.9326 2.7999.4896.2166 2.3369.3758 2.4891-.7518z" fill="#F28F8F"/><path d="M23.9452 5.64567C23.4509 2.68128 21.1751.442067 17.9268.621593c-3.4551.191023-6.0917 2.982077-5.8887 6.233887.1184 1.90227 1.1943 3.51452 2.7494 4.50852 0 0 .295 1.0701.4998 1.2947 1.1539 1.262 4.2087 2.0623 5.2169 2.0738.872.0098 1.6237-.757 2.4412-2.0305 1.7017-2.6522 1.2704-5.59093.9998-7.05633z" fill="#FFA8A7"/><path d="M23.7111 3.79913C22.3233 1.11951 19.5673.186511 16.9166.675563c-2.2767.420067-4.0217 2.020767-4.639 4.126427-.81 2.76186.4257 5.22301 2.5088 6.56111-.0695-.1999-1.7214-2.49924-.0357-3.01393.0273.2202.0667 1.04089.1551 1.55736 0 0 .8278.05306.7977-.91974-.0084-.26177-.0592-.70572-.0554-.9215.0131-.70838-.0188-1.18682.4125-1.79349.1888-.26442.2697-.55715.3834-.89497.2771-.82688.9133-1.5441 1.7862-1.82002.8269-.26089 1.9638-.19721 3.2023 1.10634 1.2469-1.88015 1.8595-1.2558 2.2786-.86402z" fill="#543354"/><path d="M14.7865 11.3645s-.1504.2945-.7602.3255c-1.1389.0557-2.4797-1.93317-1.5655-3.28885.5713-.84719 1.8681-.55447 2.29-.0504l.0357 3.01375z" fill="#FFA8A7"/><path d="M14.2753 31.7308c.3373.5987.404 1.4619-.7113 2.9935-1.1154 1.5317-3.3818 4.6411-3.79239 7.1889.89739.895 2.17619 2.7265 6.05689 3.2934 5.5805.8145 9.7374-1.5034 11.0473-2.853 0 0-.078-2.2064-1.0703-6.1851-.5966-2.3948-.9274-3.2553-1.1689-5.1248-.2405-1.8695-10.3613.6871-10.3613.6871z" fill="#F5FBFB"/><path d="M14.0226 33.6657c-.6314 1.0037-1.1567 1.8651-2.351 3.4242-1.1473 1.4972-3.37513 4.78-2.83672 10.5142.35236 3.7462 2.31242 19.7275 2.31242 19.7275s-.9951 2.7389-1.30513 6.1543c-.31008 3.4145 2.21753 14.8776 2.21753 14.8776s.6061.5333 1.8229.5068c1.2168-.0266 1.6021-.6147 1.6021-.6147s.4529-6.3851.6916-9.7023c.2386-3.3182.8701-8.589 1.0533-9.9049.1823-1.3159.6295-3.6153.8428-6.1941.2133-2.5779 1.2451-15.6744 1.2451-15.6744l.1428 2.4541s.1362 3.9814.7442 8.8949c.6079 4.9135.8222 7.0935.8222 7.0935s-1.0553 1.8244-1.1906 3.1722c-.1362 1.3469.6587 15.4772.6587 15.4772s.5065.7836 1.8831.9233c1.4047.1424 1.7543-.2432 1.7543-.2432s2.2053-14.8051 2.4712-16.3156c.2669-1.5105.4858-2.2569.7912-7.0051.3054-4.7481.1945-15.0651-.3139-18.805-.5083-3.7409-1.9741-9.1771-1.9741-9.1771s-1.8474.9065-4.4135 1.0303c-2.5652.1212-6.6705-.6137-6.6705-.6137z" fill="#C4D9FF"/><path d="M25.1403 42.3555s-.5703 1.2213-2.1499 2.5806c-1.5795 1.3601-3.673 1.8421-3.673 1.8421l.1428 2.4541s.1363 3.9813.7442 8.8948c.3326 2.6884.5469 4.5518.6728 5.6943l-.1785-16.0996c3.8825-1.637 4.4416-5.3663 4.4416-5.3663z" fill="#AACAF9"/><path d="M14.4774 32.3027s3.5809 1.0073 6.1518.7889c2.8583-.2423 3.7547-.9808 4.0902-1.4796 0 0 .4303.9578.3881 1.6343-1.2413 1.3567-2.8283 1.6724-5.1211 1.6671-2.6103-.0062-5.5419-.9251-5.9638-1.2479 0 0 .3523-.7614.4548-1.3628z" fill="#7FA8E6"/><path d="M15.4208 49.1146c-.6577-.4378-1.0533-1.0489-2.0315-1.5945-.8616-.4811-1.4057-.8216-2.0493-1.4575-.6427-.6367-1.5401-3.2597-1.97515-5.8058-.51304-3.0051-.04698-6.8839.3984-8.535.96035-3.5622 3.03875-8.1715 3.87975-9.7324 1.0082-1.8722.701-3.1713-.3439-3.908-1.1736-.8277-2.2965-.4669-3.3545 1.6034-1.33146 2.6044-3.37705 7.5869-4.10808 11.4657-.35519 1.8802-.76863 4.8428-.12497 8.7066.45008 2.6999 1.17172 4.8357 2.25136 7.372.29411.6916.33075 1.2726.72728 2.6531.39653 1.3805 1.20743 2.8839 2.11421 3.7223.9067.8383 1.3737 1.0055 1.634.9073.327-.1238.3167-.4377-.0507-.8658-.3674-.4271-1.0515-1.0789-1.5016-2.1835 0 0 .7536.9728 1.2601 1.5176.5055.5448 1.0852 1.0002 1.5344 1.2699.5572.3343 1.4621-.0194 1.1031-.4589-.3608-.4422-.7639-.6881-1.5006-1.5052-.6699-.7438-1.0044-1.4115-1.0044-1.4115s.8484.8464 1.7016 1.4274c.8532.5819 1.3315.6562 1.65.6889.3176.0336.7668-.3228.2453-.8127-.4698-.4404-1.2629-.8065-2.0193-1.7767-.5497-.7048-.8344-1.2744-.6483-1.2584.1851.015.4773.4501 1.2036.7897.6935.3237 1.5786.252 1.7402-.1282.1617-.3803-.0733-.253-.731-.6898z" fill="#FFA8A7"/><g opacity=".9"><path opacity=".8" d="M115.755 25.2358l24.767-13.4581c.817-.444 1.477-.0841 1.478.803v16.8735c0 .887-.661 1.9651-1.478 2.409l-24.767 13.4582c-.816.4431-1.478.084-1.478-.803V27.6448c.001-.8879.663-1.9659 1.478-2.409z" fill="#57F7E0"/><path opacity=".9" d="M115.755 25.2358l24.767-13.4581c.817-.444 1.477-.0841 1.478.803v16.8735c0 .887-.661 1.9651-1.478 2.409l-24.767 13.4582c-.816.4431-1.478.084-1.478-.803V27.6448c.001-.8879.663-1.9659 1.478-2.409z" stroke="#E9FFFB" stroke-miterlimit="10"/><path opacity=".8" d="M117.326 27.7572l10.074-5.4733c.409-.222.74-.0425.74.4015v.0398c0 .443-.332.9825-.74 1.2045l-10.073 5.4733c-.409.222-.739.0415-.739-.4015v-.0389c0-.444.33-.9834.738-1.2054zM130.271 20.7245l8.68-4.7171c.408-.2219.739-.0415.739.4015v.0398c0 .4431-.33.9825-.739 1.2045l-8.68 4.7171c-.408.2211-.739.0416-.739-.4015v-.0389c0-.444.331-.9834.739-1.2054z" fill="#0B3FA5"/><g opacity=".8"><path opacity=".8" d="M117.326 35.4952L127.4 30.022c.409-.2211.739-.0416.739.4015v.0397c0 .4431-.331.9826-.739 1.2045l-10.073 5.4733c-.409.2211-.739.0416-.739-.4015v-.0389c0-.4439.33-.9834.738-1.2054zM130.271 28.4628l8.68-4.7172c.408-.2211.739-.0416.739.4015v.0389c0 .4431-.33.9825-.739 1.2045l-8.68 4.7172c-.408.222-.739.0416-.739-.4015v-.0389c0-.444.331-.9834.739-1.2045z" fill="#0B3FA5"/></g><g opacity=".8"><path opacity=".8" d="M117.326 31.6262l5.454-2.9635c.408-.2211.738-.0416.738.4015v.0398c0 .4431-.33.9825-.738 1.2045l-5.454 2.9626c-.409.222-.739.0416-.739-.4015v-.0389c0-.443.331-.9825.739-1.2045zM125.228 27.3326l4.626-2.5277c.408-.2228.738-.0442.738.3998v.0398c0 .4431-.331.9835-.738 1.2063l-4.626 2.5277c-.407.2229-.737.0433-.737-.3998v-.0398c0-.4439.33-.9843.737-1.2063zM132.476 23.376l6.474-3.5013c.409-.2211.74-.0397.74.4033v.0398c0 .4431-.331.9817-.74 1.2028l-6.474 3.5004c-.408.2211-.74.0407-.74-.4024v-.0389c0-.444.331-.9835.74-1.2037z" fill="#0B3FA5"/></g><g opacity=".8"><path opacity=".8" d="M117.327 39.4076l8.787-4.7657c.407-.2211.739-.0416.739.4024v.0398c0 .443-.331.9825-.739 1.2036l-8.787 4.7648c-.408.2211-.739.0416-.739-.4024v-.0389c0-.4439.33-.9825.739-1.2036zM128.561 33.3119l4.626-2.5275c.408-.2228.738-.0433.738.3997v.039c0 .443-.331.9834-.738 1.2062l-4.626 2.5275c-.407.2229-.737.0434-.737-.3997v-.0389c0-.444.33-.9834.737-1.2063zM135.809 29.3553l3.141-1.6997c.409-.2211.74-.0407.74.4024v.0398c0 .443-.332.9825-.741 1.2027l-3.141 1.6997c-.409.2211-.74.0407-.74-.4032v-.0389c.001-.4431.333-.9817.741-1.2028z" fill="#0B3FA5"/></g></g><path d="M138.166 87.9699l.003-.0018v-5.3309l-6.37 2.5496L93.0882 64.161c-1.385-.7526-3.6298-.7526-5.0138 0l-73.3639 39.87L.00048828 108.22v5.346l.00187927.001c.00563781.489.34954445.977 1.03641245 1.35L43.064 137.753c1.385.753 3.6298.753 5.0139 0l89.0541-48.3982c.704-.3821 1.046-.8844 1.034-1.3849z" fill="#C8E2FF"/><path d="M.00048828 108.22v5.346l.00187927.001c.00563781.489.34954445.977 1.03641245 1.35l42.02512 22.836c.6926.376 1.6002.565 2.507.565V113.95l-24.2642-13.504-6.5962 3.585L.00048828 108.22z" fill="#A5CBFA"/><path d="M132.02 82.7734l-10.3-5.5954c-.923-.5014-2.42-.5014-3.343 0l-.577.3131c-.923.5014-2.42.5014-3.344 0l-12.336-6.7035c-.923-.5014-.923-1.315 0-1.8165l.576-.313c.923-.5015.923-1.3151 0-1.8165l-10.4366-5.6652c-.9227-.5015-2.4196-.5015-3.3432 0L6.05911 106.226c-.92273.501-.92273 1.315 0 1.816l39.76259 21.596c.9236.502 2.4205.502 3.3432 0l82.8531-45.0482c.926-.5014.926-1.315.002-1.8164z" fill="#031F60"/><path d="M120.048 76.27l13.686 7.3886-1.884 3.2844-11.802-6.4123V76.27zM90.5879 64.529v-4.26l13.7811 7.4809-3.921 2.1304-9.8601-5.3513z" fill="#1E3779"/><path d="M49.1669 129.638l82.5161-44.865-9.964-5.4114c-.923-.5014-2.42-.5014-3.343 0l-.577.3131c-.923.5014-2.42.5014-3.343 0l-12.337-6.7035c-.923-.5014-.923-1.315 0-1.8164l.337-.1831-.337-.1831c-.923-.5014-.923-1.315 0-1.8165l.24-.1299L92.2586 63.36c-.9227-.5014-2.4196-.5014-3.3432 0L6.39661 108.225l39.42519 21.413c.9256.502 2.4224.502 3.3451 0z" fill="#344593"/><path d="M121.72 79.3614c-.923-.5014-2.42-.5014-3.343 0l-.577.3131c-.923.5014-2.42.5014-3.344 0L102.12 72.971c-.923-.5014-.923-1.315 0-1.8165l.337-.183-.337-.1831c-.923-.5014-.923-1.315 0-1.8165l.24-.13-10.1006-5.4821c-.4613-.2512-1.0665-.3759-1.6716-.3759 0 0 5.51 13.0859.8081 26.8325C87.0097 102.64 61.4497 122.7 51.172 128.548l80.51-43.7752-9.962-5.4114z" fill="#2B3D89"/><path d="M101.428 69.8803v2.1835c.007.3679.26.6642.693.9083l12.336 6.7035c.428.2379.999.375 1.767.3741V77.248l-14.796-7.3677z" fill="#1E3779"/><path d="M137.133 81.2956L95.1094 58.4595c-1.385-.7526-3.6298-.7526-5.0148 0L1.03877 106.858c-1.385026.753-1.385026 1.972 0 2.725l42.02513 22.835c1.3851.753 3.6299.753 5.0139 0l89.0542-48.3977c1.385-.7526 1.385-1.973.001-2.7247zm-5.113 3.2942L49.1669 129.638c-.9227.502-2.4196.502-3.3432 0L6.06112 108.042c-.92273-.501-.92273-1.314 0-1.816L88.9181 61.1763c.9228-.5015 2.4196-.5015 3.3433 0l10.4366 5.6652c.923.5014.923 1.3151 0 1.8165l-.576.3131c-.923.5014-.923 1.315 0 1.8164l12.336 6.7035c.923.5015 2.42.5015 3.344 0l.577-.3131c.922-.5014 2.419-.5014 3.343 0l10.3 5.5954c.922.5015.922 1.3151-.002 1.8165z" fill="#DCEEFF"/><g opacity=".4" fill="#FAFDFF"><path opacity=".4" d="M35.0723 90.4523l7.176-3.9018h-3.8431l-7.1789 3.9018h3.846zM62.0709 75.7738l14.352-7.8039h-3.8281l-14.3586 7.8039h3.8347zM91.3508 60.881c.3308.061.6456.1521.9087.2954l4.5478 2.4691h7.8427l-5.0858-2.7636h-8.2134v-.0009zM80.5525 63.6455h3.8243l4.5403-2.4691c.2641-.1433.5789-.2344.9087-.2954h-4.1871l-5.0862 2.7645zM103.351 67.9699c-.081.2521-.296.4935-.654.688l-.576.3131c-.923.5014-.923 1.315 0 1.8165l9.174 4.9851h15.676l-14.36-7.8036h-9.26v.0009zM14.2452 101.777l14.352-7.8041h-3.8487l-14.3586 7.8041h3.8553zM45.1574 129.277l-14.368-7.804h-7.8675l14.3604 7.804h7.8751zM128.414 86.5505l-7.176 3.9018h4.059l7.179-3.9018h-4.062zM114.764 93.9729l-14.352 7.8041h4.049l14.358-7.8041h-4.055zM24.3078 117.952l-7.1835-3.902H9.26233l7.18067 3.902h7.8648zM77.8352 114.05l-7.176 3.902h4.0357l7.1788-3.902h-4.0385zM64.184 121.473l-14.352 7.804h4.0264l14.3585-7.804H64.184z"/></g><path d="M108 69.7316l5.986 3.2509c.513.2786.604.6819.203.8994-.402.2176-1.143.1689-1.656-.1105l-5.985-3.2501c-.514-.2785-.605-.6818-.203-.9003.401-.2175 1.142-.168 1.655.1106z" fill="#031F60"/><path d="M18.9227 122.169c0-.609 1.3634-.362 3.0445.552 1.6819.913 3.0444 2.148 3.0444 2.757v1.103l-6.0889-3.308v-1.104zM26.8938 127.256c0 .23.1729.511.3852.626.2124.116.3843.022.3843-.208 0-.231-.1729-.512-.3852-.628-.2124-.114-.3843-.022-.3843.21zM28.7928 128.288c0 .231.172.512.3844.627.2123.115.3843.022.3843-.209 0-.231-.1729-.512-.3853-.626-.2114-.117-.3834-.023-.3834.208zM30.6919 129.319c0 .23.1719.511.3843.626.2124.116.3843.022.3843-.208 0-.231-.1729-.512-.3852-.627-.2115-.115-.3834-.022-.3834.209zM32.5908 130.35c0 .231.172.512.3843.627.2124.115.3843.022.3843-.209 0-.23-.1719-.511-.3852-.627-.2114-.115-.3834-.021-.3834.209zM34.4899 131.382c0 .231.1719.511.3843.626.2123.116.3843.022.3843-.208 0-.231-.172-.512-.3853-.627-.2114-.115-.3833-.022-.3833.209zM36.3888 132.415c0 .231.1719.512.3843.627.2124.115.3843.022.3843-.209 0-.231-.1729-.511-.3852-.627-.2115-.115-.3834-.021-.3834.209zM38.2878 133.447c0 .231.1729.512.3843.627.2124.115.3844.022.3844-.209 0-.231-.172-.512-.3853-.626-.2114-.116-.3834-.023-.3834.208zM26.845 125.392c0 .231.1729.512.3852.628.2124.115.3843.022.3843-.21 0-.23-.1729-.511-.3852-.627-.2124-.115-.3843-.022-.3843.209zM28.744 126.422c0 .231.1729.512.3853.628.2123.114.3843.021.3843-.21 0-.23-.1729-.511-.3853-.627-.2123-.115-.3843-.021-.3843.209zM30.6429 127.455c0 .231.172.512.3844.627.2123.116.3843.022.3843-.209 0-.23-.1729-.511-.3853-.627-.2114-.115-.3834-.021-.3834.209zM32.542 128.487c0 .231.1719.512.3852.628.2124.115.3843.022.3843-.21 0-.23-.1729-.511-.3843-.627-.2133-.115-.3852-.021-.3852.209zM34.4409 129.52c0 .23.172.511.3843.627.2124.116.3843.022.3843-.209 0-.23-.1719-.511-.3843-.627-.2123-.116-.3843-.022-.3843.209zM36.34 130.552c0 .23.1719.511.3843.627.2123.115.3843.022.3843-.209 0-.231-.172-.511-.3843-.627-.2124-.116-.3843-.023-.3843.209zM38.239 131.584c0 .23.172.511.3843.627.2124.115.3843.022.3843-.209 0-.231-.1719-.512-.3843-.628-.2123-.115-.3843-.022-.3843.21zM4.55774 115.113c0 .231.17289.512.38524.627.21235.116.38429.022.38429-.209 0-.23-.17194-.511-.38429-.626-.21329-.117-.38524-.023-.38524.208zM6.45679 116.145c0 .231.17289.512.3843.627.21236.116.38431.022.38431-.208 0-.231-.17195-.512-.38431-.627-.21235-.116-.3843-.023-.3843.208zM8.35583 117.177c0 .23.1729.511.38431.627.21236.115.38431.022.38431-.209 0-.23-.17195-.511-.38431-.626-.21235-.117-.38431-.023-.38431.208zM10.2548 118.208c0 .23.1728.511.3852.627.2123.116.3843.022.3843-.209 0-.231-.172-.512-.3843-.626-.2133-.116-.3852-.023-.3852.208zM12.1538 119.239c0 .231.1729.512.3843.628.2124.115.3852.022.3852-.209 0-.23-.1728-.511-.3852-.626-.2123-.117-.3843-.024-.3843.207zM14.0527 120.272c0 .231.1729.512.3853.628.2123.116.3843.022.3843-.209 0-.23-.172-.511-.3843-.626-.2133-.118-.3853-.024-.3853.207zM15.9518 121.305c0 .23.1719.511.3843.626.2114.116.3843.022.3843-.208 0-.231-.1729-.512-.3852-.628-.2115-.115-.3834-.022-.3834.21zM4.50891 113.249c0 .231.17289.512.38431.627.21235.115.38431.022.38431-.209 0-.231-.17196-.512-.38431-.627-.21236-.115-.38431-.021-.38431.209zM6.40796 114.28c0 .231.17195.511.38431.626.21235.115.3843.022.3843-.208 0-.232-.17195-.512-.3843-.627-.21236-.115-.38431-.021-.38431.209zM8.30688 115.313c0 .231.1729.512.38431.628.21236.114.38431.021.38431-.21 0-.23-.17195-.511-.38431-.627-.21235-.115-.38431-.021-.38431.209zM10.2059 116.345c0 .231.1729.512.3853.626.2123.116.3843.023.3843-.208 0-.231-.172-.511-.3843-.627-.2133-.115-.3853-.022-.3853.209zM12.1049 117.377c0 .231.1728.512.3852.626.2123.115.3843.023.3843-.208 0-.231-.1729-.511-.3852-.627-.2124-.115-.3843-.022-.3843.209zM14.0039 118.409c0 .231.1729.512.3852.628.2124.115.3843.022.3843-.21 0-.23-.1728-.511-.3852-.627-.2123-.115-.3843-.022-.3843.209zM15.903 119.441c0 .23.1729.511.3852.626.2124.116.3843.022.3843-.209 0-.23-.1719-.511-.3843-.627-.2133-.114-.3852-.021-.3852.21z" fill="#7AA3E5"/><path d="M114.887 74.233c-.389.2111-.389.5539.001.7641.389.2112 1.019.2112 1.407 0 .389-.2111.389-.553 0-.7641-.389-.2111-1.019-.2111-1.408 0z" fill="#031F60"/><g opacity=".6"><path opacity=".6" d="M86.0757 55.2678c0-4.0795-3.0716-5.7483-6.8245-3.7081l-.0696.0371c-3.7538 2.0394-7.0679 7.0387-7.3648 11.1085l-.296 4.0637c-.1635 2.2436-2.4553 5.2354-5.1192 6.6831-2.6629 1.4468-4.8231.2485-4.825-2.6778l-.0028-3.6304c-.0019-3.2801-2.4741-4.6234-5.4931-2.9856-2.8687 1.5556-5.4386 5.3699-5.7121 8.4758l-.4143 4.7278c-.2547 2.9042-2.6564 6.4718-5.3381 7.9292l-.4304.2335c-2.6817 1.4565-5.1304.2768-5.4423-2.6222l-2.1772-20.2165c-.4369-4.0584-3.8656-5.7104-7.6195-3.671l-.0695.038c-3.7538 2.0394-6.8246 7.0466-6.8246 11.1262v42.2819l64.024-34.7887V55.2678h-.001z" fill="#57F7E0"/><path opacity=".6" d="M86.0758 77.6705V55.2678c0-4.0795-3.0717-5.7483-6.8246-3.7081l-.0696.0371c-3.7538 2.0394-7.0679 7.0387-7.3648 11.1085l-.296 4.0637c-.1635 2.2436-2.4553 5.2354-5.1191 6.6831-2.663 1.4468-4.8232.2485-4.8251-2.6778l-.0028-3.6304c-.0019-3.2801-2.4741-4.6234-5.4931-2.9856-2.8687 1.5556-5.4386 5.3699-5.712 8.4758l-.4144 4.7278c-.2547 2.9042-2.6564 6.4718-5.3381 7.9292l-.4303.2335c-2.6818 1.4565-5.1305.2768-5.4424-2.6222l-2.1772-20.2165c-.4369-4.0584-3.8656-5.7104-7.6195-3.671l-.0695.038c-3.7538 2.0394-6.8246 7.0466-6.8246 11.1262v42.2819" stroke="#E9FFFB" stroke-miterlimit="10" stroke-linecap="round"/></g><path opacity=".8" d="M89.3757 75.7887c-.2518 2.9157-2.6422 6.4611-5.3381 7.9177-2.7427 1.4813-5.3211.3192-5.8041-2.5709 0 0-.3157-1.8881-.7047-4.2175-.3899-2.3294-2.5596-3.2102-4.8466-1.9677-2.2871 1.2425-4.5234 4.5942-4.9961 7.4861l-.9669 5.9182c-.4726 2.8918-2.6225 6.1958-4.8005 7.38-2.1791 1.1841-4.266-.2087-4.6606-3.1112l-1.8549-10.1295c-.7395-4.0371-4.3946-5.6493-8.1635-3.6011l-.0696.038c-3.7688 2.0482-6.8245 7.0289-6.8245 11.1253v32.3429l64.0234-34.7891V45.3277c0-4.0964-2.753-5.927-6.1485-4.0884-3.3958 1.8377-6.4346 6.638-6.787 10.7211l-2.0578 23.8283z" fill="#57F7E0"/><path d="M104.369 87.6108V45.3277c0-4.0964-2.754-5.927-6.1494-4.0884-3.3959 1.8377-6.4346 6.638-6.787 10.7211l-2.0569 23.8283c-.2518 2.9157-2.6422 6.4611-5.338 7.9177-2.7428 1.4813-5.3212.3192-5.8042-2.5709 0 0-.3157-1.8881-.7047-4.2175-.3899-2.3294-2.5596-3.2102-4.8466-1.9677-2.2871 1.2425-4.5234 4.5942-4.9961 7.4861l-.9668 5.9182c-.4727 2.8918-2.6226 6.1958-4.8006 7.38-2.1791 1.1841-4.266-.2087-4.6606-3.1112l-1.8549-10.1295c-.7395-4.0371-4.3946-5.6493-8.1635-3.6011l-.0696.038c-3.7688 2.0482-6.8245 7.0289-6.8245 11.1253v32.3429" stroke="#E9FFFB" stroke-miterlimit="10" stroke-linecap="round"/></svg>