<svg width="190" height="138" fill="none" xmlns="http://www.w3.org/2000/svg"><path opacity=".15" d="M6.82411 90.4146l7.95099-4.0113c5.393-2.721 12.8396-3.3738 16.6343-1.4606 3.7939 1.9141 2.4982 5.6704-2.8948 8.3914l-7.9499 4.0113c-5.393 2.7196-12.83963 3.3736-16.63442 1.4597-3.794791-1.9132-2.4982-5.6704 2.89383-8.3905z" fill="#6B99D1"/><path d="M38.4744 39.6515c-.8187-.1642-1.4562-.575-2.6294-.7264-1.0332-.1335-1.7011-.2507-2.5883-.5981-.8863-.3483-2.8322-2.7081-4.3207-4.8387-1.7559-2.5139-2.9448-5.9236-3.0633-7.5691-.2007-2.7842-.0548-8.375-.2252-10.3079-.1714-1.9338-1.0655-2.5336-2.2446-3.0136-1.3857-.5639-2.4952-.3124-2.6382 2.4813-.144 2.7929-.2125 8.1809.711 11.9064.4475 1.8054 1.4474 4.6359 3.69 7.8745 1.5669 2.2615 3.2199 3.7794 5.3254 5.6772.5739.5168.853 1.0251 1.8156 2.1246.9607 1.0995 2.3739 2.1657 3.6009 2.6029 1.2261.4381 1.7471.427 1.9567.249.2634-.2233.1214-.5014-.4123-.7573-.5337-.2558-1.467-.6023-2.365-1.4366 0 0 1.135.6109 1.8528.9241.7159.3123 1.466.5202 2.0135.6067.6767.1069 1.4014-.522.8716-.7915-.5338-.2713-1.0254-.3525-2.0791-.83-.9578-.4338-1.561-.9172-1.561-.9172s1.1732.4646 2.2396.6913c1.0675.2268 1.5601.1275 1.8813.0479.3202-.0795.6042-.5536-.1048-.812-.6365-.2319-1.5561-.2858-2.6931-.8941-.8255-.4415-1.3387-.8531-1.1546-.9036.1851-.0496.6503.2387 1.4915.2918.804.0505 1.6286-.3192 1.6256-.7153-.0068-.3979-.1782-.202-.9959-.3663z" fill="#FFA8A7"/><path d="M21.4921 12.3984c-1.3064.8215-1.8294 2.3856-1.4494 7.0634.3809 4.6779 1.1144 8.2399 2.4179 11.2236 1.3044 2.9828 3.5774 6.4139 7.0294 9.1426 0 0 .5367-1.5513 2.6657-2.5755 0 0-3.7321-4.4742-4.9798-7.3184-1.2486-2.8442-1.3093-7.4108-1.3201-9.988-.0117-2.5781.3252-4.9388-.8637-6.3942-1.1429-1.3982-3.0045-1.4649-3.5-1.1535z" fill="#E4F2F2"/><path d="M19.6021 81.7961s-.0587.747-.2125 1.3621c-.1547.6152-.2605 1.6266-.1067 2.1151.1537.4878 1.5208 1.1312 2.4198 1.1954.899.065 2.3249.8368 2.8625 1.3775.7688.7735 2.7342 1.2877 3.9721 1.1098 1.2388-.178 2.6274-.4946 2.9026-.9464.2752-.4526-.1694-.9266-2.8723-2.4419-2.7019-1.5145-4.5077-2.4257-5.4126-3.8982l-3.5529.1266zM8.40685 85.3302c-.27127.6152-.79226.96-.64732 2.5764.14494 1.6163-.01861 2.2615-.20271 3.5826-.18313 1.3212.58953 3.1335 1.31226 3.9763.7237.8428 2.70192 1.0216 3.32862-.4792.6277-1.5017.7776-2.7672.3379-4.2766-.4397-1.5102.1449-2.6619-.145-3.6733-.2898-1.0123-.6992-1.7062-.6992-1.7062H8.40685z" fill="#2D2979"/><path d="M8.4069 43.6695c.06169 1.6951.6669 9.0537.93621 12.9512.27028 3.8966.331 8.6703.331 8.6703s-.76875 2.8382-1.26721 6.1753c-.49749 3.337 0 13.865 0 13.865s1.44055.9361 3.2846 0c0 0 2.0526-8.4265 3.0035-12.223.9528-3.7966 1.1154-5.9853 1.609-8.3392.5964-2.8485 1.8832-16.1325 1.8832-16.1325l.5151.0248 1.371 14.997s-.5367 1.2399-.8657 3.4047c-.3721 2.4429.3937 14.7326.3937 14.7326s1.5913.9139 3.5519-.1266c0 0 3.4285-16.2771 3.4285-18.7559 0-1.6386-.3212-23.2413-.3212-23.2413L8.4069 43.6695z" fill="#7FA8E6"/><path d="M18.187 48.6368s2.9174-1.0259 4.4853-2.0801c0 0-1.5689 1.4332-2.3406 1.8542-.7717.4218-.5415 12.1485-.5415 12.1485l-1.0881-11.8978-.5151-.0248z" fill="#6795D6"/><path d="M13.0573 10.9138s.2174 3.6955.1234 4.0232c-.094.3269-1.9419 1.4101-2.4796 1.7986-.5376.3884 2.9242 3.372 4.6076 4.0463 1.6844.6742 7.0167-1.1038 7.1107-3.3918.094-2.2888-.9127-4.2097-1.7314-4.3124-.8187-.1027-7.6307-2.1639-7.6307-2.1639z" fill="#FFA8A7"/><path d="M20.0045 15.1432c.5572-.4381-.0862-1.4084-.4701-2.0835-1.747-.4611-6.477-2.1459-6.477-2.1459s.047.8522.0764 1.4452c0 .6939.5004 1.4015 1.131 1.8216.473.3157 1.0998.6939 1.8862.96.6943.2362 2.5696 1.0114 3.8535.0026z" fill="#F28F8F"/><path d="M12.5845 15.5753s3.0682 3.9942 7.3507 4.3707c1.3494-1.162 1.4728-5.2999-.3957-6.6227 0 0 1.7167-1.2108 2.8919-.9755 0 0 1.8528.8394 2.6431 2.9469.7913 2.1083 1.5816 4.6325 1.5101 8.553-.0715 3.9206.0049 15.898.0049 15.898s-.6023 2.5336-4.4735 4.4186c-3.8701 1.885-6.7503 2.0689-9.3758 1.5342-2.1671-.4424-3.95829-1.109-4.70549-2.4831.1939-2.7475 1.59821-9.9187 1.07429-13.3738-.52393-3.4551-1.36025-6.0349-1.57569-8.8278-.21545-2.7937.4211-2.7372 2.02421-3.7332 2.15638-1.3399 3.02698-1.7053 3.02698-1.7053z" fill="#F5FBFB"/><path d="M10.4172 48.8549c-.65902-.4552-1.0811-1.0371-2.0653-1.6129-.86864-.5074-1.49246-.7556-2.03205-1.4623-.58563-.7675-.93426-3.3482-1.23295-5.8304-.35157-2.9289.3741-6.687.94307-8.2588 1.15558-3.1907 3.60384-7.5023 4.39803-9.3129.7952-1.8114.2821-2.6885-.54741-3.5638-.97538-1.0285-2.68035-.9694-4.1826 1.4991-1.50225 2.4686-3.6293 7.0626-4.62525 10.7744-.482797 1.7986-.969511 4.73-.5347 8.4949.304563 2.6303 1.05275 4.6214 2.02324 7.1259.26441.6819.26637 1.2458.59542 2.5994.32904 1.3537 1.08115 2.8459 1.97427 3.7016.89215.8548 1.36907 1.0396 1.64523.9583.34863-.1027.35647-.4073 0-.8385-.35549-.4313-1.02925-1.0944-1.43076-2.1845 0 0 .72566.978 1.21923 1.529.49357.5511 1.0694 1.02 1.52086 1.304.55918.3509 1.52282.054 1.17516-.3884-.34765-.4458-.75308-.7034-1.46993-1.5291-.65222-.7512-.95874-1.4135-.95874-1.4135s.83143.8591 1.6844 1.4632c.852.6041 1.34556.6999 1.67458.7478.3291.0479.8187-.2738.3046-.7726-.4613-.4484-1.26527-.842-1.99289-1.8175-.5298-.7084-.79127-1.2723-.59933-1.2484.19194.024.47006.4595 1.20454.8223.70216.3474 1.62758.3226 1.81858-.0368.1929-.3593.1488-.2952-.5093-.7495z" fill="#FFA8A7"/><path d="M8.68598 17.7982c-1.58647.2396-3.15531 1.7593-5.15603 6.1112C1.53022 28.2612.406958 31.7446.0857466 34.9251-.235464 38.1056.324696 42.502 2.12367 45.9588c0 0 1.37788-1.4914 3.80557-1.5992 0 0-.84024-5.4582-.53959-8.4933.30162-3.035 2.0154-6.8983 3.29633-9.2205 1.28092-2.3223 2.65092-4.1902 2.34152-6.2104-.3095-2.0194-1.74121-2.7279-2.34152-2.6372zM19.9352 19.9452s.3662-1.7755.3682-2.7312c-.0999-1.2809-1.1909-2.9529-1.1909-2.9529v-1.0353s.8452.1198 1.566.8924c.7197.7727 1.8215 2.4386 1.5502 4.0669 0 0-.5455.9506-2.2935 1.7601z" fill="#E4F2F2"/><path d="M19.9351 19.9451c.3104-.5279.9048-2.3049 1.1947-2.5685.5641-.1625 1.0988.8086 1.0988.8086s-.0176 1.0318-.7276 1.6171c-.711.5852-1.5659.1428-1.5659.1428z" fill="#F5FBFB"/><path d="M21.1298 17.3774c-.2899.2635-.8833 2.0407-1.1947 2.5686 0 0 .328-.4971.6473-.8548.3202-.3568.7041-1.0387 1.6462-.9061 0 0-.5347-.9712-1.0988-.8077z" fill="#C8DBDA"/><path d="M13.2075 14.2858c.0793.5673 3.5205 2.8057 4.3422 3.0966.8216.2901 2.3865 2.5628 2.3865 2.5628-1.2271-.1797-2.2416.2567-3.1289 1.0678 0 0-4.8905-1.7977-5.6818-4.6702 0 0 .9107-1.5402 1.0469-1.933.1371-.3927.5014-.8385 1.0116-.8582l.0235.7342z" fill="#E4F2F2"/><path d="M16.8064 21.013s.3623-2.2025.8872-2.4036c.5239-.2002 2.2416 1.3357 2.2416 1.3357-.6826.522-1.6109 1.026-3.1288 1.0679z" fill="#F5FBFB"/><path d="M17.6936 18.6094c-.5249.2003-.8872 2.4036-.8872 2.4036s1.371-1.0995 1.796-1.2108c.424-.1112 1.3328.1438 1.3328.1438s-1.7177-1.5368-2.2416-1.3366z" fill="#C8DBDA"/><path d="M22.6284 5.40434C22.123 2.53533 19.758.361963 16.3726.526249 12.7708.701658 10.014 3.39441 10.2138 6.54065c.1166 1.84052 1.2261 3.4038 2.8419 4.37065 0 0 .3105 1.0362.524 1.2544 1.1976 1.2245 4.8191 1.98 5.8591 1.85 1.3348-.1669 2.0595-.6538 2.695-1.9295 1.1252-2.25213.7717-5.26404.4946-6.68186z" fill="#FFA8A7"/><path d="M22.1358 3.09221C20.7363 1.23462 18.1686.13427 15.3718.642519c-1.706.309741-3.171 1.227841-4.0993 2.463381-1.29957.44237-1.2633 2.09632-1.2388 2.6097.1067 2.21097 1.1653 4.0814 3.023 5.1963-.0715-.1942-1.7774-2.42317-.0205-2.91602.2791.28322.3515.71702.3652 1.16966 0 0 .8716-.07102.6748-.96431-.0549-.24899-.1048-.47744-.1508-.6828-.1567-.69221.0479-1.39298.4994-1.97823.3653-.47232.6757-1.12859.4622-1.86273 0 0 2.175.84965 4.9552.33541 1.1723-.21733 1.9674-.60237 2.2936-.92067z" fill="#3A2C6D"/><path d="M11.2713 3.10673S10.8659 1.9781 12.5288.876848c1.9791-1.31089 4.7603-1.01825 7.6943 0 1.8744.651172 4.7829-.147175 4.2188 1.731022-.8256 2.75185-6.9089 2.98801-9.555 1.07045-.191-.0522-2.1094-.8668-3.6156-.57159z" fill="#3A2C6D"/><path d="M13.0577 10.8933s-.1518.3047-.7874.332c-1.1879.0514-2.57846-1.87648-1.6207-3.18654.5984-.81803 1.9488-.53138 2.3875-.04192l.0206 2.89646z" fill="#FFA8A7"/><path opacity=".15" d="M188.195 85.0927l-63.793-32.1784c-1.377-.6948-3.61-.6948-4.987 0L20.6257 102.785c-1.3769.695-1.3769 1.821 0 2.516l63.7945 32.178c1.3768.695 3.6096.695 4.9865 0l98.7893-49.8707c1.377-.6948 1.377-1.8209-.001-2.5156z" fill="#6B99D1"/><path d="M189.225 78.8822l.003-.0017v-4.9217l-2.456-1.6069-60.49-24.5871c-5.266-2.6542-7.499-2.6542-8.876-1.9595L34.2213 87.8032l-14.6278 3.8675v4.9354l.002.0009c.0049.4518.3476.9027 1.0312 1.2467l63.7944 32.1783c1.3769.694 3.6097.694 4.9866 0l98.7893-49.8706c.698-.3525 1.039-.8163 1.028-1.2792z" fill="#C8E2FF"/><path d="M19.5925 91.6709V96.6063l.002.0008c.0049.4518.3476.9027 1.0312 1.2467l63.7945 32.1782c.6884.348 1.5904.521 2.4933.521l-.0666-30.276-35.8424-20.9711-16.7832 8.4966-14.6288 3.8684z" fill="#A5CBFA"/><path d="M183.112 74.0846l-24.441-12.288c-.918-.4629-2.407-.4629-3.325 0l-.574.2892c-.918.4638-2.406.4638-3.324 0l-12.269-6.1889c-.918-.4629-.918-1.2142 0-1.6771l.573-.2892c.919-.4638.919-1.2142 0-1.6771l-18.182-9.2034c-.919-.4637-2.407-.4637-3.325 0L25.6189 89.8294c-.9186.4629-.9186 1.2133 0 1.6771l61.545 31.0345c.9186.464 2.4071.464 3.3257 0l92.6224-46.7785c.918-.4637.918-1.2142 0-1.6779z" fill="#031F60"/><path d="M157.009 60.959l27.808 13.9435-1.874 3.0324-25.934-13.0434V60.959zM119.907 46.146v-3.9342l21.508 10.8804-3.899 1.9671-17.609-8.9133z" fill="#1E3779"/><path d="M90.4897 122.541l92.2863-46.6097-24.105-12.1185c-.918-.4629-2.407-.4629-3.325 0l-.574.2892c-.918.4629-2.406.4629-3.324 0l-12.269-6.1889c-.918-.4629-.918-1.2142 0-1.6771l.335-.1694-.335-.1694c-.918-.4629-.918-1.2142 0-1.6771l.238-.1206-17.847-9.0331c-.919-.4638-2.406-.4638-3.325 0L25.9548 91.676l61.2092 30.865c.9186.463 2.4071.463 3.3257 0z" fill="#344593"/><path d="M158.671 63.8126c-.918-.4629-2.407-.4629-3.325 0l-.574.2892c-.918.4629-2.406.4629-3.324 0l-12.269-6.1889c-.918-.4629-.918-1.2141 0-1.6771l.335-.1694-.335-.1694c-.918-.4629-.918-1.2142 0-1.6771l.238-.1206-17.847-9.0331c-.46-.2319-1.061-.3474-1.662-.3474 0 0 11.363 11.3742 9.819 31.2458-.965 12.4094-27.023 40.1694-37.2426 45.5694l90.2916-45.6028-24.105-12.1186z" fill="#2B3D89"/><path d="M138.491 55.0593v2.0159c.007.3388.258.6126.688.8385l12.269 6.1888c.426.2199.994.3456 1.757.3456v-2.5865l-14.714-6.8023z" fill="#1E3779"/><path d="M188.195 72.7207l-63.793-32.1784c-1.377-.6948-3.61-.6948-4.987 0L20.6257 90.413c-1.3769.6948-1.3769 1.8208 0 2.5156l63.7945 32.1784c1.3768.695 3.6096.695 4.9865 0l98.7893-49.8707c1.377-.6948 1.377-1.8208-.001-2.5156zm-5.083 3.041L90.4898 122.54c-.9185.464-2.4071.464-3.3257 0l-61.545-31.0344c-.9186-.4637-.9186-1.2141 0-1.677l92.6259-46.7792c.919-.4638 2.406-.4638 3.325 0l18.182 9.2025c.918.4637.918 1.2142 0 1.6771l-.573.2892c-.919.4629-.919 1.2141 0 1.677l12.268 6.1889c.918.4638 2.406.4638 3.324 0l.574-.2892c.918-.4629 2.407-.4629 3.326 0l24.44 12.288c.919.4655.92 1.2159.001 1.6788z" fill="#DCEEFF"/><g opacity=".4" fill="#FAFDFF"><path opacity=".4" d="M56.9262 74.0187l7.6073-3.8418h-3.8213l-7.6121 3.8418h3.8261zM85.5473 59.5643l15.2147-7.6846h-3.8058l-15.2213 7.6846h3.8124zM34.8471 85.1696l15.2154-7.6837h-3.8281l-15.2222 7.6837h3.8349zM125.224 44.8995l5.376 2.7216h7.837l-5.396-2.7216h-7.817zM146.88 51.8797h-7.866l.739.3739c.918.4638.918 1.2142 0 1.677l-.573.2892c-.919.4629-.919 1.2142 0 1.6771l7.269 3.6663h15.665l-15.234-7.6835zM44.6439 101.099l-7.6199-3.8416h-7.8167l7.6169 3.8416h7.8197zM109.195 47.6211l5.389-2.7216h-3.799l-5.392 2.7216h3.802zM179.7 77.4859l-15.214 7.6837h4.033l15.222-7.6837H179.7zM188.196 72.7207l-5.043-2.5438h-7.815l7.643 3.8418h6.24c.021-.4689-.315-.9404-1.025-1.298zM140.551 97.2574l-7.607 3.8416h4.019l7.612-3.8416h-4.024zM126.08 104.565l-15.215 7.685h4.009l15.223-7.685h-4.017zM66.7575 112.25l-15.2398-7.685H43.697l15.234 7.685h7.8265zM84.809 121.353l-7.4378-3.75h-7.8295l7.4349 3.75h7.8324zM100.266 117.603l-7.4247 3.75h4.0014l7.4293-3.75h-4.006z"/></g><path d="M145.027 54.9216l5.952 3.0007c.511.2575.6.6289.202.8308-.399.2011-1.136.1557-1.647-.1018l-5.952-3.0007c-.511-.2575-.601-.6297-.202-.8308.399-.2011 1.137-.1557 1.647.1018z" fill="#031F60"/><path d="M47.7903 109.353c0-.562 1.3554-.335 3.028.509 1.6717.844 3.0271 1.983 3.0271 2.545l.0009 1.019-6.056-3.055v-1.018zM55.7178 114.049c0 .213.1714.472.3829.579.2105.107.3819.019.3819-.193 0-.213-.1714-.472-.3829-.579-.2115-.106-.3819-.02-.3819.193zM57.606 115.002c.0009.213.1723.472.3829.579.2115.106.3829.019.3829-.194 0-.212-.1714-.472-.3829-.578-.2116-.106-.3829-.02-.3829.193zM59.4949 115.955c0 .212.1713.472.3829.578.2115.107.3829.021.3829-.193s-.1714-.472-.3829-.578c-.2125-.107-.3829-.021-.3829.193zM61.3831 116.906c0 .213.1713.472.3829.579.2115.106.3829.02.3829-.193s-.1714-.472-.3829-.579c-.2116-.106-.3829-.02-.3829.193zM63.2722 117.86c0 .213.1714.472.3829.579.2115.107.3829.019.3829-.193 0-.213-.1714-.473-.3829-.579-.2115-.107-.3829-.02-.3829.193zM65.1611 118.813c0 .212.1714.472.3829.578.2106.107.382.021.382-.192 0-.214-.1714-.472-.382-.579-.2115-.107-.3829-.02-.3829.193zM67.0493 119.766c0 .213.1714.472.3829.579.2106.106.382.019.382-.194s-.1714-.472-.383-.579c-.2115-.106-.3829-.02-.3819.194zM55.668 112.329c.0009.212.1723.471.3829.578.2115.107.3829.021.3829-.193 0-.213-.1714-.472-.3829-.579-.2116-.106-.3829-.019-.3829.194zM57.5571 113.28c0 .213.1714.472.3829.579.2116.105.3829.019.3829-.194 0-.212-.1713-.472-.3829-.578-.2115-.106-.3829-.02-.3829.193zM59.446 114.234c0 .214.1714.472.383.579.2116.106.383.02.383-.193 0-.214-.1714-.473-.383-.579-.2116-.106-.383-.02-.383.193zM61.3342 115.187c0 .213.1714.472.3829.579.2116.107.3829.02.3829-.193s-.1713-.472-.3829-.579c-.2115-.107-.3829-.021-.3829.193zM63.2231 116.14c0 .212.1714.471.3829.578.2116.106.3829.021.3829-.193s-.1713-.473-.3829-.579c-.2115-.106-.3829-.019-.3829.194zM65.1123 117.092c0 .213.1714.472.3829.579.2106.106.3819.02.3819-.193 0-.214-.1713-.473-.3829-.579-.2105-.106-.3829-.02-.3819.193zM67.0002 118.045c.001.213.1724.472.384.579.2106.107.382.02.382-.193 0-.214-.1714-.472-.383-.579-.2125-.106-.383-.021-.383.193zM33.5042 102.838c0 .213.1713.472.3829.579.2105.106.3819.02.3819-.193s-.1714-.472-.3829-.579c-.2116-.106-.3819-.019-.3819.193zM35.3923 103.791c0 .213.1714.472.3829.579.2106.107.382.02.382-.194 0-.213-.1714-.471-.3829-.578-.2116-.106-.3829-.02-.382.193zM37.2803 104.744c0 .213.1723.472.3829.579.2115.107.3829.02.3829-.194 0-.212-.1714-.472-.3829-.578-.2116-.106-.3829-.021-.3829.193zM39.1697 105.696c0 .213.1714.472.3829.578.2115.106.3829.02.3829-.193s-.1714-.472-.3829-.578c-.2115-.106-.3829-.02-.3829.193zM41.0574 106.649c0 .213.1713.472.3829.579.2115.107.3829.02.3829-.193s-.1714-.473-.3829-.579c-.2116-.107-.3829-.02-.3829.193zM42.9468 107.602c0 .213.1713.472.3829.579.2115.106.3829.02.3829-.194 0-.212-.1724-.471-.3829-.578-.2116-.106-.3829-.02-.3829.193zM44.8357 108.555c0 .213.1714.472.3829.579.2106.106.3819.019.3819-.193 0-.213-.1713-.472-.3829-.579-.2105-.107-.3829-.02-.3819.193zM33.4553 101.118c0 .213.1714.471.3829.578.2106.107.382.021.382-.193 0-.213-.1714-.471-.3829-.578-.2116-.106-.383-.02-.382.193zM35.3425 102.069c0 .213.1724.472.3829.579.2115.106.3829.019.3829-.193 0-.214-.1714-.473-.3829-.579-.2115-.106-.3829-.02-.3829.193zM37.2314 103.023c0 .214.1714.473.3829.579.2116.107.3829.021.3829-.193s-.1713-.473-.3829-.579c-.2115-.106-.3829-.019-.3829.193zM39.1206 103.976c0 .213.1714.471.383.578.2115.107.3829.02.3829-.193s-.1714-.472-.3829-.578c-.2116-.106-.383-.02-.383.193zM41.0095 104.929c0 .213.1714.472.3829.578.2115.106.3829.021.3829-.193 0-.213-.1714-.472-.3829-.578-.2125-.106-.3829-.02-.3829.193zM42.8979 105.882c0 .213.1714.472.3829.579.2116.107.382.02.3829-.193 0-.213-.1723-.472-.3829-.579-.2115-.107-.3829-.021-.3829.193zM44.7866 106.834c0 .213.1714.472.3829.579.2106.107.382.02.382-.193s-.1714-.472-.3829-.579c-.2116-.106-.383-.02-.382.193z" fill="#7AA3E5"/><path d="M151.876 59.0774c-.386.1948-.386.5111.001.706.387.1949 1.014.1949 1.4 0 .387-.1949.387-.5112 0-.706-.387-.1949-1.015-.1949-1.401 0z" fill="#031F60"/><path d="M118.033 72.7457l15.59 7.8788.004-43.2643-15.594-7.878v43.2635z" fill="#57F7E0"/><path d="M133.623 80.6242l11.699-5.9005-.004-43.264-11.691 5.9006-.004 43.2639z" fill="#6CFFE6"/><path d="M145.317 31.4596l-15.593-7.8788-11.691 5.9014 15.594 7.878 11.69-5.9006z" fill="#ABFFEF"/><path d="M133.623 80.6242s-.177-.1685-.278-.486c-.13-.3166-.079-.782-.087-1.3733.004-1.1825.01-2.8724.017-4.9011.018-4.0567.04-9.4643.063-14.872.058-5.4086.087-10.8163.174-14.8729.069-4.0557.115-6.7596.115-6.7596s.046 2.7039.113 6.7596c.086 4.0566.115 9.4643.172 14.8729.021 5.4077.044 10.8162.061 14.872.006 2.0278.012 3.7177.015 4.9011-.008.5913.043 1.0559-.086 1.3725-.103.3183-.279.4868-.279.4868z" fill="#fff"/><path d="M145.317 31.4596c-.012-.0189.043.1574.005.2729-.015.148-.17.1686-.324.2576-.32.16-.778.3884-1.328.6622-1.098.5502-2.57 1.2716-4.054 1.9749-1.491.6948-2.967 1.4076-4.103 1.9021-1.125.51-1.888.8309-1.888.8309s.7-.4167 1.768-1.0131c1.057-.6118 2.502-1.3742 3.936-2.1546 1.439-.7726 2.889-1.5256 3.983-2.0818.546-.2789 1.001-.5117 1.32-.6742.165-.0719.262-.1789.418-.1173.133.0291.28.1592.267.1404z" fill="#fff"/><path d="M98.5415 82.5461l15.5895 7.9003.004-37.4014-15.5925-7.8985-.001 37.3996z" fill="#57F7E0"/><path d="M114.131 90.4464l11.699-5.9023-.004-37.3998-11.691 5.9006-.004 37.4015z" fill="#6CFFE6"/><path d="M125.826 47.1444l-15.593-7.8994-11.6905 5.9015 15.5925 7.8985 11.691-5.9006z" fill="#ABFFEF"/><path d="M114.131 90.4464s-.173-.1463-.278-.4201c-.131-.2738-.076-.6751-.086-1.1868.004-1.0225.01-2.484.016-4.2372.018-3.5064.041-8.1817.064-12.8561.058-4.6753.087-9.3505.173-12.857.069-3.5064.116-5.844.116-5.844s.045 2.3376.114 5.844c.085 3.5065.113 8.1817.17 12.857.021 4.6753.045 9.3505.062 12.8561.006 1.7532.011 3.2138.015 4.2372-.009.5117.044.913-.086 1.1868-.108.2738-.28.4201-.28.4201zM125.826 47.1446c-.013-.018.043.1574.006.273-.017.148-.171.1677-.325.2575-.321.16-.779.3885-1.328.6623-1.098.5502-2.57 1.2715-4.055 1.974-1.489.6948-2.967 1.4075-4.102 1.9021-1.123.51-1.886.8308-1.886.8308s.698-.4167 1.767-1.0131c1.056-.6118 2.502-1.3741 3.935-2.1545 1.439-.7727 2.889-1.5256 3.983-2.0818.547-.2789 1.001-.5117 1.321-.6743.165-.0718.263-.1788.418-.1172.131.03.279.16.266.1412z" fill="#fff"/><path d="M79.0486 92.4093l15.5904 7.8687.0039-27.5315-15.5933-7.8652-.001 27.528z" fill="#57F7E0"/><path d="M94.6389 100.278l11.7001-5.9015-.005-27.5298-11.6912 5.8997-.0039 27.5316z" fill="#6CFFE6"/><path d="M106.334 66.8467l-15.5926-7.8676-11.6918 5.9022 15.5933 7.865 11.6911-5.8996z" fill="#ABFFEF"/><path d="M94.639 100.278s-.1733-.107-.2791-.309c-.1302-.2011-.0764-.4971-.0862-.8736.004-.753.0098-1.8285.0167-3.1188.0206-2.5807.0157-6.0221.0636-9.4635.0568-3.4414.0901-6.8829.1685-9.4643.0715-2.5807.1204-4.3014.1204-4.3014s.048 1.7207.1195 4.3014c.0764 2.5814.1087 6.0229.1655 9.4643.047 3.4414.0411 6.8828.0597 9.4635.0069 1.2903.0118 2.3658.0157 3.1188-.0088.3765.0451.6725-.0862.8736-.1047.201-.2781.309-.2781.309zM106.334 66.847c-.012-.0189.044.1574.006.2729-.017.148-.171.1686-.325.2576-.321.16-.779.3884-1.327.6622-1.099.5502-2.571 1.2715-4.056 1.9748-1.4893.6948-2.967 1.4075-4.1011 1.9021-1.1242.51-1.8871.8308-1.8871.8308s.6992-.4167 1.7667-1.0131c1.0576-.6117 2.5031-1.3741 3.9355-2.1544 1.439-.7727 2.889-1.5256 3.983-2.0818.547-.2789 1.002-.5117 1.321-.6742.166-.0719.263-.1789.417-.1173.133.0291.279.1592.267.1404z" fill="#fff"/><path d="M59.5574 102.245l15.6188 7.867.0039-19.6666-15.6227-7.8643v19.6639z" fill="#57F7E0"/><path d="M75.1763 110.112l11.6997-5.903-.0039-19.6632-11.6919 5.8997-.0039 19.6665z" fill="#6CFFE6"/><path d="M86.8721 84.5457l-15.6228-7.866-11.6919 5.9015 15.6228 7.8642 11.6919-5.8997z" fill="#ABFFEF"/><path d="M75.1763 110.112s-.1733-.077-.2781-.221c-.1312-.145-.0773-.356-.0861-.624.0039-.538.0098-1.306.0166-2.228.0206-1.843.0147-4.301.0637-6.76.0568-2.4578.091-4.9161.1684-6.76.0725-1.8431.1204-3.0726.1204-3.0726s.048 1.2295.1195 3.0726c.0774 1.8439.1097 4.3022.1655 6.76.047 2.459.0411 4.917.0617 6.761.0059.921.0108 1.69.0147 2.228-.0088.269.045.48-.0862.624-.1067.143-.2801.22-.2801.22zM86.8723 84.5458c-.0127-.0179.0431.1575.0049.273-.0166.148-.1704.1685-.3241.2575-.3212.16-.7786.3885-1.328.6623-1.0978.5502-2.5697 1.2715-4.0553 1.9739-1.4895.6948-2.9663 1.4076-4.1013 1.9021-1.1242.51-1.8871.8308-1.8871.8308s.6992-.4167 1.7667-1.013c1.0576-.6118 2.5031-1.3742 3.9368-2.1545 1.4376-.7727 2.8879-1.5256 3.9828-2.0818.5464-.2789 1.0008-.5117 1.3201-.6742.1655-.0727.2624-.1797.4181-.1172.1313.029.2782.1591.2664.1411z" fill="#fff"/></svg>