<svg width="334" height="274" fill="none" xmlns="http://www.w3.org/2000/svg"><g clip-path="url(#clip0)"><path d="M155.319 61.0847L97.952 93.7378c-14.5433-4.3301-33.0742-2.9917-45.3032 3.969-14.8779 8.4682-14.78 22.0352.2197 30.3012 3.3672 1.855 7.1988 3.285 11.2854 4.293 2.8868.712 5.9011 1.212 8.9677 1.501 11.9308 1.127 24.6653-.937 33.8434-6.162 11.118-6.329 13.87-15.503 8.292-23.186l7.916-4.5054-.225-4.8757 8.331-.0563-.211-4.5653 8.33-.0564-.21-4.5653 8.33-.0563-.21-4.5654 8.33-.0563-.211-4.5653 8.895-.0608 2.714-1.5438 2.995-11.9876-14.712-1.9094zM74.5923 123.563c-3.8737 2.204-10.1789 2.247-14.0834.096-3.9044-2.153-3.9306-5.684-.0569-7.889 3.8726-2.204 10.179-2.247 14.0834-.095 3.9045 2.152 3.9295 5.683.0569 7.888zM186.702 267.637l-77.368-43.155c-5.209-2.918-4.555-8.015 1.459-11.383l75.09-42.059c6.015-3.369 15.114-3.735 20.323-.817l77.367 43.156c5.209 2.917 4.556 8.014-1.459 11.382l-75.09 42.059c-6.015 3.369-15.113 3.735-20.322.817z" fill="#C4D9E8"/><path d="M277.405 169.794l-13.376-7.492 49.317-27.623c2.329-1.304 2.329-3.428 0-4.732l-50.381-28.219c-2.329-1.306-6.12-1.306-8.449 0L205.2 129.35l-13.376-7.491 49.317-27.6232c9.704-5.4356 25.495-5.4356 35.199 0l50.382 28.2192c9.705 5.436 9.704 14.28 0 19.716l-49.317 27.623z" fill="#5793CE"/><path d="M298.988 173.092c0-6.937-4.347-14.996-9.711-17.999l-89.352-50.048c-2.401-1.345-4.595-1.44-6.291-.521l-.005-.004-106.6859 60.145 103.1689 75.42 105.105-59.183c.324-.143.639-.31.929-.522l.001-.001c1.755-1.291 2.841-3.821 2.841-7.287z" fill="#D4ECFF"/><path d="M190.112 240.084l105.105-59.183c.325-.144.639-.31.929-.522l.001-.001c1.755-1.29 2.841-3.82 2.841-7.286 0-3.312-.998-6.873-2.617-10.024l-119.812 67.109 13.553 9.907z" fill="#173D7A"/><path d="M183.394 239.816l-89.3533-50.047c-5.3627-3.004-9.7111-11.062-9.7111-18 0-6.937 4.3473-10.125 9.7111-7.122l89.3533 50.048c5.362 3.004 9.711 11.063 9.711 18-.001 6.937-4.349 10.125-9.711 7.121z" fill="#5793CE"/><path d="M170.009 222.938l-10.742-6.012c-1.069-.599-1.935-2.206-1.935-3.588 0-1.383.866-2.019 1.935-1.42l10.742 6.012c1.069.598 1.935 2.205 1.935 3.588.002 1.383-.865 2.018-1.935 1.42z" fill="#fff"/><path d="M89.3462 46.6995l18.3578 10.118 18.732-10.6635-.05-4.6371-.159.0905-.016-.328 8.331-.0563-.049-4.5664 8.169-.0553-.048-4.5675 8.169-.0552-.049-4.5665 8.17-.0552-.049-4.5675 8.733-.0586 2.714-1.5449 2.995-11.98764-.05-4.63823-1.445 4.44387-13.22-1.71283L89.3462 46.6995z" fill="#396CAA"/><path d="M107.654 52.1781l18.733-10.6613-.225-4.8756 8.331-.0563-.211-4.5654 8.331-.0563-.21-4.5664 8.331-.0564-.21-4.5653 8.33-.0563-.211-4.5665 8.895-.0596 2.714-1.545 2.995-11.98758-14.715-1.9072L89.2964 42.0624l18.3576 10.1157z" fill="#D4ECFF"/><path d="M120.128 45.0784c-1.886-2.5985-4.717-5.027-8.509-7.1164-2.671-1.4721-5.643-2.6637-8.794-3.6013l-13.5298 7.7017 18.3578 10.1169 12.475-7.1009z" fill="#396CAA"/><path d="M172.745 6.57222l.502-2.01211-2.469-.32026-58.499 33.29695 3.082 1.6985 57.384-32.66308z" fill="#5793CE"/><path d="M44.9744 61.3309l-.2015-6.5929 2.1754 4.4527-1.9739 2.1402z" fill="#D3D0CF"/><path d="M56.2837 76.1655c14.9986 8.2659 39.2187 8.1014 54.0963-.3667 7.46-4.2462 11.153-9.7734 11.092-15.2708l.001.0033-.208-6.9849-1.222 1.3219c-1.727-3.4434-5.015-6.6857-9.882-9.3681-14.9989-8.266-39.2191-8.1015-54.097.3666-14.8768 8.4659-14.7789 22.0327.2197 30.2987zm21.6669-12.3333c3.9044 2.1524 3.9306 5.684.0569 7.8883-3.8726 2.2043-10.1789 2.2473-14.0834.095-3.9045-2.1524-3.9306-5.6841-.0569-7.8883 3.8726-2.2043 10.1789-2.2463 14.0834-.095z" fill="#396CAA"/><path d="M56.081 69.5748c14.9986 8.266 39.2188 8.1015 54.097-.3666 14.878-8.4692 14.78-22.0349-.22-30.3009-14.9986-8.266-39.2187-8.1014-54.0967.3667-14.8768 8.4691-14.7789 22.0348.2197 30.3008zm21.6669-12.3321c3.9045 2.1523 3.9307 5.6829.0569 7.8883-3.8725 2.2042-10.1789 2.2473-14.0833.096-3.9045-2.1512-3.9307-5.6829-.0569-7.8882 3.8725-2.2054 10.1777-2.2485 14.0833-.0961z" fill="#F2F2F2"/><path d="M73.4713 73.1849c-3.3.5003-6.9506.0629-9.5483-1.3683-2.8003-1.5439-3.5937-3.7945-2.3973-5.7591l-6.7947-5.2268s-3.5516-3.8884-7.0679-7.7426c-5.4708 7.7591-2.5919 16.8964 8.6194 23.0763 4.9461 2.7255 10.4886 4.2738 16.7744 5.1705l.4144-8.15z" fill="#5793CE"/><path d="M56.081 69.5748c3.3672 1.8553 7.1988 3.2865 11.2854 4.2937 2.8868.7112 5.9011 1.2115 8.9677 1.5019 11.9308 1.1264 24.6649-.9376 33.8439-6.1622 14.878-8.4692 14.78-22.0349-.22-30.3009-14.9986-8.266-39.2187-8.1014-54.0967.3667-14.8768 8.4691-14.7789 22.0348.2197 30.3008zm21.6669-12.3321c3.9045 2.1523 3.9307 5.6829.0569 7.8883-3.8725 2.2042-10.1789 2.2473-14.0833.096-3.9045-2.1512-3.9307-5.6829-.0569-7.8882 3.8725-2.2054 10.1777-2.2485 14.0833-.0961z" fill="#D4ECFF"/><path d="M48.995 54.5613c.7296-4.223 3.9568-8.3499 9.7031-11.6198 13.2364-7.535 34.7861-7.6807 48.1309-.3269 6.632 3.6542 9.982 8.4736 10.057 13.3227.952-5.5051-2.347-11.177-9.899-15.3382-13.3446-7.3537-34.8931-7.208-48.1307.3269-6.6581 3.7901-9.9376 8.7276-9.8613 13.6353z" fill="#396CAA"/><path d="M39.9713 114.535c-2.6944 0-5.2272-.623-7.5061-1.879-5.3752-2.959-8.3656-8.905-8.4202-16.7449-.1047-14.2979 10.1527-31.8194 22.8667-39.0561 6.9654-3.9657 13.7612-4.5201 19.1364-1.5571 2.2903 1.2633 4.1617 3.0789 5.5653 5.3991 1.8646 3.0822 2.8242 6.8999 2.8561 11.3471.1047 14.2979-10.1551 31.8189-22.869 39.0559-4.0126 2.283-7.9695 3.435-11.6292 3.435zm18.5604-55.8612c-2.7001 0-5.7257.9089-8.8823 2.7057-11.2296 6.3908-20.2896 21.8659-20.1974 34.4951.041 5.8854 2.0593 10.2244 5.6837 12.2184 3.6222 1.994 8.4965 1.457 13.7282-1.52 11.2296-6.39 20.2896-21.8655 20.1985-34.4947-.0239-3.4654-.7547-6.4836-2.1127-8.7276-.9164-1.5163-2.1185-2.6913-3.5721-3.493-1.4366-.7907-3.0701-1.1839-4.8459-1.1839z" fill="#396CAA"/><path d="M65.5928 70.2794l10.6775 2.5388 1.5333-7.6873c-3.8726 2.2043-10.1789 2.2474-14.0834.0961l1.8726 5.0524z" fill="#D4ECFF"/><path d="M56.0811 69.5748c3.3671 1.8553 7.1987 3.2866 11.2853 4.2937 2.8868.7112 5.9011 1.2115 8.9678 1.5019 11.9308 1.1264 24.6648-.9376 33.8438-6.1622l-43.4877-.9475-10.6092 1.3141z" fill="#D4ECFF"/><path d="M72.1496 74.9021s-4.6216-.7289-9.4435-2.3622v6.4737c2.2971.7774 6.0855 1.9038 9.3286 2.3202 9.9569 1.2755.1149-6.4317.1149-6.4317z" fill="#396CAA"/><path d="M65.2148 73.3207c-1.9875-.5687-4.1526-1.2942-6.1515-2.202-5.8168-2.6416 1.5413 7.1451 1.5413 7.1451s1.983.7664 4.6102 1.5482v-6.4913zM174.312 187.046l-19.027 11.904-9.262-1.458 22.624-10.61 5.665.164z" fill="#5793CE"/><path d="M151.307 247.153s-5.481-2.682-8.847 1.31c-3.366 3.993-8.177 13.418-8.325 19.787-.149 6.369 5.195 5.939 8.372 4.432 3.177-1.508 12.457-14.568 13.019-17.127.562-2.558-.662-6.018-1.555-6.695-.893-.677-2.664-1.707-2.664-1.707z" fill="#173D7A"/><path d="M152.504 245.872l.254 5.508c.053 1.172-.554 2.287-1.604 2.866-.958.527-2.349.931-4.228.637-4.129-.644-4.497-1.788-4.792-7.295-.296-5.508 10.37-1.716 10.37-1.716z" fill="#5793CE"/><path d="M131.246 236.561s-5.481-2.681-8.846 1.311c-3.366 3.992-8.178 13.417-8.327 19.786-.149 6.369 5.195 5.939 8.372 4.432 3.177-1.508 12.457-14.567 13.019-17.126.561-2.559-.662-6.019-1.555-6.696-.893-.677-2.663-1.707-2.663-1.707z" fill="#173D7A"/><path d="M132.442 235.28l.254 5.508c.053 1.172-.553 2.287-1.604 2.866-.957.527-2.348.931-4.228.637-4.128-.644-4.497-1.788-4.792-7.295-.296-5.507 10.37-1.716 10.37-1.716z" fill="#5793CE"/><path d="M181.346 134.146c-1.622-25.606-28.584 3.766-28.584 3.766l-18.453 17.547-16.616 17.709c-3.246 3.459-4.755 8.128-4.128 12.765l6.722 49.656c.332 2.453 2.495 4.261 5.044 4.242.719-.006 1.545-.069 2.491-.212 5.996-.906 5.553-6.437 5.553-6.437l-1.228-46.443 34.897-20.409c-.001.001 15.924-6.579 14.302-32.184z" fill="#D4ECFF"/><path d="M145.48 177.961l-4.965-1.769c-.116 0-8.442 7.812-8.369 10.547l3.736 1.162 9.38-8.833.218-1.107zM174.312 187.046s20.738-11.488 23.22-16.304c.972-1.886 2.482-3.856-3.569-6.708l-27.657 19.127 1.199 6.585 6.807-2.7z" fill="#5793CE"/><path d="M201.408 144.027c-1.73-25.598-28.584 3.767-28.584 3.767l-18.453 17.547-16.616 17.709c-3.246 3.459-4.755 8.128-4.128 12.765l6.722 49.656c.332 2.452 2.495 4.26 5.044 4.241.719-.005 1.544-.068 2.489-.212 5.997-.905 5.554-6.437 5.554-6.437l-1.228-46.443 34.896-20.408s15.885-8.782 14.304-32.185z" fill="#D4ECFF"/><path d="M185.457 61.7075c20.441 8.2218 20.032 19.9433 20.032 19.9433s-4.005 42.9742-2.638 71.6752c.571 11.997-65.706 12.913-55.822-19.095 11.654-37.7412 7.286-68.295 12.741-72.9034 5.456-4.6084 20.4-1.7471 25.687.3799z" fill="#5793CE"/><path d="M192.034 72.1015c-1.069 4.0264-6.507 6.1478-12.145 4.7387-5.638-1.4091-9.343-5.8154-8.274-9.8419 1.069-4.0264 6.507-6.1478 12.145-4.7387 5.638 1.4091 9.342 5.8155 8.274 9.8419z" fill="#FFC2B0"/><path d="M183.34 78.2195c-1.199 0-2.443-.1491-3.694-.4616-2.928-.7311-5.473-2.2429-7.167-4.2572-1.764-2.0972-2.406-4.4903-1.81-6.7376 1.201-4.5278 7.185-6.9618 13.335-5.4212 2.927.7311 5.473 2.244 7.165 4.2594 1.766 2.0983 2.408 4.4903 1.811 6.7376-.958 3.6035-4.948 5.8806-9.64 5.8806zm-3.078-15.4508c-3.796 0-6.97 1.7139-7.702 4.4659-.437 1.6477.072 3.4478 1.433 5.0667 1.432 1.7029 3.612 2.9884 6.139 3.6201 5.107 1.2711 10.022-.5434 10.955-4.0574.438-1.6477-.071-3.4477-1.433-5.0667-1.432-1.704-3.612-2.9894-6.139-3.6211-1.106-.275-2.204-.4075-3.253-.4075z" fill="#fff"/><path d="M177.261 60.8129s.177.7952-.177 7.0789c-.112 1.9756 7.019 3.821 8.862 2.033 1.843-1.7879 1.105-3.6476 1.548-10.3708.443-6.7232-10.233 1.2589-10.233 1.2589z" fill="#FFC2B0"/><path d="M187.495 59.554s-1.755 6.234-10.411 8.6249l.131-5.6653 10.28-2.9596z" fill="#EA9C92"/><path d="M192.978 43.7156c2.176 8.1622-2.881 16.4889-11.294 18.5993-8.414 2.1104-16.997-2.7962-19.172-10.9573-2.175-8.1621 2.881-16.4889 11.295-18.5993 8.413-2.1104 16.996 2.7962 19.171 10.9573z" fill="#FFC2B0"/><path d="M181.358 48.0965s-8.662 3.6002-14.661 3.641c-5.998.042-4.677-4.8315-4.677-4.8315l17.806-2.4969 1.532 3.6874z" fill="#EA9C92"/><path d="M164.909 49.0451s7.546-3.1076 14.167-1.8122c1.556.3048 2.998 1.112 4 2.3069.328.3899.741.7466 1.211.8493 1.174.2584 3.095-4.4671 5.378-4.5753 2.282-.1071 3.804 1.4599 1.934 4.3655-1.872 2.9055-1.239 6.1578-.378 6.6238.86.466 9.991-6.3179 1.937-21.7964-8.053-15.4784-28.513-7.1417-31.694-4.0043 0 0-3.353 2.8337-6.078.3114-.001.0011-3.057 22.2083 9.523 17.7313z" fill="#FF2C9C"/><path d="M194.022 113.047v11.612c0 1.331-.577 2.6-1.591 3.497l-24.589 21.747 2.793 4.145 32.472-22.847c1.515-1.066 2.493-2.706 2.689-4.513l2.195-20.251-13.969 6.61z" fill="#FFC2B0"/><path d="M203.757 75.8441s7.46 10.8833 10.238 39.5319c0 0-12.742 3.998-19.974 1.728-7.232-2.269 9.736-41.2599 9.736-41.2599z" fill="#5793CE"/><path d="M192.659 89.6053s-2.92 15.1627-3.086 22.2887c-.045 1.959 1.188 3.727 3.086 4.393V89.6053z" fill="#396CAA"/><path d="M186.28 165.003l-5.434-.696-35.082-19.649c-1.125-.63-3.09-.551-4.388.176l-24.859 13.92-3.287-.421v3.174h.004c-.022.418.224.82.755 1.117l39.757 22.269c1.124.63 3.089.551 4.388-.176l27.072-15.159c.731-.409 1.095-.936 1.073-1.431v-3.124h.001z" fill="#173D7A"/><path d="M159.921 152.587l-2.493-1.396h-27.401l-13.509 7.561-3.286-.42v3.173h.003c-.022.419.224.821.755 1.118l39.757 22.269c.594.332 1.423.466 2.264.412l3.91-32.717z" fill="#396CAA"/><path d="M114.69 158.518l-1.458-.186v3.174h.003c-.022.418.224.82.755 1.117l.701.392v-4.497h-.001z" fill="#5793CE"/><path d="M154.146 185.072c1.067.392 2.59.307 3.729-.224v-5.399h-3.729v5.623z" fill="#274F89"/><path d="M153.747 181.72l-39.757-22.269c-1.125-.629-.984-1.73.315-2.457l27.072-15.158c1.299-.728 3.263-.806 4.388-.177l39.757 22.269c1.125.63.984 1.731-.315 2.458l-27.072 15.158c-1.3.728-3.263.806-4.388.176z" fill="#fff"/><path d="M153.074 178.345l-33.058-18.517c-.936-.523-.818-1.439.262-2.044l14.507-7.914c1.08-.605 2.713-.67 3.648-.147l33.058 18.517c.936.523.818 1.439-.262 2.043l-14.506 7.915c-1.081.605-2.714.671-3.649.147z" fill="#D4ECFF"/><path d="M142.914 141.104l-.411 2.661c-.351 2.268-.291 4.577.178 6.824l.49 2.345c.276 1.323 1.354 2.349 2.724 2.59 1.069.189 2.078-.54 2.199-1.588l.656-5.689s1.5 1.907 2.224 1.907c.724 0-.81-5.697-2.449-8.922-1.638-3.223-5.611-.128-5.611-.128z" fill="#FFC2B0"/><path d="M156.39 98.8067l-4.266 8.1913c-1.009 1.937-1.603 4.051-1.746 6.217l-1.853 28.018-5.612-.129-2.547-31.465c-.079-.972-.03-1.949.146-2.909l2.909-15.9552 12.969 8.0319z" fill="#FFC2B0"/><path d="M152.399 183.86l-3.333-4.222-35.057-19.691c-1.123-.632-2.033-2.323-2.032-3.777l.031-27.845-2.016-2.553 1.894-1.065.002.002c.364-.226.845-.221 1.375.078l39.73 22.315c1.124.632 2.033 2.322 2.032 3.777l-.033 30.324c-.001.818-.29 1.388-.743 1.617l-1.85 1.04z" fill="#173D7A"/><path d="M128.156 167.892l-2.49-1.399-13.673-23.039.015-15.131-2.016-2.553 1.894-1.064.002.002c.364-.227.845-.221 1.375.077l39.73 22.315c.595.334 1.126.965 1.498 1.699l-26.335 19.093z" fill="#396CAA"/><path d="M110.887 126.905l-.895-1.133 1.894-1.065.002.002c.364-.226.845-.221 1.376.078l.7.393-3.077 1.725z" fill="#5793CE"/><path d="M153.354 147.349c.883.7 1.567 2.024 1.66 3.247l-3.883 2.174-1.86-3.134 4.083-2.287z" fill="#274F89"/><path d="M151.101 148.165l-39.73-22.315c-1.124-.632-2.037.036-2.039 1.491l-.033 30.324c-.002 1.454.907 3.146 2.032 3.776l39.73 22.316c1.123.632 2.036-.037 2.038-1.491l.033-30.324c.003-1.455-.907-3.145-2.031-3.777z" fill="#5793CE"/><path d="M170.635 154.049l-.636 1.28c-.733 1.473-1.885 2.712-3.321 3.571l-3.946 2.36c-1.227.735-2.782.794-4.029.091-.044-.025-.09-.052-.134-.078-1.254-.762-1.367-2.51-.336-3.539l4.124-4.112s-2.316 1.721-2.966 1.028c-.476-.508 2.247-2.989 4.337-3.07 2.091-.082 4.113-1.674 4.113-1.674l2.794 4.143z" fill="#FFC2B0"/><path d="M160.179 61.2679s-15.118 15.9577-21.218 30.5979c0 0 5.171 9.0362 17.824 12.5822 12.655 3.545 3.394-43.1801 3.394-43.1801z" fill="#5793CE"/><path d="M153.939 103.5l2.45-22.9636-5.774 21.5146c1.03.521 2.144 1.005 3.324 1.449z" fill="#396CAA"/><path d="M171.502 58.0465l-4.063-1.0822s1.94 2.9596 4.771 3.7139c2.831.7542 3.271-1.5704 3.271-1.5704l-3.979-1.0613z" fill="#fff"/><path d="M245.619 17.6001L215.183.552368c-.603-.337927-1.148-.350075-1.574-.122581 0-.002209.003-.018774.003-.018774l-2.953 1.654297s1.307.46272 2.075.73549v21.5037c0 1.7493 1.096 3.7824 2.449 4.5399l29.092 16.2946v2.5234l2.982-1.6665-.016-.0055c.505-.2982.828-.953.828-1.8939V22.14c0-1.7493-1.097-3.7813-2.45-4.5399z" fill="#D3008D"/><path d="M242.613 47.5741l-30.438-17.0487c-1.352-.7576-2.448-2.7896-2.448-4.54V4.03004c0-1.74928 1.096-2.55323 2.448-1.79566l30.438 17.04882c1.352.7576 2.448 2.7895 2.448 4.5399v21.9565c.002 1.7482-1.096 2.5521-2.448 1.7945z" fill="#FF2C9C"/><path d="M222.411 22.9595c0 1.2711-.92 1.7857-2.054 1.1507s-2.053-2.18-2.053-3.4511c0-1.2711.919-1.7857 2.053-1.1507 1.135.635 2.054 2.18 2.054 3.4511zM228.633 26.4437c0 1.2711-.92 1.7857-2.054 1.1507-1.133-.635-2.053-2.18-2.053-3.4511 0-1.27.92-1.7857 2.053-1.1507 1.134.6361 2.054 2.1811 2.054 3.4511zM234.854 29.929c0 1.27-.92 1.7857-2.054 1.1507-1.133-.635-2.053-2.18-2.053-3.4511 0-1.2711.92-1.7857 2.053-1.1507 1.135.635 2.054 2.18 2.054 3.4511z" fill="#fff"/><path d="M35.212 205.508L5.35248 188.784c-.59079-.331-1.12466-.344-1.54357-.121 0-.002.00228-.018.00228-.018l-2.895907 1.623s1.282897.454 2.035327.721v21.096c0 1.717 1.07572 3.711 2.40301 4.454l28.54018 15.985v2.475l2.9255-1.634-.016-.006c.4941-.292.8117-.934.8117-1.857v-21.54c0-1.716-1.0758-3.711-2.403-4.454z" fill="#5793CE"/><path d="M32.2625 234.913L2.40301 218.188C1.07572 217.445 0 215.451 0 213.734v-21.54c0-1.716 1.07572-2.506 2.40301-1.763l29.85949 16.726c1.3273.743 2.403 2.736 2.403 4.453v21.541c0 1.716-1.0757 2.505-2.403 1.762z" fill="#D4ECFF"/><path d="M12.4442 210.766c0 1.246-.9015 1.751-2.0148 1.128-1.11216-.623-2.01485-2.139-2.01485-3.384 0-1.247.90156-1.752 2.01485-1.129 1.1121.623 2.0148 2.138 2.0148 3.385zM18.548 214.184c0 1.246-.9016 1.751-2.0149 1.128-1.1121-.623-2.0148-2.139-2.0148-3.385s.9016-1.751 2.0148-1.128c1.1122.623 2.0149 2.139 2.0149 3.385zM24.6505 217.603c0 1.246-.9015 1.751-2.0148 1.128-1.1122-.623-2.0149-2.139-2.0149-3.385s.9016-1.751 2.0149-1.128 2.0148 2.138 2.0148 3.385z" fill="#fff"/></g><defs><clipPath id="clip0"><path fill="#fff" transform="translate(0 .276367)" d="M0 0h334v273.348H0z"/></clipPath></defs></svg>