<?xml version="1.0" standalone="no"?>
<!DOCTYPE svg PUBLIC "-//W3C//DTD SVG 20010904//EN"
 "http://www.w3.org/TR/2001/REC-SVG-20010904/DTD/svg10.dtd">
<svg version="1.0" xmlns="http://www.w3.org/2000/svg"
 width="720.000000pt" height="720.000000pt" viewBox="0 0 720.000000 720.000000"
 preserveAspectRatio="xMidYMid meet">
<metadata>
Created by potrace 1.11, written by Peter Selinger 2001-2013
</metadata>
<g transform="translate(0.000000,720.000000) scale(0.100000,-0.100000)"
fill="#000000" stroke="none">
<path d="M3549 7196 c-2 -3 -22 -7 -44 -10 -22 -3 -101 -15 -175 -26 -199 -29
-249 -36 -320 -46 -19 -2 -44 -6 -55 -9 -11 -2 -40 -7 -65 -10 -62 -8 -110
-15 -140 -20 -14 -3 -45 -7 -70 -10 -25 -2 -45 -4 -45 -5 0 -3 -75 -14 -163
-25 -18 -2 -41 -6 -50 -9 -9 -3 -44 -8 -77 -12 -33 -3 -69 -8 -80 -11 -27 -5
-69 -12 -130 -18 -27 -3 -57 -8 -65 -10 -17 -5 -90 -16 -137 -21 -35 -3 -98
-12 -128 -18 -23 -4 -163 -26 -197 -30 -13 -2 -43 -6 -68 -10 -25 -4 -58 -9
-75 -11 -16 -2 -30 -4 -30 -5 0 -1 -16 -3 -35 -5 -19 -3 -48 -7 -65 -9 -42 -7
-136 -19 -157 -20 -10 0 -18 -3 -18 -6 0 -3 -10 -5 -22 -6 -33 -2 -119 -13
-148 -19 -14 -3 -41 -7 -60 -9 -19 -3 -53 -7 -75 -11 -22 -3 -56 -8 -75 -11
-19 -2 -46 -6 -60 -9 -14 -2 -77 -11 -140 -20 -63 -10 -122 -19 -130 -20 -8
-2 -23 -4 -33 -4 -18 -1 -18 -51 -14 -1288 2 -709 6 -1313 10 -1343 3 -30 8
-89 12 -130 4 -41 9 -86 10 -100 12 -100 17 -134 26 -200 6 -41 13 -88 16
-105 3 -16 7 -39 8 -50 5 -34 46 -228 57 -270 10 -40 14 -55 23 -97 6 -27 28
-103 58 -203 12 -38 22 -72 23 -75 0 -3 3 -12 6 -20 3 -8 25 -69 48 -135 71
-197 197 -477 286 -632 89 -156 244 -397 298 -465 11 -14 32 -41 46 -59 14
-18 33 -41 43 -51 9 -10 17 -22 17 -27 0 -5 3 -11 8 -13 4 -2 32 -32 62 -68
30 -36 66 -78 80 -94 50 -59 287 -294 365 -362 73 -64 153 -130 235 -194 111
-87 357 -252 500 -335 127 -75 381 -205 399 -205 6 0 11 -4 11 -10 0 -5 11
-10 25 -10 14 0 25 -4 25 -10 0 -5 6 -10 14 -10 8 0 27 -7 43 -15 47 -24 211
-87 325 -124 57 -19 73 -21 110 -11 74 20 313 101 323 111 5 5 15 9 22 9 8 0
33 9 55 20 23 11 46 20 51 20 10 0 331 153 357 170 8 5 35 20 60 32 25 13 47
25 50 28 3 3 14 10 25 16 151 82 311 187 498 327 81 60 147 114 147 118 0 5 6
9 14 9 8 0 16 4 18 8 2 4 44 44 93 87 104 91 282 269 372 370 122 138 321 401
393 520 13 22 28 41 32 43 4 2 8 7 8 12 0 4 29 58 65 119 35 61 76 135 90 164
14 28 30 59 35 67 16 24 85 177 123 270 42 105 49 122 53 135 2 6 28 80 57
165 45 131 68 207 91 300 2 8 12 44 21 80 9 36 19 74 21 85 2 11 15 75 29 143
13 68 24 126 23 130 -1 4 1 21 5 37 10 41 17 88 31 205 14 110 15 126 22 202
3 42 8 96 11 120 3 24 8 616 10 1316 4 1223 4 1272 -14 1273 -10 0 -25 2 -33
4 -8 1 -35 6 -60 9 -25 4 -56 9 -70 11 -14 2 -43 7 -65 10 -23 3 -50 7 -60 9
-11 2 -47 7 -80 11 -77 10 -93 12 -130 18 -60 10 -173 27 -210 31 -11 1 -33 5
-50 9 -16 3 -52 9 -80 12 -27 3 -61 8 -75 10 -14 3 -41 7 -60 9 -45 6 -106 15
-148 22 -17 3 -49 7 -70 10 -20 3 -46 7 -57 8 -11 2 -42 6 -70 10 -27 4 -61 9
-74 12 -13 2 -43 6 -65 9 -49 7 -79 13 -86 15 -3 1 -8 2 -13 1 -4 0 -49 5
-100 13 -141 23 -354 54 -407 61 -14 2 -41 6 -60 9 -35 6 -67 10 -165 22 -27
4 -52 8 -55 9 -3 2 -33 7 -65 10 -33 4 -62 9 -65 10 -3 2 -33 6 -65 10 -33 4
-70 8 -82 11 -13 2 -33 6 -45 8 -13 3 -43 7 -68 10 -25 4 -74 11 -110 16 -36
6 -78 13 -95 15 -88 12 -119 17 -138 21 -34 6 -154 14 -158 10z m109 -480 c12
-1 22 -4 22 -8 0 -5 3 -7 8 -6 6 2 38 -4 102 -18 14 -3 36 -7 50 -10 13 -3 63
-14 110 -25 47 -12 94 -22 105 -23 11 -2 54 -11 95 -20 71 -16 106 -24 122
-26 4 -1 22 -6 40 -11 18 -6 45 -12 59 -14 14 -2 66 -13 115 -24 125 -28 407
-91 435 -96 55 -11 66 -14 114 -25 28 -7 59 -14 70 -16 31 -5 64 -12 87 -20
11 -3 30 -7 41 -9 12 -2 33 -6 47 -9 14 -3 88 -19 165 -36 77 -17 151 -34 165
-37 14 -3 31 -7 39 -9 7 -1 34 -8 60 -14 25 -6 55 -12 66 -15 11 -2 56 -12
101 -21 l81 -18 -3 -865 c-2 -476 -5 -886 -7 -911 -2 -25 -7 -85 -11 -135 -4
-49 -9 -103 -11 -120 -2 -16 -7 -52 -10 -80 -13 -99 -14 -111 -21 -160 -3 -27
-8 -59 -11 -70 -2 -11 -6 -36 -8 -55 -3 -19 -8 -46 -11 -60 -3 -14 -8 -35 -10
-47 -22 -123 -45 -227 -75 -342 -17 -63 -32 -121 -34 -130 -2 -9 -8 -28 -14
-44 -6 -15 -13 -38 -15 -50 -5 -25 -72 -231 -85 -262 -43 -100 -59 -144 -54
-149 4 -3 2 -6 -4 -6 -5 0 -10 -6 -10 -12 0 -7 -9 -33 -20 -58 -11 -25 -37
-83 -58 -130 -52 -116 -127 -264 -186 -367 -27 -46 -49 -86 -49 -89 0 -15
-233 -363 -307 -459 -5 -5 -24 -30 -43 -55 -19 -25 -37 -47 -40 -50 -3 -3 -16
-18 -29 -35 -58 -76 -148 -173 -302 -325 -185 -184 -202 -199 -309 -285 -41
-33 -81 -66 -88 -73 -7 -6 -17 -12 -21 -12 -4 0 -16 -8 -27 -18 -55 -51 -258
-179 -403 -254 l-114 -60 -65 33 c-75 37 -267 153 -298 181 -11 10 -23 18 -27
18 -9 0 -169 123 -252 194 -33 28 -73 62 -90 76 -68 57 -307 303 -395 405 -51
61 -97 112 -102 113 -4 2 -8 10 -8 18 0 8 -3 14 -7 14 -5 0 -19 17 -33 38 -14
20 -28 39 -31 42 -11 9 -119 159 -119 165 0 3 -11 18 -25 33 -14 15 -25 30
-25 35 0 4 -15 29 -34 55 -44 63 -206 342 -199 342 3 0 -1 8 -9 18 -19 23
-178 351 -178 368 0 2 -9 26 -21 52 -48 107 -85 206 -131 347 -22 66 -41 127
-43 135 -27 96 -79 293 -85 320 -5 19 -11 46 -14 60 -6 25 -41 210 -51 265
-24 139 -38 245 -50 380 -3 28 -7 69 -10 93 -15 133 -19 369 -19 1126 l-1 840
50 13 c28 7 61 14 75 17 14 2 45 9 70 14 25 6 56 13 70 16 14 4 54 13 90 21
71 16 114 25 145 31 11 2 49 10 85 19 36 9 72 18 80 19 8 2 33 7 55 12 22 4
45 8 50 9 6 1 19 4 30 8 11 3 36 9 55 12 19 3 43 8 52 11 16 5 41 10 88 20 21
4 245 54 315 70 11 3 30 7 43 10 49 9 70 14 137 29 93 21 104 24 145 32 46 9
50 10 53 12 1 2 14 4 28 6 14 2 44 8 66 14 23 6 61 15 84 20 24 5 96 20 159
34 63 15 126 29 140 31 14 3 43 10 65 15 22 5 53 12 69 15 16 3 31 7 33 10 3
2 17 2 31 -1 15 -4 37 -7 50 -7z"/>
<path d="M2380 4117 l0 -1374 250 0 c172 0 250 4 251 11 0 6 1 225 2 488 l2
476 61 49 c34 27 69 56 78 66 10 9 20 17 24 17 4 0 23 15 43 33 20 17 45 39
55 47 11 8 43 35 72 58 28 24 56 42 60 40 5 -1 71 -73 147 -158 77 -85 144
-160 149 -166 11 -11 113 -126 149 -167 10 -12 49 -55 87 -97 38 -42 77 -85
87 -97 71 -80 143 -161 168 -188 17 -17 59 -65 95 -106 36 -41 74 -83 85 -95
11 -11 47 -51 80 -89 33 -37 71 -80 85 -95 l25 -27 318 0 317 0 -22 26 c-12
14 -34 38 -48 52 -14 14 -52 56 -85 93 -33 38 -78 87 -100 111 -22 23 -69 75
-105 115 -36 40 -78 87 -95 105 -16 17 -61 67 -100 109 -38 43 -92 101 -118
129 -26 29 -69 76 -95 105 -26 29 -65 72 -87 96 -22 24 -74 80 -115 126 -41
45 -91 99 -110 120 -19 21 -66 73 -105 116 -38 42 -81 89 -95 104 -14 14 -52
57 -85 94 l-59 68 34 30 c19 16 44 38 55 47 11 10 61 53 110 96 50 43 97 85
106 94 8 9 37 34 63 56 27 22 56 47 66 55 9 8 45 40 80 70 35 30 71 62 80 70
9 8 49 44 90 80 41 35 82 71 91 80 8 8 34 31 58 50 23 19 53 44 65 55 12 11
51 45 85 75 35 30 78 69 96 85 18 17 54 48 80 70 25 21 56 48 69 60 12 11 44
39 70 63 l49 42 -314 0 -314 0 -65 -56 c-36 -31 -86 -75 -111 -98 -25 -22 -72
-63 -104 -91 -33 -27 -74 -63 -91 -80 -18 -16 -64 -56 -103 -89 -39 -32 -71
-63 -71 -67 0 -5 -6 -9 -14 -9 -8 0 -16 -4 -18 -8 -1 -5 -39 -40 -83 -78 -44
-38 -86 -74 -93 -81 -7 -7 -33 -29 -59 -50 -26 -21 -56 -47 -68 -58 -24 -22
-47 -42 -150 -130 -38 -33 -76 -67 -85 -75 -9 -8 -30 -26 -46 -40 -56 -48
-119 -103 -179 -156 -114 -100 -130 -114 -136 -114 -3 0 -6 285 -6 633 -1 347
-2 635 -2 640 -1 4 -114 7 -251 7 l-250 0 0 -1373z"/>
</g>
</svg>
